<svg width="18" height="18" viewBox="0 0 18 18" fill="none" xmlns="http://www.w3.org/2000/svg">
<path d="M2.36538 9.05442C1.01394 8.57358 0.338218 8.33307 0.136892 7.96845C-0.0375744 7.65239 -0.0457383 7.27078 0.115059 6.94761C0.300617 6.57464 0.965448 6.30554 2.2951 5.76735L14.8282 0.694441C16.1377 0.164376 16.7925 -0.100652 17.2061 0.0352347C17.5652 0.153185 17.8468 0.434779 17.9648 0.793825C18.1007 1.20748 17.8356 1.86226 17.3056 3.17182L12.2327 15.7048C11.6945 17.0345 11.4254 17.6994 11.0524 17.885C10.7292 18.0457 10.3476 18.0376 10.0315 17.8631C9.66691 17.6617 9.4264 16.9861 8.94557 15.6346L7.47329 11.497C7.37976 11.2341 7.333 11.1026 7.25656 10.9928C7.18891 10.8955 7.10447 10.8111 7.00715 10.7434C6.89739 10.667 6.76592 10.6202 6.503 10.5267L2.36538 9.05442Z" fill="black"/>
</svg>
