<svg width="380" height="285" viewBox="0 0 380 285" fill="none" xmlns="http://www.w3.org/2000/svg">
<path d="M95.5615 2.5H296.887C315.273 2.5 326.36 18.072 331.169 37.3652V37.3662L342.983 84.9072L342.988 84.9287L342.994 84.9502L345.585 94.6455L345.604 94.7188L345.628 94.791C347.16 99.3882 347.193 99.4629 350.993 108.445C351.947 110.699 353.59 113.2 354.906 115.044C355.58 115.987 356.197 116.801 356.647 117.379C356.873 117.668 357.056 117.901 357.186 118.062C357.25 118.142 357.301 118.204 357.337 118.248C357.354 118.27 357.368 118.287 357.378 118.299C357.383 118.305 357.387 118.31 357.39 118.313C357.391 118.315 357.393 118.316 357.394 118.317L357.395 118.319L359.326 116.731L357.396 118.32L357.461 118.399L357.532 118.474C369.156 130.44 374.587 147.151 376.566 168.897C378.548 190.667 377.044 217.073 375.139 248.146L375.134 248.223V273.51C375.134 278.451 371.085 282.5 366.16 282.5H317.205C312.281 282.5 308.232 278.451 308.231 273.51V256.948H71.8467V273.51C71.8466 278.451 67.7976 282.5 62.873 282.5H13.918C8.9936 282.5 4.94541 278.451 4.94531 273.51V242.197C4.94532 241.729 4.99101 241.268 5.05469 240.662L5.0791 240.435L5.06152 240.207L4.95801 238.89C3.10329 215.12 1.0119 188.191 4 164.188C6.99059 140.164 14.998 119.668 32.8135 108.113L33.2109 107.855L33.4873 107.469C38.333 100.689 37.4642 101.339 40.1201 96.2773L40.7012 95.1855L45.3174 87.0566L45.4443 86.832L45.5234 86.5859L61.2646 37.5586V37.5576C64.3164 28.0374 68.3114 19.2102 73.8604 12.7969C79.3395 6.46443 86.3071 2.50007 95.5615 2.5Z" stroke="black" stroke-width="5"/>
</svg>
