<svg width="377" height="253" viewBox="0 0 377 253" fill="none" xmlns="http://www.w3.org/2000/svg">
<path fill-rule="evenodd" clip-rule="evenodd" d="M2.52832 192.714V202.997C4.87104 208.199 7.44497 222.553 8.73391 228.866C9.63837 233.295 10.4048 237.905 12.0774 241.79C14.608 247.666 16.4642 247.359 21.6098 250H358.817C363.15 247.563 363.158 248.241 364.793 242.465C365.816 238.852 366.79 234.756 367.832 230.665C369.355 224.686 371.748 211.136 373.618 206.935V195.518C369.667 186.752 371.297 182.399 363.683 177.579C356.436 172.99 349.314 174.121 341.67 176.695C339.884 155.905 344.593 102.174 339.597 87.0946C335.875 75.8618 328.324 67.8489 316.401 64.2354C300.443 59.3998 276.859 66.1248 275.728 59.7326C274.143 50.7693 284.312 57.9097 293.242 52.2017C299.577 48.1517 300.471 42.8419 298.967 34.5603C294.817 11.7237 295.075 9.93089 282.137 3.05713H224.84C212.428 10.082 211.86 10.0492 207.685 35.6758C204.56 54.8578 220.927 54.3472 225.422 54.9602C233.192 56.0212 231.025 52.6616 231.254 62.458H143.68C143.772 52.6372 141.57 55.7431 150.661 54.9056C173.144 52.8346 168.54 31.3285 162.373 14.5779C159.265 6.13793 156.908 7.00007 149.957 3.05713H92.6654C79.5752 9.96273 79.8929 12.316 75.8401 34.5593C74.3372 42.8048 75.2576 48.2389 81.5246 52.2356C90.5448 57.9893 100.689 50.684 99.069 59.7324C97.2898 63.0441 98.758 61.6541 94.4082 62.4911C90.3044 63.2804 68.7101 60.737 57.3586 64.5712C46.0813 68.3809 38.2558 76.4781 34.8921 88.0412C31.5586 99.4989 33.2399 161.019 33.4703 177.448C7.93331 170.589 8.69846 180.383 2.52832 192.714V192.714Z" stroke="black" stroke-width="5" stroke-miterlimit="2.61313"/>
</svg>
