flu<svg width="30" height="45" viewBox="0 0 30 45" fill="none" xmlns="http://www.w3.org/2000/svg">
<path d="M1.43 37.51C1.43 36.83 1.58333 36.22 1.89 35.68C2.19667 35.1333 2.61333 34.7067 3.14 34.4C3.67333 34.0933 4.26333 33.94 4.91 33.94C5.67 33.94 6.33333 34.1233 6.9 34.49C7.46667 34.8567 7.88 35.3767 8.14 36.05H7.05C6.85667 35.63 6.57667 35.3067 6.21 35.08C5.85 34.8533 5.41667 34.74 4.91 34.74C4.42333 34.74 3.98667 34.8533 3.6 35.08C3.21333 35.3067 2.91 35.63 2.69 36.05C2.47 36.4633 2.36 36.95 2.36 37.51C2.36 38.0633 2.47 38.55 2.69 38.97C2.91 39.3833 3.21333 39.7033 3.6 39.93C3.98667 40.1567 4.42333 40.27 4.91 40.27C5.41667 40.27 5.85 40.16 6.21 39.94C6.57667 39.7133 6.85667 39.39 7.05 38.97H8.14C7.88 39.6367 7.46667 40.1533 6.9 40.52C6.33333 40.88 5.67 41.06 4.91 41.06C4.26333 41.06 3.67333 40.91 3.14 40.61C2.61333 40.3033 2.19667 39.88 1.89 39.34C1.58333 38.8 1.43 38.19 1.43 37.51ZM9.15461 38.24C9.15461 37.68 9.26794 37.19 9.49461 36.77C9.72128 36.3433 10.0313 36.0133 10.4246 35.78C10.8246 35.5467 11.2679 35.43 11.7546 35.43C12.2346 35.43 12.6513 35.5333 13.0046 35.74C13.3579 35.9467 13.6213 36.2067 13.7946 36.52V35.52H14.7146V41H13.7946V39.98C13.6146 40.3 13.3446 40.5667 12.9846 40.78C12.6313 40.9867 12.2179 41.09 11.7446 41.09C11.2579 41.09 10.8179 40.97 10.4246 40.73C10.0313 40.49 9.72128 40.1533 9.49461 39.72C9.26794 39.2867 9.15461 38.7933 9.15461 38.24ZM13.7946 38.25C13.7946 37.8367 13.7113 37.4767 13.5446 37.17C13.3779 36.8633 13.1513 36.63 12.8646 36.47C12.5846 36.3033 12.2746 36.22 11.9346 36.22C11.5946 36.22 11.2846 36.3 11.0046 36.46C10.7246 36.62 10.5013 36.8533 10.3346 37.16C10.1679 37.4667 10.0846 37.8267 10.0846 38.24C10.0846 38.66 10.1679 39.0267 10.3346 39.34C10.5013 39.6467 10.7246 39.8833 11.0046 40.05C11.2846 40.21 11.5946 40.29 11.9346 40.29C12.2746 40.29 12.5846 40.21 12.8646 40.05C13.1513 39.8833 13.3779 39.6467 13.5446 39.34C13.7113 39.0267 13.7946 38.6633 13.7946 38.25ZM18.1924 41.09C17.7724 41.09 17.3958 41.02 17.0624 40.88C16.7291 40.7333 16.4658 40.5333 16.2724 40.28C16.0791 40.02 15.9724 39.7233 15.9524 39.39H16.8924C16.9191 39.6633 17.0458 39.8867 17.2724 40.06C17.5058 40.2333 17.8091 40.32 18.1824 40.32C18.5291 40.32 18.8024 40.2433 19.0024 40.09C19.2024 39.9367 19.3024 39.7433 19.3024 39.51C19.3024 39.27 19.1958 39.0933 18.9824 38.98C18.7691 38.86 18.4391 38.7433 17.9924 38.63C17.5858 38.5233 17.2524 38.4167 16.9924 38.31C16.7391 38.1967 16.5191 38.0333 16.3324 37.82C16.1524 37.6 16.0624 37.3133 16.0624 36.96C16.0624 36.68 16.1458 36.4233 16.3124 36.19C16.4791 35.9567 16.7158 35.7733 17.0224 35.64C17.3291 35.5 17.6791 35.43 18.0724 35.43C18.6791 35.43 19.1691 35.5833 19.5424 35.89C19.9158 36.1967 20.1158 36.6167 20.1424 37.15H19.2324C19.2124 36.8633 19.0958 36.6333 18.8824 36.46C18.6758 36.2867 18.3958 36.2 18.0424 36.2C17.7158 36.2 17.4558 36.27 17.2624 36.41C17.0691 36.55 16.9724 36.7333 16.9724 36.96C16.9724 37.14 17.0291 37.29 17.1424 37.41C17.2624 37.5233 17.4091 37.6167 17.5824 37.69C17.7624 37.7567 18.0091 37.8333 18.3224 37.92C18.7158 38.0267 19.0358 38.1333 19.2824 38.24C19.5291 38.34 19.7391 38.4933 19.9124 38.7C20.0924 38.9067 20.1858 39.1767 20.1924 39.51C20.1924 39.81 20.1091 40.08 19.9424 40.32C19.7758 40.56 19.5391 40.75 19.2324 40.89C18.9324 41.0233 18.5858 41.09 18.1924 41.09ZM24.197 35.42C24.6104 35.42 24.9837 35.51 25.317 35.69C25.6504 35.8633 25.9104 36.1267 26.097 36.48C26.2904 36.8333 26.387 37.2633 26.387 37.77V41H25.487V37.9C25.487 37.3533 25.3504 36.9367 25.077 36.65C24.8037 36.3567 24.4304 36.21 23.957 36.21C23.477 36.21 23.0937 36.36 22.807 36.66C22.527 36.96 22.387 37.3967 22.387 37.97V41H21.477V33.6H22.387V36.3C22.567 36.02 22.8137 35.8033 23.127 35.65C23.447 35.4967 23.8037 35.42 24.197 35.42Z" fill="#141414"/>
<path d="M15 30C23.2843 30 30 23.2843 30 15C30 6.71573 23.2843 0 15 0C6.71573 0 0 6.71573 0 15C0 23.2843 6.71573 30 15 30Z" fill="#FFC300"/>
<path d="M18.2838 18.7167C18.0946 20.6435 15.7835 24.3171 15.8015 25.0849C15.8195 25.8526 16.6054 29.3617 16.6054 29.3617H11.7826L11.4989 25.0381C11.4685 24.5727 10.0581 19.6451 12.4849 17.6227L13.7213 17.7531L14.3829 18.5993C15.8266 17.4519 16.5933 16.3445 15.3742 14.2307L14.6174 14.2644C13.9094 13.4615 14.3066 13.2224 15.1953 13.0421C16.002 12.8783 16.5975 13.0428 17.0336 13.4141C17.4304 13.8661 18.4319 17.2005 18.283 18.7164L18.2838 18.7167Z" fill="#FED298"/>
<path d="M25.3194 7.8565L16.7749 17.8723L12.1279 13.8459L20.6724 3.82977L25.3194 7.8565Z" fill="#83CF8F"/>
<path d="M20.1096 11.9952C19.4012 12.7985 18.1589 12.8903 17.3346 12.1991C16.5107 11.508 16.417 10.2967 17.1254 9.49338C17.8342 8.68969 19.0765 8.59828 19.9004 9.28941C20.7243 9.98019 20.8181 11.1918 20.1096 11.9952ZM12.5536 13.6181L16.6131 17.0212L24.6809 7.87076L20.6214 4.46802L12.5532 13.6185L12.5536 13.6181Z" fill="#75BD80"/>
<path d="M23.2779 7.12343L21.6577 5.74469C21.2304 6.23676 20.4812 6.29259 19.9845 5.86969L14.0425 12.7099C14.5393 13.1328 14.5961 13.8742 14.1688 14.3659L15.7891 15.7447C16.216 15.253 16.9651 15.1971 17.4623 15.62L23.4042 8.77984C22.907 8.35694 22.8509 7.61556 23.2782 7.12349L23.2779 7.12343Z" fill="#83CF8F"/>
<path d="M19.9716 9.21178C20.7739 9.93993 20.8649 11.2161 20.1755 12.0622C19.486 12.9091 18.277 13.0049 17.4751 12.2774C16.6731 11.55 16.5821 10.2735 17.2716 9.42697C17.961 8.58047 19.17 8.48436 19.9719 9.21178H19.9716Z" fill="#75BD80"/>
<path d="M19.2227 10.6C19.1771 10.5621 19.1274 10.545 19.0749 10.5486C19.0221 10.5522 18.9472 10.5818 18.8492 10.6375L19.22 10.9458C19.3195 10.7966 19.3205 10.681 19.2224 10.5997L19.2227 10.6ZM18.1813 10.6122C18.2296 10.6524 18.2808 10.6708 18.3345 10.6672C18.3884 10.6639 18.4588 10.6389 18.5456 10.5921L18.1765 10.2854C18.1326 10.3549 18.1115 10.4175 18.1132 10.4735C18.1152 10.5295 18.1377 10.5759 18.1816 10.6122H18.1813ZM19.3494 10.4326C19.436 10.5048 19.4795 10.5957 19.4802 10.705C19.4806 10.8144 19.4383 10.9317 19.3528 11.0562L19.5742 11.2404L19.4683 11.3593L19.2554 11.1827C19.1941 11.2516 19.1294 11.3138 19.0606 11.3691C18.9922 11.4242 18.9299 11.4647 18.8733 11.4894L18.7245 11.3655C18.7936 11.3342 18.8652 11.2911 18.9394 11.237C19.0136 11.1823 19.0749 11.128 19.124 11.0733L18.7037 10.7241C18.5505 10.816 18.4238 10.8644 18.324 10.8697C18.2242 10.8749 18.1309 10.8417 18.0444 10.7699C17.961 10.7003 17.9205 10.6121 17.9228 10.5053C17.9249 10.3986 17.9658 10.2889 18.0458 10.1769L17.8721 10.0323L17.9776 9.91307L18.1493 10.056C18.2532 9.94567 18.3737 9.85609 18.511 9.78723L18.5938 9.93911C18.4746 9.9997 18.3694 10.0745 18.2787 10.1631L18.6925 10.5073C18.8103 10.4372 18.9057 10.3907 18.9782 10.368C19.0511 10.3452 19.1175 10.3387 19.1768 10.3486C19.236 10.3585 19.2939 10.3865 19.3494 10.4329V10.4326Z" fill="white"/>
<path d="M21.7021 4.52715L16.1748 17.8724L10 15.2605L15.5276 1.91492L21.7021 4.52715Z" fill="#83CF8F"/>
<path d="M17.799 10.6268C17.3486 11.7342 16.1119 12.2562 15.0359 11.7926C13.9607 11.3289 13.4533 10.0554 13.9036 8.94798C14.354 7.84098 15.5907 7.31862 16.6667 7.78261C17.7423 8.24596 18.249 9.51914 17.799 10.6268ZM10.6387 14.951L15.9373 17.2341L21.0642 4.62386L15.7659 2.34045L10.6387 14.9507V14.951Z" fill="#75BD80"/>
<path d="M19.2949 4.52394L17.1106 3.617C16.83 4.2812 16.0595 4.59467 15.3898 4.31671L11.4897 13.5574C12.1598 13.8353 12.4755 14.5994 12.1949 15.2636L14.3796 16.1702C14.6601 15.506 15.4302 15.1929 16.1003 15.4708L20.0004 6.22982C19.3303 5.95192 19.0146 5.18779 19.2952 4.52359L19.2949 4.52394Z" fill="#83CF8F"/>
<path d="M16.7133 7.8252C17.8508 8.27908 18.3873 9.52507 17.911 10.6087C17.4348 11.6923 16.1261 12.2029 14.9886 11.7493C13.8507 11.2958 13.3142 10.0495 13.7905 8.96583C14.2668 7.88221 15.5754 7.37132 16.7133 7.8252Z" fill="#3FA344"/>
<path d="M16.179 9.56753C16.1141 9.54228 16.0528 9.54027 15.9961 9.56217C15.9387 9.58407 15.8666 9.64089 15.7782 9.73348L16.3056 9.93943C16.3609 9.74594 16.3183 9.62173 16.1794 9.56753H16.179ZM15.027 9.93071C15.0959 9.95764 15.1595 9.95999 15.2179 9.93848C15.2767 9.91657 15.3452 9.86646 15.4246 9.78706L14.9004 9.58245C14.8769 9.67129 14.8769 9.74566 14.9 9.80522C14.9227 9.86478 14.9653 9.90652 15.0273 9.93076L15.027 9.93071ZM16.258 9.34577C16.3807 9.39388 16.4629 9.47635 16.5045 9.59379C16.5456 9.7109 16.5423 9.85092 16.494 10.0131L16.8082 10.1359L16.7349 10.2991L16.4326 10.1814C16.39 10.2756 16.3413 10.3641 16.2858 10.4465C16.2299 10.529 16.1758 10.5926 16.1227 10.6383L15.9113 10.5555C15.9758 10.499 16.0393 10.4287 16.1018 10.3459C16.1638 10.2624 16.2118 10.1834 16.2457 10.1083L15.649 9.87545C15.5129 10.0252 15.3903 10.1198 15.2817 10.1588C15.1727 10.1982 15.0566 10.1938 14.9339 10.1457C14.8155 10.0996 14.7376 10.0188 14.7001 9.90372C14.6626 9.78829 14.6673 9.65738 14.7142 9.51032L14.4678 9.41405L14.541 9.25084L14.7849 9.34611C14.8589 9.19296 14.9599 9.05635 15.0865 8.93622L15.2348 9.07149C15.1252 9.17614 15.036 9.29157 14.9679 9.41746L15.556 9.64698C15.6606 9.53222 15.7489 9.45042 15.8215 9.40131C15.894 9.35253 15.9647 9.32325 16.0344 9.31348C16.1036 9.30403 16.1783 9.31482 16.258 9.34577Z" fill="#7DBF76"/>
<path d="M18.265 2.55316L18.2983 17.0057L11.5226 17.0212L11.4897 2.56869L18.265 2.55316Z" fill="#83CF8F"/>
<path d="M17.0714 9.78233C17.0743 10.977 16.1015 11.9473 14.8986 11.9501C13.6954 11.9529 12.7183 10.987 12.7151 9.79221C12.7126 8.59787 13.6854 7.62729 14.8883 7.62482C16.0915 7.62164 17.0689 8.58794 17.0714 9.78233ZM11.9463 16.5958L17.872 16.582L17.8406 2.97876L11.9146 2.99222L11.9463 16.5954V16.5958Z" fill="#75BD80"/>
<path d="M16.0831 3.40417L13.6747 3.40984C13.6762 4.1377 13.0788 4.72895 12.3403 4.73072L12.3642 14.8553C13.1026 14.8535 13.7029 15.4426 13.7047 16.1701L16.113 16.1645C16.1112 15.4366 16.7086 14.8454 17.4467 14.8436L17.4232 4.71903C16.6848 4.72045 16.0845 4.13167 16.0827 3.40417H16.0831Z" fill="#83CF8F"/>
<path d="M14.8889 7.65955C16.0636 7.65678 17.0186 8.60766 17.0214 9.7825C17.0242 10.9577 16.0737 11.9127 14.899 11.9149C13.7239 11.9176 12.7693 10.9671 12.7661 9.79226C12.7637 8.61707 13.7142 7.66232 14.8889 7.65955Z" fill="#75BD80"/>
<path d="M15.1798 9.38871C15.1131 9.38905 15.0586 9.41016 15.017 9.45209C14.9758 9.49402 14.9346 9.57506 14.8941 9.69561L15.438 9.69457C15.4095 9.49051 15.3233 9.38865 15.1798 9.389V9.38871H15.1798ZM14.3131 10.1626C14.3842 10.1626 14.4409 10.1408 14.4838 10.0989C14.5267 10.0563 14.5669 9.98283 14.6046 9.87856L14.0635 9.8796C14.0786 9.97277 14.1078 10.0431 14.151 10.0909C14.1943 10.139 14.2482 10.163 14.3128 10.1626H14.3131ZM15.1612 9.14899C15.2883 9.14899 15.3926 9.19644 15.4757 9.29243C15.5581 9.38802 15.6106 9.52243 15.6323 9.69428L15.9568 9.69359L15.9571 9.8758L15.6454 9.87614C15.6454 9.9818 15.6378 10.084 15.6213 10.1824C15.6052 10.2815 15.5828 10.3622 15.5543 10.4256H15.3359C15.3699 10.3477 15.3981 10.2576 15.4201 10.1554C15.4417 10.0535 15.4523 9.96069 15.452 9.87649L14.8367 9.87787C14.7766 10.0708 14.7065 10.2063 14.6265 10.2839C14.5465 10.3621 14.4432 10.4006 14.3161 10.401C14.1939 10.4013 14.0936 10.3539 14.0153 10.2586C13.9367 10.1633 13.889 10.0372 13.8718 9.87994L13.617 9.88029L13.6167 9.69842L13.8687 9.69808C13.8728 9.52485 13.9069 9.35788 13.9711 9.19678L14.1544 9.26988C14.0994 9.41016 14.0675 9.55291 14.0575 9.69773L14.6643 9.69635C14.7106 9.54877 14.7559 9.43794 14.7999 9.36449C14.8438 9.2907 14.8943 9.23698 14.9516 9.20167C15.009 9.16705 15.0784 9.14933 15.1607 9.14899H15.1612Z" fill="white"/>
<path d="M12.7562 2.76593L18.5111 16.0168L12.3507 18.7234L6.59619 5.47218L12.7562 2.76593Z" fill="#83CF8F"/>
<path d="M14.4313 9.88724C14.9102 10.9717 14.4097 12.2344 13.3137 12.7082C12.2178 13.1817 10.941 12.6869 10.4624 11.6024C9.9838 10.5179 10.4844 9.2552 11.5803 8.78173C12.6762 8.3079 13.953 8.8031 14.4316 9.88724H14.4313ZM12.4734 18.085L17.8725 15.7522L12.4206 3.40417L7.02148 5.73731L12.4737 18.085H12.4734Z" fill="#75BD80"/>
<path d="M11.1094 4.46802L8.96755 5.41124C9.25462 6.0735 8.95459 6.84513 8.29785 7.13423L12.2882 16.3459C12.9453 16.0565 13.7102 16.359 13.997 17.0212L16.1388 16.0776C15.8517 15.4157 16.1518 14.6445 16.8085 14.355L12.8179 5.14329C12.1611 5.4331 11.3962 5.13022 11.1091 4.46802H11.1094Z" fill="#83CF8F"/>
<path d="M11.5526 8.90173C12.6829 8.4315 13.9993 8.92325 14.4931 9.99966C14.9869 11.0761 14.4712 12.3304 13.3406 12.8003C12.2099 13.2705 10.8935 12.7791 10.3997 11.7024C9.90586 10.626 10.4223 9.3723 11.5526 8.90173Z" fill="#75BD80"/>
<path d="M12.6613 10.2387C12.5968 10.2648 12.5525 10.3039 12.53 10.3565C12.5072 10.4091 12.5014 10.4954 12.5123 10.6171L13.0389 10.4074C12.9261 10.2393 12.8002 10.1831 12.6613 10.2387ZM12.1445 11.2491C12.213 11.2216 12.2591 11.1812 12.2827 11.128C12.3066 11.0741 12.315 10.9944 12.3085 10.8881L11.7843 11.0969C11.838 11.173 11.8957 11.2233 11.9577 11.2485C12.0197 11.2739 12.0817 11.2742 12.1445 11.2491ZM12.5431 10.0356C12.666 9.98663 12.7875 9.98828 12.9075 10.0405C13.0276 10.0925 13.1339 10.1901 13.227 10.3323L13.5407 10.2073L13.6173 10.3667L13.3155 10.4868C13.3594 10.5787 13.3946 10.6714 13.42 10.764C13.4458 10.8567 13.4577 10.9364 13.4559 11.0026L13.2448 11.0863C13.2452 11.0049 13.235 10.9156 13.2136 10.8173C13.1919 10.7194 13.1636 10.634 13.1284 10.5609L12.5329 10.7981C12.555 10.99 12.5438 11.1359 12.4988 11.2348C12.4535 11.3334 12.3697 11.4075 12.2471 11.4562C12.1288 11.5035 12.0117 11.5002 11.896 11.4469C11.7803 11.3936 11.6816 11.3017 11.5993 11.1704L11.353 11.2686L11.2769 11.1095L11.5202 11.0122C11.4524 10.859 11.4158 10.6996 11.4104 10.5341L11.6185 10.5276C11.6239 10.6715 11.6519 10.8088 11.7026 10.9394L12.2902 10.7056C12.2735 10.5584 12.271 10.4442 12.283 10.3628C12.295 10.2814 12.3218 10.2146 12.3628 10.1623C12.4034 10.1097 12.4636 10.0673 12.5431 10.0356Z" fill="white"/>
<path d="M15.5756 15.2856L14.5804 17.4815L15.5293 19.1026C16.6101 20.949 11.2869 20.2985 11.7282 18.5692C11.7731 18.3929 12.109 17.2803 12.2811 17.1047L13.5121 15.8483L14.0758 14.5366C14.6468 12.8214 16.268 13.7581 15.5756 15.2856Z" fill="#FED298"/>
<path d="M14.579 13.8393C14.7036 13.5061 15.3309 13.5569 15.319 13.9284L15.0686 14.8936C15.0686 14.8936 14.4395 14.5694 14.2554 14.7129L14.579 13.8393Z" fill="#FFF7DF"/>
<path d="M10 27.8723H18.0851V29.6775C17.089 29.888 16.0559 30 14.9959 30C13.2411 30 11.5589 29.6958 10.0003 29.139V27.8724H10V27.8723Z" fill="#003566"/>
<path d="M10.2124 27.8723H17.872V26.8085H10.2124V27.8723Z" fill="white"/>
</svg>
