<svg width="40" height="22" viewBox="0 0 40 22" fill="none" xmlns="http://www.w3.org/2000/svg">
<path d="M24.3023 1.19647C24.227 0.755771 23.8452 0.43335 23.3977 0.43335H2.76797C2.17344 0.43335 1.69203 0.915302 1.69203 1.50874C1.69203 2.10327 2.17344 2.58468 2.76797 2.58468H7.78852C8.38305 2.58468 8.86445 3.06671 8.86445 3.66069C8.86445 4.25468 8.38305 4.73663 7.78852 4.73663H1.07594C0.481953 4.73663 0 5.21858 0 5.81257C0 6.40655 0.481953 6.88788 1.07594 6.88788H10.2255C10.7505 6.88788 11.1764 7.31444 11.1764 7.83944C11.1764 8.36444 10.7505 8.79038 10.2255 8.79038H5.36445C4.76992 8.79038 4.28852 9.27241 4.28852 9.8664C4.28852 10.4603 4.76992 10.9423 5.36445 10.9423H8.94703C9.4725 10.9423 9.89852 11.3683 9.89852 11.8933C9.89852 12.4182 9.4725 12.8442 8.94703 12.8442H4.00117C3.40664 12.8442 2.92523 13.3262 2.92523 13.9201C2.92523 14.5141 3.40664 14.9961 4.00117 14.9961H10.7991L11.2279 17.4212H13.6904C13.5455 17.7731 13.463 18.1573 13.463 18.5617C13.463 20.2215 14.8081 21.5667 16.468 21.5667C18.1271 21.5667 19.4723 20.2215 19.4723 18.5617C19.4723 18.1573 19.3898 17.7731 19.2449 17.4212H27.0605L24.3023 1.19647ZM17.7611 18.5616C17.7611 19.2762 17.1824 19.8548 16.4679 19.8548C15.7529 19.8548 15.1741 19.2762 15.1741 18.5616C15.1741 18.0644 15.4575 17.6379 15.8688 17.4212H17.0664C17.4777 17.6379 17.7611 18.0644 17.7611 18.5616Z" fill="black"/>
<path d="M39.9687 15.5369L38.7344 9.44772L34.2274 2.51343H26.0215L28.5632 17.4212H31.5648C31.4205 17.773 31.3379 18.1572 31.3379 18.5616C31.3379 20.2214 32.6831 21.5666 34.3423 21.5666C36.0021 21.5666 37.3473 20.2214 37.3473 18.5616C37.3473 18.1572 37.2647 17.773 37.1199 17.4212H38.4278C38.8996 17.4212 39.3465 17.2096 39.6452 16.8441C39.9433 16.4794 40.0626 15.9991 39.9687 15.5369ZM30.6664 5.28765H32.7222L35.3911 9.39288H31.3667L30.6664 5.28765ZM35.636 18.5616C35.636 19.2762 35.0573 19.8548 34.3423 19.8548C33.6284 19.8548 33.0491 19.2762 33.0491 18.5616C33.0491 18.0644 33.3331 17.6379 33.7438 17.4212H34.9414C35.3527 17.6379 35.636 18.0644 35.636 18.5616Z" fill="black"/>
</svg>
