<svg width="16" height="16" viewBox="0 0 16 16" fill="none" xmlns="http://www.w3.org/2000/svg">
<g clip-path="url(#clip0_469_1972)">
<path d="M14 3V11C14 11.275 13.775 11.5 13.5 11.5H2.5C2.225 11.5 2 11.275 2 11V1C2 0.725 2.225 0.5 2.5 0.5H6.82C6.995 0.5 7.16 0.595 7.25 0.745L8.285 2.5H13.5C13.775 2.5 14 2.725 14 3Z" fill="#FD5C5C"/>
<path d="M15.5 11V15C15.5 15.275 15.275 15.5 15 15.5H1C0.725 15.5 0.5 15.275 0.5 15V11C0.5 10.725 0.725 10.5 1 10.5H15C15.275 10.5 15.5 10.725 15.5 11Z" fill="#DF0C0C"/>
<path d="M8.70709 6.99998L10.3536 5.35348C10.5489 5.15818 10.5489 4.84178 10.3536 4.64643C10.1583 4.45108 9.84189 4.45113 9.64654 4.64643L8.00004 6.29293L6.35354 4.64643C6.15824 4.45113 5.84184 4.45113 5.64649 4.64643C5.45114 4.84173 5.45119 5.15813 5.64649 5.35348L7.29299 6.99998L5.64649 8.64648C5.45119 8.84178 5.45119 9.15818 5.64649 9.35353C5.74419 9.45113 5.87209 9.49998 6.00004 9.49998C6.12799 9.49998 6.25589 9.45113 6.35354 9.35348L8.00004 7.70703L9.64654 9.35353C9.74419 9.45113 9.87209 9.49998 10 9.49998C10.128 9.49998 10.2559 9.45113 10.3535 9.35348C10.5488 9.15818 10.5488 8.84178 10.3535 8.64643L8.70709 6.99998Z" fill="#DF0C0C"/>
</g>
<defs>
<clipPath id="clip0_469_1972">
<rect width="16" height="16" fill="white"/>
</clipPath>
</defs>
</svg>
