<svg width="40" height="30" viewBox="0 0 40 30" fill="none" xmlns="http://www.w3.org/2000/svg">
<path fill-rule="evenodd" clip-rule="evenodd" d="M3.3105 11.1654C-0.26372 9.349 0.146436 7.32426 3.73693 7.53585L4.54097 9.04301L6.19787 3.89001C6.84891 1.86202 7.93289 0.0228271 10.0585 0.0228271H31.25C33.3756 0.0228271 34.5996 1.82621 35.1139 3.88676L36.3574 8.8835L37.0735 7.53585C40.7649 7.321 41.0937 9.46619 37.1875 11.3184L37.8222 12.2917C40.3906 14.9317 40.1497 19.5996 39.7493 26.1198V28.7696C39.7493 29.4336 39.2057 29.9773 38.5416 29.9773H33.3886C32.7246 29.9773 32.1809 29.4336 32.1809 28.7696V27.2917H7.82547V28.7696C7.82547 29.4336 7.28185 29.9773 6.61779 29.9773H1.4648C0.800733 29.9773 0.257113 29.4336 0.257113 28.7696V25.4786C0.257113 25.4135 0.263624 25.3516 0.270134 25.2898C-0.120491 20.2865 -0.670621 13.7435 3.3105 11.1654ZM9.88927 19.1309L5.31245 18.5547C4.23172 18.4343 3.94201 18.89 4.30985 19.821L4.80464 21.0222C4.96414 21.3314 5.17573 21.556 5.42313 21.7123C5.71284 21.8913 6.06115 21.9792 6.44852 21.9955L10.5306 22.028C11.5169 22.0248 11.9433 21.6309 11.6341 20.726C11.3802 19.8763 10.8007 19.3425 9.88927 19.1309ZM17.7018 17.2071H22.3893C22.666 17.2071 22.8938 17.4349 22.8938 17.7116C22.8938 17.9883 22.666 18.2162 22.3893 18.2162H17.7018C17.4251 18.2162 17.1972 17.9883 17.1972 17.7116C17.194 17.4349 17.4218 17.2071 17.7018 17.2071ZM29.2838 23.8347H33.9713C34.248 23.8347 34.4759 24.0625 34.4759 24.3392C34.4759 24.6159 34.248 24.8438 33.9713 24.8438H29.2838C29.0071 24.8438 28.7792 24.6159 28.7792 24.3392C28.7792 24.0625 29.0039 23.8347 29.2838 23.8347ZM30.1106 19.1309L34.6875 18.5547C35.7682 18.4343 36.0579 18.89 35.6901 19.821L35.1953 21.0222C35.0358 21.3314 34.8242 21.556 34.5768 21.7123C34.2871 21.8913 33.9388 21.9792 33.5514 21.9955L29.4694 22.028C28.483 22.0248 28.0566 21.6309 28.3658 20.726C28.6197 19.8763 29.1992 19.3425 30.1106 19.1309ZM5.99279 23.8347H10.6803C10.957 23.8347 11.1848 24.0625 11.1848 24.3392C11.1848 24.6159 10.957 24.8438 10.6803 24.8438H5.99279C5.7161 24.8438 5.48823 24.6159 5.48823 24.3392C5.48823 24.0625 5.7161 23.8347 5.99279 23.8347ZM6.25972 10.1791H34.5214L33.2747 4.99679C32.9329 3.41801 31.9498 2.05082 30.3287 2.05082H10.7617C9.14383 2.05082 8.31375 3.45382 7.81571 4.99679L6.25972 10.1791Z" fill="black"/>
</svg>
