<svg width="11" height="11" viewBox="0 0 11 11" fill="none" xmlns="http://www.w3.org/2000/svg">
<path d="M9.8508 0.444308C9.6992 0.293953 9.51786 0.176943 9.31839 0.100783C9.11893 0.0246232 8.90574 -0.00900415 8.69252 0.0020577C8.25866 0.0261216 7.8502 0.21435 7.55004 0.528547L2.87482 5.18271C2.85074 5.20917 2.83117 5.23941 2.8169 5.27221C2.79614 5.30191 2.7785 5.33366 2.76426 5.36698L2.10615 7.51505C2.08268 7.59525 2.07864 7.67989 2.09436 7.76196C2.11009 7.84403 2.14512 7.92118 2.19656 7.98703C2.24801 8.05288 2.31439 8.10553 2.39022 8.14065C2.46604 8.17576 2.54914 8.19232 2.63263 8.18896C2.68147 8.19665 2.73121 8.19665 2.78005 8.18896L4.88601 7.57297L4.98077 7.52032C5.01358 7.50605 5.04382 7.48648 5.07028 7.46241L9.74023 2.78718C10.0544 2.48702 10.2427 2.07857 10.2667 1.6447C10.2873 1.42651 10.2608 1.20644 10.189 0.999363C10.1173 0.792282 10.0019 0.603004 9.8508 0.444308Z" fill="black"/>
<path d="M10.0033 10.2949H0.526489C0.386855 10.2949 0.252941 10.2395 0.154205 10.1407C0.0554692 10.042 0 9.90807 0 9.76843C0 9.6288 0.0554692 9.49488 0.154205 9.39615C0.252941 9.29741 0.386855 9.24194 0.526489 9.24194H10.0033C10.1429 9.24194 10.2768 9.29741 10.3756 9.39615C10.4743 9.49488 10.5298 9.6288 10.5298 9.76843C10.5298 9.90807 10.4743 10.042 10.3756 10.1407C10.2768 10.2395 10.1429 10.2949 10.0033 10.2949Z" fill="black"/>
</svg>
