<svg width="16" height="13" viewBox="0 0 16 13" fill="none" xmlns="http://www.w3.org/2000/svg">
<g clip-path="url(#clip0_469_2019)">
<path d="M16.0005 9.80223V3.75311L11.7305 6.7778L16.0005 9.80223Z" fill="black"/>
<path d="M13.5146 0H2.48544C1.11287 0 0 0.904186 0 2.01942V2.07858L7.12138 7.12293C7.37503 7.30189 7.68512 7.39014 8 7.3904C8.31494 7.39014 8.62563 7.30189 8.87866 7.12293L16 2.07858V2.01942C16 0.904186 14.8872 0 13.5146 0Z" fill="black"/>
<path d="M9.89939 8.07448C9.35692 8.45928 8.67608 8.65304 8.00011 8.65258C7.32417 8.65306 6.64392 8.45908 6.10086 8.07448L5.4522 7.61499L0.0644531 11.4312C0.316891 12.3293 1.30411 13 2.48555 13H13.5147C14.6967 13 15.6834 12.3293 15.9358 11.4312L10.548 7.61499L9.89939 8.07448Z" fill="black"/>
<path d="M0 3.75311V9.80223L4.27006 6.77754L0 3.75311Z" fill="black"/>
</g>
<defs>
<clipPath id="clip0_469_2019">
<rect width="16" height="13" fill="white"/>
</clipPath>
</defs>
</svg>
