<svg width="354" height="285" viewBox="0 0 354 285" fill="none" xmlns="http://www.w3.org/2000/svg">
<path fill-rule="evenodd" clip-rule="evenodd" d="M257.675 202.438C238.922 200.216 165.081 189.137 153.313 189.608C136.008 190.3 123.126 202.036 117.361 213.249C109.466 228.607 113.977 251.501 112.531 269.257C90.0545 269.297 59.3404 273.951 44.7911 259.364C29.6284 244.164 25.9127 221.67 42.8944 205.285C46.808 235.317 41.3439 225.774 54.9505 240.671C58.5094 244.569 59.4266 247.008 66.8313 245.669C70.776 234.88 60.4061 233.361 57.1992 224.882C54.8968 218.796 54.2424 199.74 54.412 192.548C63.2625 186.991 83.0314 168.569 87.8468 161.577C97.4662 147.61 102.372 129.336 101.121 108.638L127.932 101.481C131.791 117.803 137.814 150.36 160.159 140.614C179.73 132.08 164.048 101.682 159.239 85.3746C154.336 68.7434 151.577 35.7542 129.694 38.3381C119.846 39.4999 113.377 48.6525 115.413 59.7366C117.166 69.2797 121.764 79.7158 123.882 89.6184L97.4493 97.5172C83.5205 80.3328 85.5303 51.6085 55.2105 55.7391C44.6046 57.1838 32.164 60.7087 21.3291 62.8426C1.25352 66.7977 2.69092 63.9478 3.27323 86.0623C4.66823 139.051 9.75497 184.581 19.8945 234.878C31.7047 293.462 81.4866 280.859 139.746 280.861C162.595 280.861 294.857 282.477 305.836 279.583C331.94 272.703 337.596 243.628 326.594 226.862C314.948 209.114 311.981 230.966 327.049 164.946C332.232 142.234 336.558 119.575 341.829 96.8691C347.234 73.59 337.764 88.3759 345.039 62.5681C347.868 52.5269 352.749 38.9154 350.363 28.0747C345.675 6.77383 318.128 -5.95036 299.809 10.5167C279.69 28.6039 293.689 62.6559 285.127 75.506C268.273 100.802 252.519 134.938 252.142 167.683C251.957 183.723 256.375 190.704 257.675 202.437V202.438Z" stroke="#2B2A29" stroke-width="5" stroke-miterlimit="2.61313"/>
</svg>
