<svg width="27" height="24" viewBox="0 0 27 24" fill="none" xmlns="http://www.w3.org/2000/svg">
<path d="M0 20.1404L7.55263 10.0702L0 0H16.364C16.7626 0 17.1403 0.089163 17.4969 0.267489C17.8536 0.445815 18.1473 0.692325 18.3781 1.00702L25.1754 10.0702L25.0181 10.2905C24.4516 9.91283 23.838 9.60338 23.1771 9.36212C22.5163 9.12085 21.8292 8.95826 21.1159 8.87434L16.364 2.51754H5.03509L10.6996 10.0702L5.03509 17.6228H11.3289C11.3289 18.0634 11.3604 18.4935 11.4234 18.913C11.4863 19.3326 11.5807 19.7417 11.7066 20.1404H0ZM19.2277 20.455L23.602 16.1123L22.2803 14.7906L19.2277 17.7802L18.0004 16.5529L16.6787 17.906L19.2277 20.455ZM20.1404 23.9167C18.399 23.9167 16.9147 23.303 15.6874 22.0757C14.4601 20.8484 13.8465 19.3641 13.8465 17.6228C13.8465 15.8815 14.4601 14.3972 15.6874 13.1699C16.9147 11.9426 18.399 11.3289 20.1404 11.3289C21.8817 11.3289 23.366 11.9426 24.5933 13.1699C25.8206 14.3972 26.4342 15.8815 26.4342 17.6228C26.4342 19.3641 25.8206 20.8484 24.5933 22.0757C23.366 23.303 21.8817 23.9167 20.1404 23.9167Z" fill="#FFC300"/>
</svg>
