<svg width="271" height="271" viewBox="0 0 271 271" fill="none" xmlns="http://www.w3.org/2000/svg">
<path d="M169.355 105.879H245.565V249.83C245.565 254.322 243.78 258.63 240.604 261.806C237.428 264.982 233.121 266.766 228.629 266.766H165.121V105.879H169.355Z" fill="#FFAD39"/>
<path d="M105.847 105.879V266.766H42.3388C37.8472 266.766 33.5396 264.982 30.3636 261.806C27.1876 258.63 25.4033 254.322 25.4033 249.83V105.879H105.847Z" fill="#FFAD39"/>
<path d="M101.612 55.0723V105.879H12.7011C10.4574 105.872 8.30751 104.978 6.72095 103.391C5.13439 101.805 4.2401 99.6547 4.2334 97.411V63.54C4.2401 61.2963 5.13439 59.1464 6.72095 57.5598C8.30751 55.9733 10.4574 55.079 12.7011 55.0723H101.612Z" fill="#FEBD55"/>
<path d="M266.734 63.54V97.411C266.727 99.6547 265.833 101.805 264.246 103.391C262.659 104.978 260.51 105.872 258.266 105.879H169.354V55.0723H258.266C260.51 55.079 262.659 55.9733 264.246 57.5598C265.833 59.1464 266.727 61.2963 266.734 63.54Z" fill="#FEBD55"/>
<path d="M156.653 46.6045V55.0722H114.314V46.6045C114.321 44.3607 115.215 42.2108 116.802 40.6243C118.389 39.0377 120.538 38.1434 122.782 38.1367H148.185C150.429 38.1434 152.579 39.0377 154.166 40.6243C155.752 42.2108 156.646 44.3607 156.653 46.6045Z" fill="#CB3541"/>
<path d="M148.185 46.6045H122.782C121.304 46.5963 119.853 46.2012 118.575 45.4584C117.297 44.7156 116.235 43.651 115.496 42.3706C114.731 43.6513 114.324 45.1131 114.314 46.6045V55.0722H156.653V46.6045C156.644 45.1131 156.236 43.6513 155.472 42.3706C154.733 43.651 153.671 44.7156 152.393 45.4584C151.114 46.2012 149.664 46.5963 148.185 46.6045Z" fill="#A81E29"/>
<path d="M114.314 46.6045V55.0722H50.806C49.1282 55.108 47.4605 54.8039 45.9033 54.1783C44.3461 53.5527 42.9316 52.6184 41.7449 51.4317C40.5582 50.2451 39.624 48.8306 38.9983 47.2733C38.3727 45.7161 38.0686 44.0484 38.1044 42.3706C38.1044 25.4351 59.2738 25.4351 59.2738 25.4351C79.5923 25.5215 99.1744 33.0531 114.314 46.6045Z" fill="#E03E3E"/>
<path d="M80.4438 4.26575C114.315 4.26575 114.315 46.6045 114.315 46.6045C99.175 33.053 79.593 25.5215 59.2744 25.4351C59.2744 25.4351 59.2744 4.26575 80.4438 4.26575Z" fill="#CB3541"/>
<path d="M156.653 46.6045C156.653 46.6045 156.653 4.26575 190.524 4.26575C211.694 4.26575 211.694 25.4351 211.694 25.4351C191.375 25.5215 171.793 33.053 156.653 46.6045Z" fill="#CB3541"/>
<path d="M156.653 46.6045C171.793 33.0531 191.375 25.5215 211.694 25.4351C211.694 25.4351 232.863 25.4351 232.863 42.3706C232.899 44.0484 232.595 45.7161 231.969 47.2733C231.343 48.8306 230.409 50.2451 229.223 51.4317C228.036 52.6184 226.621 53.5527 225.064 54.1783C223.507 54.8039 221.839 55.108 220.161 55.0722H156.653V46.6045Z" fill="#E03E3E"/>
<path d="M165.121 105.879H105.847V266.766H165.121V105.879Z" fill="#CB3541"/>
<path d="M169.355 55.0723V105.879H165.121H105.847H101.613V55.0723H114.315H156.654H169.355Z" fill="#FF6161"/>
<path d="M256.7 179.04C257.589 183.062 266.734 186.238 266.734 190.556C266.734 194.875 257.589 198.05 256.7 202.072C255.768 206.221 262.627 213.165 260.891 216.891C259.071 220.701 249.502 219.516 246.919 222.818C244.337 226.121 247.639 235.393 244.421 238.018C241.204 240.643 233.075 235.308 229.349 237.171C225.708 238.992 224.692 248.814 220.669 249.746C216.732 250.677 211.651 242.294 207.46 242.294C203.268 242.294 198.188 250.677 194.25 249.746C190.228 248.814 189.212 238.992 185.528 237.171C181.845 235.351 173.673 240.643 170.498 238.018C167.323 235.393 170.54 226.078 167.958 222.818C165.375 219.558 155.849 220.701 154.028 216.891C152.292 213.165 159.151 206.221 158.22 202.072C157.331 198.05 148.186 194.875 148.186 190.556C148.186 186.238 157.331 183.062 158.22 179.04C159.151 174.891 152.292 167.947 154.028 164.221C155.849 160.411 165.417 161.596 168 158.294C170.583 154.992 167.28 145.719 170.498 143.094C173.716 140.469 181.845 145.804 185.571 143.941C189.212 142.121 190.228 132.298 194.25 131.367C198.188 130.435 203.268 138.818 207.46 138.818C211.651 138.818 216.732 130.435 220.669 131.367C224.692 132.298 225.708 142.121 229.391 143.941C233.075 145.762 241.246 140.469 244.421 143.094C247.597 145.719 244.379 155.034 246.962 158.294C249.544 161.554 259.071 160.411 260.891 164.221C262.627 167.947 255.768 174.891 256.7 179.04Z" fill="#CB3541"/>
<path d="M254.032 190.556C254.032 193.943 246.834 196.445 246.144 199.604C245.42 202.872 250.801 208.317 249.425 211.264C248.049 214.211 240.484 213.322 238.477 215.892C236.47 218.462 239.019 225.79 236.499 227.852C233.98 229.914 227.608 225.735 224.674 227.179C221.74 228.623 221.008 236.333 217.824 237.074C214.737 237.793 210.757 231.193 207.459 231.193C204.161 231.193 200.181 237.793 197.095 237.074C193.907 236.333 193.119 228.606 190.244 227.179C187.37 225.752 180.93 229.906 178.419 227.852C175.908 225.799 178.453 218.474 176.438 215.892C174.422 213.309 166.899 214.266 165.489 211.26C164.079 208.254 169.498 202.868 168.774 199.604C168.084 196.441 160.887 193.943 160.887 190.556C160.887 187.169 168.084 184.667 168.774 181.508C169.498 178.24 164.117 172.795 165.493 169.848C166.869 166.901 174.435 167.791 176.442 165.221C178.449 162.651 175.9 155.322 178.419 153.26C180.938 151.198 187.31 155.377 190.244 153.933C193.178 152.489 193.911 144.779 197.095 144.039C200.181 143.319 204.161 149.919 207.459 149.919C210.757 149.919 214.737 143.319 217.824 144.039C221.012 144.779 221.799 152.506 224.674 153.933C227.549 155.36 233.989 151.207 236.499 153.26C239.01 155.313 236.466 162.638 238.481 165.221C240.496 167.803 248.02 166.859 249.43 169.852C250.84 172.846 245.42 178.244 246.144 181.508C246.834 184.671 254.032 187.169 254.032 190.556Z" fill="#FF6161"/>
<path d="M245.565 122.814V105.879H169.355H165.121V122.814H245.565Z" fill="#E68C15"/>
<path d="M228.629 249.83H165.121V266.766H228.629C233.121 266.766 237.428 264.982 240.604 261.806C243.78 258.63 245.565 254.322 245.565 249.83V232.895C245.565 237.386 243.78 241.694 240.604 244.87C237.428 248.046 233.121 249.83 228.629 249.83Z" fill="#E68C15"/>
<path d="M46.5727 173.621V139.75C46.5727 135.258 48.357 130.951 51.533 127.775C54.709 124.598 59.0166 122.814 63.5082 122.814H105.847V105.879H25.4033V249.83C25.4033 254.322 27.1876 258.63 30.3636 261.806C33.5396 264.982 37.8472 266.766 42.3388 266.766H105.847V247.879C89.0177 244.043 73.989 234.608 63.2209 221.118C52.4528 207.627 46.5832 190.881 46.5727 173.621Z" fill="#E68C15"/>
<path d="M122.782 249.83C117.082 249.813 111.401 249.159 105.847 247.879V266.766H165.121V249.83H122.782Z" fill="#A81E29"/>
<path d="M165.121 105.879H105.847V122.814H165.121V105.879Z" fill="#A81E29"/>
<path d="M48.6891 84.7094C44.7589 84.7094 40.9898 83.1481 38.2108 80.3691C35.4317 77.5901 33.8705 73.8209 33.8705 69.8908C33.8705 65.9607 35.4317 62.1915 38.2108 59.4125C40.9898 56.6335 44.7589 55.0723 48.6891 55.0723H12.7011C10.4574 55.079 8.30751 55.9733 6.72095 57.5598C5.13439 59.1464 4.2401 61.2963 4.2334 63.54V97.411C4.2401 99.6547 5.13439 101.805 6.72095 103.391C8.30751 104.978 10.4574 105.872 12.7011 105.879H101.612V84.7094H48.6891Z" fill="#FFA930"/>
<path d="M258.266 84.7093H169.354V105.879H258.266C260.51 105.872 262.659 104.978 264.246 103.391C265.833 101.805 266.727 99.6547 266.734 97.4109V76.2416C266.734 78.4874 265.841 80.6412 264.253 82.2292C262.665 83.8172 260.512 84.7093 258.266 84.7093Z" fill="#FFA930"/>
<path d="M101.613 84.7094V105.879H105.847H165.121H169.355V84.7094H101.613Z" fill="#CB3541"/>
<path d="M97.3793 25.4351C97.3793 25.4351 72.6746 17.2172 59.8164 21.0615C59.5082 22.5007 59.3268 23.9642 59.2744 25.4351C79.593 25.5215 99.175 33.053 114.315 46.6045C114.315 46.6045 114.315 27.9204 104.365 15.3754C104.378 20.7313 102.841 25.4351 97.3793 25.4351Z" fill="#A81E29"/>
<path d="M177.823 25.4351C170.794 25.4351 170.257 17.6575 171.171 10.7054C156.653 22.5518 156.653 46.6045 156.653 46.6045C171.793 33.053 191.375 25.5215 211.694 25.4351C211.632 23.6731 211.388 21.9222 210.965 20.2105C197.586 18.8556 177.823 25.4351 177.823 25.4351Z" fill="#A81E29"/>
<path d="M96.8625 37.2096C96.9952 37.8291 96.9882 38.4704 96.8422 39.0869C96.6961 39.7033 96.4147 40.2796 96.0182 40.7737C95.6217 41.2679 95.1202 41.6676 94.55 41.9438C93.9799 42.22 93.3554 42.3659 92.7218 42.3707H50.8065C48.5607 42.3707 46.4069 41.4785 44.8189 39.8905C43.2309 38.3025 42.3387 36.1487 42.3387 33.9029V31.6293C40.9357 33.0348 39.836 34.7133 39.1078 36.5609C38.3795 38.4085 38.0382 40.3859 38.1049 42.3707C38.0691 44.0485 38.3731 45.7162 38.9988 47.2734C39.6244 48.8306 40.5587 50.2451 41.7454 51.4318C42.932 52.6184 44.3465 53.5527 45.9038 54.1784C47.461 54.804 49.1287 55.1081 50.8065 55.0723H114.315V46.6045C108.847 41.5883 102.671 37.4028 95.9861 34.1824C96.3564 35.1672 96.6494 36.1793 96.8625 37.2096Z" fill="#CB3541"/>
<path d="M224.395 42.3706H182.48C181.846 42.3671 181.22 42.2222 180.649 41.9465C180.078 41.6708 179.575 41.2713 179.178 40.777C178.78 40.2826 178.498 39.706 178.352 39.0889C178.205 38.4718 178.198 37.8297 178.331 37.2095C178.726 35.3143 179.396 33.4871 180.321 31.7859C171.617 35.2864 163.604 40.3037 156.653 46.6045V55.0722H220.161C221.839 55.108 223.507 54.804 225.064 54.1783C226.621 53.5527 228.036 52.6184 229.223 51.4317C230.409 50.2451 231.343 48.8306 231.969 47.2734C232.595 45.7162 232.899 44.0484 232.863 42.3706C232.868 40.675 232.612 38.9886 232.105 37.3704C231.438 38.8575 230.355 40.1204 228.987 41.0073C227.62 41.8943 226.025 42.3677 224.395 42.3706Z" fill="#CB3541"/>
<path d="M154.029 216.891C152.293 213.165 159.152 206.221 158.22 202.072C157.331 198.05 148.186 194.875 148.186 190.556C148.186 186.238 157.331 183.062 158.22 179.04C158.906 175.979 155.367 171.419 154.152 167.706C150.629 169.823 142.94 169.311 141.327 172.689C139.591 176.415 146.45 183.359 145.519 187.508C144.63 191.53 135.484 194.705 135.484 199.024C135.484 203.342 144.63 206.518 145.519 210.54C146.45 214.689 139.591 221.633 141.327 225.359C143.148 229.169 152.716 227.984 155.257 231.286C157.797 234.588 154.579 243.861 157.797 246.486C159.385 247.798 162.221 247.121 165.121 246.346V221.099C161.273 219.808 155.413 219.791 154.029 216.891Z" fill="#961B25"/>
<path d="M194.25 249.746C190.228 248.814 189.212 238.992 185.528 237.171C181.845 235.351 173.674 240.643 170.498 238.018C167.323 235.393 170.54 226.078 167.958 222.818C167.198 221.983 166.213 221.386 165.121 221.099V246.346C167.552 245.31 170.247 245.062 172.827 245.639C174.287 246.673 175.387 248.139 175.973 249.83C177.594 253.302 178.936 257.612 181.549 258.213C185.486 259.145 190.567 250.762 194.758 250.762C198.95 250.762 204.03 259.145 207.968 258.213C210.572 257.612 211.918 253.302 213.531 249.83C213.955 248.883 214.471 247.98 215.072 247.133C212.494 244.97 209.835 242.294 207.451 242.294C203.268 242.294 198.188 250.677 194.25 249.746Z" fill="#E68C15"/>
<path d="M233.163 236.955C231.901 236.635 230.571 236.71 229.353 237.171C226.973 238.361 225.708 242.938 223.997 246.248C227.029 247.061 230.043 247.857 231.724 246.486C233.71 244.864 233.223 240.681 233.163 236.955Z" fill="#E68C15"/>
<path d="M165.121 151.693C162.229 150.923 159.401 150.254 157.797 151.562C155.582 153.37 156.412 158.336 156.332 162.308C158.77 161.228 162.412 160.919 165.121 160.021V151.693Z" fill="#961B25"/>
<path d="M224.395 101.645H215.928V110.113H224.395V101.645Z" fill="black"/>
<path d="M249.798 131.282V110.113H258.266C261.635 110.113 264.866 108.775 267.248 106.393C269.63 104.011 270.968 100.78 270.968 97.4112V63.5403C270.968 60.1716 269.63 56.9409 267.248 54.5588C264.866 52.1768 261.635 50.8386 258.266 50.8386H235.035C236.435 48.2387 237.145 45.3233 237.097 42.3709C237.097 27.8783 224.654 22.6156 215.606 21.464C214.964 15.3599 212.004 9.73461 207.338 5.74731C202.672 1.76 196.654 -0.285544 190.524 0.0321626C166.616 0.0321626 156.687 19.1904 153.592 35.1733C151.907 34.3531 150.06 33.9191 148.186 33.9031H122.782C120.908 33.9191 119.061 34.3531 117.376 35.1733C114.281 19.1904 104.352 0.0321626 80.4436 0.0321626C74.314 -0.285544 68.296 1.76 63.6297 5.74731C58.9634 9.73461 56.0043 15.3599 55.3621 21.464C46.3143 22.6156 33.871 27.8783 33.871 42.3709C33.8233 45.3233 34.5331 48.2387 35.9329 50.8386H12.7016C9.33294 50.8386 6.10223 52.1768 3.72022 54.5588C1.3382 56.9409 0 60.1716 0 63.5403L0 97.4112C0 100.78 1.3382 104.011 3.72022 106.393C6.10223 108.775 9.33294 110.113 12.7016 110.113H101.613V262.532H42.3387C38.97 262.532 35.7393 261.194 33.3573 258.812C30.9753 256.43 29.6371 253.199 29.6371 249.831V135.516H21.1694V249.831C21.1761 255.443 23.4086 260.824 27.3771 264.792C31.3457 268.761 36.7263 270.993 42.3387 271H228.629C234.242 270.993 239.622 268.761 243.591 264.792C247.559 260.824 249.792 255.443 249.798 249.831V245.597H241.331V249.831C241.331 253.199 239.993 256.43 237.611 258.812C235.228 261.194 231.998 262.532 228.629 262.532H169.355V245.597H160.887V262.532H110.081V110.113H160.887V135.516H169.355V110.113H198.992V101.645H173.589V59.3064H203.226V131.282C202.021 129.858 200.491 128.745 198.765 128.038C197.039 127.331 195.168 127.051 193.31 127.222C189.076 128.208 187.26 132.425 185.66 136.143C185.117 137.487 184.506 138.802 183.831 140.084C182.309 140.016 180.805 139.731 179.364 139.238C175.714 138.26 171.175 137.049 167.822 139.792C166.48 141.306 165.507 143.111 164.98 145.064C164.452 147.017 164.385 149.066 164.782 151.05C164.882 152.558 164.871 154.07 164.748 155.576C163.359 156.174 161.895 156.581 160.396 156.787C156.687 157.524 152.072 158.438 150.214 162.384C149.655 164.309 149.548 166.336 149.9 168.309C150.251 170.282 151.053 172.147 152.242 173.761C152.995 175.101 153.628 176.505 154.134 177.956C153.144 179.106 152.005 180.119 150.747 180.967C147.724 183.3 143.952 186.179 143.952 190.556C143.952 194.934 147.724 197.818 150.751 200.129C151.929 200.962 153.04 201.885 154.075 202.89C153.676 204.449 153.059 205.944 152.242 207.331C151.051 208.943 150.248 210.809 149.896 212.782C149.544 214.755 149.653 216.783 150.214 218.707C152.072 222.658 156.687 223.572 160.396 224.309C161.807 224.538 163.201 224.865 164.566 225.287C164.85 226.855 164.921 228.454 164.778 230.042C164.38 232.025 164.448 234.074 164.975 236.028C165.503 237.981 166.476 239.785 167.818 241.299C171.175 244.043 175.71 242.828 179.355 241.858C180.752 241.481 183.013 240.923 183.521 240.872C184.403 242.138 185.114 243.515 185.638 244.966C187.243 248.683 189.064 252.904 193.293 253.882C197.523 254.86 200.834 251.901 203.819 249.297C204.909 248.28 206.072 247.345 207.299 246.499C208.678 247.255 209.946 248.198 211.067 249.301C213.384 251.893 216.545 253.581 219.988 254.064C220.534 254.064 221.078 254 221.609 253.874C225.843 252.896 227.66 248.675 229.26 244.962C229.801 243.616 230.412 242.299 231.089 241.016C232.61 241.086 234.114 241.371 235.556 241.862C239.201 242.84 243.74 244.051 247.097 241.308C248.439 239.794 249.413 237.989 249.94 236.036C250.467 234.083 250.535 232.034 250.137 230.05C250.038 228.543 250.049 227.03 250.171 225.524C251.561 224.926 253.025 224.519 254.523 224.313C258.232 223.576 262.847 222.662 264.706 218.716C265.264 216.791 265.372 214.764 265.02 212.791C264.668 210.818 263.867 208.953 262.678 207.339C261.925 205.999 261.291 204.595 260.785 203.144C261.775 201.994 262.914 200.981 264.172 200.133C267.195 197.813 270.968 194.934 270.968 190.556C270.968 186.179 267.195 183.295 264.168 180.984C262.991 180.151 261.879 179.228 260.845 178.223C261.244 176.664 261.861 175.169 262.678 173.782C263.869 172.17 264.672 170.304 265.023 168.331C265.375 166.358 265.266 164.33 264.706 162.405C262.847 158.455 258.232 157.541 254.523 156.804C253.112 156.575 251.719 156.248 250.353 155.826C250.069 154.258 249.998 152.659 250.141 151.071C250.539 149.088 250.472 147.039 249.944 145.085C249.417 143.132 248.444 141.327 247.101 139.813C245.362 138.809 243.407 138.234 241.401 138.137C239.394 138.04 237.393 138.423 235.564 139.255C234.167 139.627 231.889 140.19 231.398 140.241C230.518 138.974 229.806 137.598 229.281 136.147C227.676 132.43 225.856 128.213 221.631 127.226C219.77 127.052 217.895 127.33 216.165 128.036C214.435 128.742 212.901 129.856 211.694 131.282V59.3064H258.266C259.389 59.3064 260.466 59.7524 261.26 60.5465C262.054 61.3405 262.5 62.4174 262.5 63.5403V97.4112C262.5 98.5341 262.054 99.611 261.26 100.405C260.466 101.199 259.389 101.645 258.266 101.645H232.863V110.113H241.331V131.282H249.798ZM219.674 135.774C220.366 136.972 220.972 138.217 221.487 139.5C222.455 142.87 224.582 145.79 227.494 147.743C230.839 148.873 234.478 148.764 237.749 147.434C239.013 147.06 240.302 146.777 241.606 146.588C241.735 147.988 241.76 149.396 241.678 150.8C241.126 154.295 241.807 157.872 243.604 160.919C246.099 163.373 249.386 164.859 252.876 165.111C254.226 165.339 255.555 165.673 256.852 166.11C256.378 167.429 255.803 168.71 255.133 169.942C253.16 172.89 252.253 176.425 252.563 179.959C253.736 183.225 256.026 185.971 259.028 187.711C260.217 188.556 261.325 189.509 262.339 190.556C261.325 191.604 260.217 192.557 259.028 193.402C256.029 195.14 253.74 197.88 252.563 201.141C252.254 204.675 253.159 208.208 255.129 211.158C255.801 212.389 256.375 213.67 256.848 214.99C255.552 215.424 254.224 215.757 252.876 215.985C249.383 216.243 246.095 217.735 243.6 220.194C241.805 223.238 241.124 226.812 241.674 230.304C241.716 231.642 241.784 233.784 241.754 234.538C240.397 234.363 239.056 234.08 237.745 233.691C234.475 232.361 230.835 232.25 227.49 233.378C224.581 235.333 222.455 238.252 221.487 241.621C220.97 242.903 220.363 244.147 219.67 245.343C218.611 244.603 217.601 243.796 216.647 242.925C214.265 240.255 211.006 238.523 207.46 238.044C203.914 238.521 200.656 240.249 198.272 242.917C197.318 243.788 196.306 244.596 195.245 245.334C194.552 244.139 193.947 242.895 193.433 241.613C192.465 238.242 190.337 235.323 187.425 233.369C186.222 232.792 184.902 232.503 183.568 232.523C181.396 232.628 179.246 233.01 177.171 233.661C175.907 234.036 174.618 234.319 173.314 234.508C173.184 233.108 173.16 231.7 173.242 230.296C173.789 226.807 173.108 223.236 171.315 220.194C168.82 217.74 165.533 216.254 162.043 216.002C160.694 215.774 159.364 215.44 158.067 215.003C158.542 213.684 159.116 212.403 159.786 211.171C161.759 208.222 162.666 204.688 162.356 201.154C161.183 197.888 158.893 195.142 155.891 193.402C154.703 192.557 153.594 191.604 152.58 190.556C153.594 189.509 154.703 188.556 155.891 187.711C158.89 185.973 161.18 183.232 162.356 179.972C162.666 176.438 161.761 172.904 159.791 169.954C159.119 168.724 158.544 167.443 158.072 166.123C159.368 165.689 160.695 165.356 162.043 165.128C165.536 164.87 168.824 163.378 171.319 160.919C173.114 157.874 173.795 154.3 173.246 150.809C173.203 149.471 173.136 147.329 173.165 146.575C174.522 146.75 175.863 147.033 177.175 147.422C180.446 148.748 184.084 148.859 187.429 147.735C190.338 145.78 192.464 142.86 193.433 139.492C193.949 138.208 194.556 136.963 195.249 135.766C196.306 136.509 197.316 137.318 198.272 138.188C200.655 140.858 203.913 142.589 207.46 143.069C211.005 142.591 214.263 140.863 216.647 138.196C217.604 137.326 218.615 136.517 219.674 135.774ZM190.524 8.49991C194.378 8.19839 198.205 9.35458 201.247 11.7397C204.289 14.1247 206.325 17.5649 206.952 21.3793C190.816 22.3268 175.255 27.7063 161.979 36.9261C162.609 33.5382 163.561 30.2179 164.82 27.0104C169.732 14.7279 178.377 8.49991 190.524 8.49991ZM122.782 42.3709H148.186C149.308 42.3709 150.385 42.817 151.179 43.611C151.973 44.405 152.419 45.4819 152.419 46.6048V50.8386H118.548V46.6048C118.548 45.4819 118.994 44.405 119.788 43.611C120.583 42.817 121.659 42.3709 122.782 42.3709ZM80.4436 8.49991C100.457 8.49991 106.952 25.6725 109.065 36.9812C95.7776 27.729 80.1918 22.3296 64.0289 21.3793C64.6692 17.5737 66.7068 14.1441 69.7429 11.7619C72.779 9.37975 76.5949 8.21649 80.4436 8.49991ZM42.3387 42.3709C42.3387 29.9106 58.5926 29.6693 59.2742 29.6693C77.8827 29.8365 95.8501 36.489 110.081 48.4804V50.8386H50.8361C49.703 50.9151 48.5666 50.7487 47.503 50.3506C46.4394 49.9525 45.4731 49.3319 44.6686 48.5303C43.8642 47.7286 43.2402 46.7645 42.8384 45.7022C42.4366 44.64 42.2662 43.5042 42.3387 42.3709ZM8.46774 97.4112V63.5403C8.46774 62.4174 8.91381 61.3405 9.70782 60.5465C10.5018 59.7524 11.5787 59.3064 12.7016 59.3064H97.3791V101.645H12.7016C11.5787 101.645 10.5018 101.199 9.70782 100.405C8.91381 99.611 8.46774 98.5341 8.46774 97.4112ZM165.121 101.645H105.847V59.3064H165.121V101.645ZM169.355 50.8386H160.887V48.4804C175.118 36.489 193.085 29.8365 211.694 29.6693C212.384 29.6693 228.629 29.8132 228.629 42.3709C228.703 43.5019 228.534 44.6356 228.134 45.6963C227.735 46.7569 227.113 47.7201 226.312 48.5216C225.511 49.323 224.547 49.9443 223.487 50.3438C222.426 50.7434 221.292 50.9121 220.161 50.8386H169.355Z" fill="black"/>
<path d="M29.6367 118.58H21.1689V127.048H29.6367V118.58Z" fill="black"/>
<path d="M229.871 162.155L179.063 212.963L185.051 218.95L235.859 168.143L229.871 162.155Z" fill="black"/>
<path d="M220.162 199.024C217.649 199.024 215.194 199.769 213.105 201.165C211.016 202.56 209.388 204.544 208.427 206.865C207.465 209.186 207.214 211.74 207.704 214.204C208.194 216.667 209.404 218.931 211.18 220.707C212.957 222.483 215.22 223.693 217.684 224.183C220.147 224.673 222.701 224.422 225.022 223.46C227.343 222.499 229.327 220.871 230.723 218.782C232.118 216.693 232.863 214.238 232.863 211.726C232.863 208.357 231.525 205.126 229.143 202.744C226.761 200.362 223.53 199.024 220.162 199.024ZM220.162 215.959C219.324 215.959 218.506 215.711 217.809 215.246C217.113 214.781 216.57 214.119 216.25 213.346C215.93 212.572 215.846 211.721 216.009 210.9C216.172 210.078 216.576 209.324 217.168 208.732C217.76 208.14 218.514 207.736 219.336 207.573C220.157 207.41 221.008 207.494 221.782 207.814C222.555 208.134 223.217 208.677 223.682 209.373C224.147 210.07 224.395 210.888 224.395 211.726C224.395 212.848 223.949 213.925 223.155 214.719C222.361 215.513 221.284 215.959 220.162 215.959Z" fill="black"/>
<path d="M194.758 182.088C197.27 182.088 199.726 181.343 201.815 179.948C203.904 178.552 205.532 176.568 206.493 174.247C207.454 171.927 207.706 169.373 207.216 166.909C206.726 164.445 205.516 162.182 203.74 160.405C201.963 158.629 199.7 157.419 197.236 156.929C194.772 156.439 192.218 156.691 189.898 157.652C187.577 158.613 185.593 160.241 184.197 162.33C182.802 164.419 182.057 166.875 182.057 169.387C182.057 172.755 183.395 175.986 185.777 178.368C188.159 180.75 191.39 182.088 194.758 182.088ZM194.758 165.153C195.596 165.153 196.414 165.401 197.11 165.866C197.807 166.332 198.349 166.993 198.67 167.767C198.99 168.54 199.074 169.392 198.911 170.213C198.747 171.034 198.344 171.788 197.752 172.381C197.16 172.973 196.406 173.376 195.584 173.539C194.763 173.703 193.912 173.619 193.138 173.298C192.364 172.978 191.703 172.435 191.238 171.739C190.773 171.043 190.524 170.224 190.524 169.387C190.524 168.264 190.97 167.187 191.764 166.393C192.558 165.599 193.635 165.153 194.758 165.153Z" fill="black"/>
</svg>
