<svg width="40" height="40" viewBox="0 0 40 40" fill="none" xmlns="http://www.w3.org/2000/svg">
<rect width="40" height="40" rx="8" fill="#F2F2F2"/>
<g clip-path="url(#clip0_938_1857)">
<path fill-rule="evenodd" clip-rule="evenodd" d="M8.2002 26.1859V22.7628C8.64693 23.0208 9.13965 23.2092 9.66387 23.3134C10.1339 23.4069 10.6321 23.4063 11.0455 23.4057H11.1006C16.367 23.4015 21.6334 23.4015 26.8999 23.4057H26.955C27.3684 23.4063 27.8665 23.4069 28.3365 23.3134C28.8607 23.2092 29.3534 23.0208 29.8002 22.7628V26.1859C29.8002 27.1955 29.8003 28.0655 29.7016 28.7621C29.5958 29.5088 29.3574 30.2245 28.7457 30.8049C28.1342 31.3853 27.3801 31.6118 26.5935 31.7121C25.8595 31.8058 24.9429 31.8057 23.8791 31.8057H14.1212C13.0574 31.8057 12.1408 31.8058 11.4068 31.7121C10.6202 31.6118 9.86621 31.3853 9.25461 30.8049C8.64302 30.2245 8.40453 29.5088 8.29878 28.7621C8.20009 28.0655 8.20014 27.1955 8.2002 26.1859ZM20.2002 27.0057C20.2002 26.3429 19.6629 25.8057 19.0002 25.8057C18.3374 25.8057 17.8002 26.3429 17.8002 27.0057V28.2057C17.8002 28.8685 18.3374 29.4057 19.0002 29.4057C19.6629 29.4057 20.2002 28.8685 20.2002 28.2057V27.0057Z" fill="black"/>
<path fill-rule="evenodd" clip-rule="evenodd" d="M11.4532 10.0554C10.3723 11.1363 10.1704 12.5878 10.6046 13.8092C10.3494 13.8153 10.1155 13.8317 9.89774 13.875C8.46968 14.159 7.35334 15.2754 7.06928 16.7034C6.99938 17.0548 6.99969 17.4482 7.00005 17.9051L7.00011 18.0057L7.00005 18.1063C6.99969 18.5632 6.99938 18.9566 7.06928 19.3079C7.35334 20.736 8.46968 21.8524 9.89774 22.1364C10.2492 22.2063 10.6426 22.206 11.0994 22.2057C16.3664 22.2015 21.6335 22.2015 26.9005 22.2057C27.3574 22.206 27.7508 22.2063 28.1022 22.1364C29.5303 21.8524 30.6467 20.736 30.9307 19.3079C31.0006 18.9566 31.0003 18.5632 31 18.1064L30.9998 18.0057L31 17.905C31.0003 17.4482 31.0006 17.0548 30.9307 16.7034C30.6467 15.2754 29.5303 14.159 28.1022 13.875C27.8844 13.8317 27.6505 13.8153 27.3953 13.8092C27.8294 12.5878 27.6275 11.1363 26.5466 10.0554C25.0309 8.53971 22.5295 8.67282 21.1878 10.3499L19 13.0848L16.812 10.3499C15.4704 8.67282 12.9689 8.53971 11.4532 10.0554ZM19 15.0057C18.3372 15.0057 17.8 15.543 17.8 16.2057V18.6057C17.8 19.2685 18.3372 19.8057 19 19.8057C19.6627 19.8057 20.2 19.2685 20.2 18.6057V16.2057C20.2 15.543 19.6627 15.0057 19 15.0057ZM13.9941 13.8057C12.9321 13.8057 12.3893 12.5135 13.1502 11.7525C13.6574 11.2453 14.4925 11.2923 14.938 11.8492L16.5032 13.8057H13.9941ZM24.0058 13.8057C25.0678 13.8057 25.6106 12.5135 24.8496 11.7525C24.3424 11.2453 23.5074 11.2923 23.0618 11.8492L21.4967 13.8057H24.0058Z" fill="black"/>
</g>
<defs>
<clipPath id="clip0_938_1857">
<rect width="24" height="24" fill="white" transform="translate(8 8)"/>
</clipPath>
</defs>
</svg>
