<svg width="266" height="532" viewBox="0 0 266 532" fill="none" xmlns="http://www.w3.org/2000/svg">
<path d="M263.259 264.245L263.259 428.565C263.259 450.113 252.188 470.161 233.936 481.639L177.783 516.926C165.591 524.588 151.508 528.651 137.119 528.652L77.164 528.652C69.0834 528.652 62.5129 522.089 62.5127 514L62.5127 473.178L59.8506 473.351C58.6108 473.431 57.5492 473.518 56.4599 473.518C26.9347 473.518 3.0001 449.593 2.99998 420.058C2.99998 390.541 26.9352 366.598 56.4599 366.598C57.5457 366.598 58.559 366.701 59.8506 366.784L62.5127 366.956L62.5127 185.656L59.8506 185.828C58.559 185.912 57.5457 186.015 56.46 186.015C26.9352 186.015 3.00001 162.072 2.99999 132.555C3 103.019 26.9358 79.0755 56.46 79.0754C57.5457 79.0754 58.5589 79.1782 59.8506 79.262L62.5127 79.4338L62.5127 17.303C62.5128 9.21392 69.0834 2.6516 77.1641 2.6516L121.083 2.65161C139.073 2.65161 154.696 15.0542 158.766 32.593L158.765 32.594L184.656 144.438L184.821 145.149L185.342 145.658L233.159 192.553L233.16 192.553C252.412 211.428 263.259 237.273 263.259 264.245Z" stroke="black" stroke-width="5"/>
</svg>
