<svg width="20" height="16" viewBox="0 0 20 16" fill="none" xmlns="http://www.w3.org/2000/svg">
<path d="M19.5837 15.2004H0.416333C0.345756 15.2122 0.273244 15.2026 0.208199 15.1728C0.143154 15.1429 0.088576 15.0942 0.0515412 15.033C0.0145064 14.9717 -0.00327685 14.9008 0.000497068 14.8293C0.00427098 14.7578 0.029428 14.6892 0.0727064 14.6322L3.26546 8.55511C3.36384 8.3905 3.50116 8.25258 3.66535 8.1535C3.82954 8.05443 4.01556 7.99721 4.20705 7.9869H5.32587C5.71221 8.5184 6.13871 9.01953 6.60161 9.48587H4.4695L2.25487 13.7014H17.7451L15.5305 9.48587H13.7177C14.1807 9.0192 14.6072 8.51761 14.9934 7.98555H15.7929C15.9845 7.99612 16.1706 8.05359 16.3348 8.1529C16.499 8.25221 16.6362 8.39032 16.7345 8.55511L19.9273 14.6322C19.9706 14.6892 19.9957 14.7578 19.9995 14.8293C20.0033 14.9008 19.9855 14.9717 19.9485 15.033C19.9114 15.0942 19.8568 15.1429 19.7918 15.1728C19.7268 15.2026 19.6542 15.2122 19.5837 15.2004ZM14.5997 4.36259C14.5997 7.93414 11.6559 8.26965 10.4018 11.7492C10.39 11.8044 10.3597 11.8538 10.3159 11.8893C10.2721 11.9247 10.2174 11.9441 10.161 11.9441C10.1046 11.9441 10.0499 11.9247 10.0061 11.8893C9.96227 11.8538 9.93194 11.8044 9.92018 11.7492C8.66473 8.26965 5.7209 7.93414 5.7209 4.36259C5.74122 3.1986 6.21788 2.08916 7.04822 1.27319C7.87856 0.457219 8.99615 0 10.1603 0C11.3245 0 12.4421 0.457219 13.2724 1.27319C14.1027 2.08916 14.5794 3.1986 14.5997 4.36259ZM12.0834 4.35582C12.0834 3.97454 11.9703 3.60181 11.7585 3.28478C11.5467 2.96775 11.2456 2.72066 10.8933 2.57474C10.5411 2.42883 10.1534 2.39065 9.77948 2.46504C9.40552 2.53943 9.06201 2.72303 8.7924 2.99265C8.52279 3.26226 8.33918 3.60576 8.26479 3.97972C8.19041 4.35369 8.22859 4.74131 8.3745 5.09357C8.52041 5.44584 8.76751 5.74692 9.08454 5.95875C9.40156 6.17059 9.77429 6.28365 10.1556 6.28365C10.6669 6.28365 11.1572 6.08054 11.5188 5.719C11.8803 5.35747 12.0834 4.86712 12.0834 4.35582Z" fill="#003566"/>
</svg>
