<svg width="37" height="26" viewBox="0 0 37 26" fill="none" xmlns="http://www.w3.org/2000/svg">
<rect width="37" height="26" rx="3" fill="#595959"/>
<path d="M16.6789 12.44V13.976H10.1029V12.44H16.6789ZM26.5503 8.904H21.1903V12.088C21.4143 11.7893 21.745 11.5387 22.1823 11.336C22.6303 11.1333 23.105 11.032 23.6063 11.032C24.5023 11.032 25.2276 11.224 25.7823 11.608C26.3476 11.992 26.7476 12.4773 26.9823 13.064C27.2276 13.6507 27.3503 14.2693 27.3503 14.92C27.3503 15.7093 27.1956 16.4133 26.8863 17.032C26.5876 17.64 26.1343 18.12 25.5263 18.472C24.929 18.824 24.193 19 23.3183 19C22.1556 19 21.2223 18.712 20.5183 18.136C19.8143 17.56 19.393 16.7973 19.2543 15.848H21.0303C21.1476 16.3493 21.409 16.7493 21.8143 17.048C22.2196 17.336 22.7263 17.48 23.3343 17.48C24.0916 17.48 24.657 17.2507 25.0303 16.792C25.4143 16.3333 25.6063 15.7253 25.6063 14.968C25.6063 14.2 25.4143 13.6133 25.0303 13.208C24.6463 12.792 24.081 12.584 23.3343 12.584C22.8116 12.584 22.369 12.7173 22.0063 12.984C21.6543 13.24 21.3983 13.592 21.2383 14.04H19.5103V7.304H26.5503V8.904Z" fill="white"/>
</svg>
