<svg width="23" height="14" viewBox="0 0 23 14" fill="none" xmlns="http://www.w3.org/2000/svg">
<path d="M22.1883 5.69083C21.1116 4.35784 17.1127 0 11.268 0C5.42339 0 1.42443 4.35784 0.347788 5.69083C0.122882 5.96564 0 6.30982 0 6.66493C0 7.02005 0.122882 7.36422 0.347788 7.63904C1.42443 8.97202 5.42339 13.3299 11.268 13.3299C17.1127 13.3299 21.1116 8.97202 22.1883 7.63904C22.4132 7.36422 22.536 7.02005 22.536 6.66493C22.536 6.30982 22.4132 5.96564 22.1883 5.69083ZM11.268 11.2791C6.75637 11.2791 3.42391 8.10046 2.19346 6.66493C3.42391 5.22941 6.75637 2.05075 11.268 2.05075C15.7797 2.05075 19.1121 5.22941 20.3426 6.66493C19.1121 8.10046 15.7797 11.2791 11.268 11.2791Z" fill="black"/>
<path d="M11.268 9.74087C12.9669 9.74087 14.3441 8.36364 14.3441 6.66475C14.3441 4.96585 12.9669 3.58862 11.268 3.58862C9.56912 3.58862 8.19189 4.96585 8.19189 6.66475C8.19189 8.36364 9.56912 9.74087 11.268 9.74087Z" fill="black"/>
</svg>
