<svg width="10" height="13" viewBox="0 0 10 13" fill="none" xmlns="http://www.w3.org/2000/svg">
<path d="M5.05575 5.2C3.57286 5.17727 2.44009 3.99687 2.43006 2.6C2.45455 1.14473 3.65578 0.010205 5.05575 0C6.53995 0.055575 7.67091 1.18051 7.68147 2.6C7.65228 4.05642 6.45716 5.19014 5.05575 5.2ZM7.17867 5.73937C9.04502 5.76094 9.99139 7.38203 10 9.00312V13H8.17036L8.17037 9.48725C8.12583 9.24441 7.95972 9.16205 7.80755 9.18587C7.66508 9.20817 7.53481 9.32346 7.52791 9.48725V13H2.44422V9.48725C2.4053 9.25613 2.25683 9.16726 2.11238 9.17623C1.9577 9.18586 1.80766 9.3077 1.80175 9.48725V13H7.74173e-05V9.00312C-0.0106442 7.27547 1.09304 5.75218 2.83515 5.73937H7.17867Z" fill="black"/>
</svg>
