<svg width="42" height="45" viewBox="0 0 42 45" fill="none" xmlns="http://www.w3.org/2000/svg">
<circle cx="21" cy="37" r="8" fill="#FFC300" fill-opacity="0.72"/>
<g clip-path="url(#clip0_278_1781)">
<path d="M21.0001 3.5C18.3942 3.53797 15.8956 4.5437 13.99 6.32163C12.0845 8.09956 10.9082 10.5226 10.69 13.1196C10.4717 15.7167 11.2271 18.302 12.8092 20.373C14.3913 22.444 16.6871 23.8527 19.2501 24.325V36.75C19.2501 37.2141 19.4345 37.6592 19.7627 37.9874C20.0909 38.3156 20.536 38.5 21.0001 38.5C21.4642 38.5 21.9094 38.3156 22.2375 37.9874C22.5657 37.6592 22.7501 37.2141 22.7501 36.75V24.325C25.3131 23.8527 27.6089 22.444 29.191 20.373C30.7731 18.302 31.5285 15.7167 31.3102 13.1196C31.092 10.5226 29.9158 8.09956 28.0102 6.32163C26.1047 4.5437 23.606 3.53797 21.0001 3.5ZM21.0001 17.5C20.3079 17.5 19.6312 17.2947 19.0556 16.9101C18.48 16.5256 18.0314 15.9789 17.7665 15.3394C17.5016 14.6999 17.4323 13.9961 17.5674 13.3172C17.7024 12.6383 18.0358 12.0146 18.5252 11.5251C19.0147 11.0356 19.6384 10.7023 20.3173 10.5673C20.9962 10.4322 21.7 10.5015 22.3395 10.7664C22.979 11.0313 23.5257 11.4799 23.9103 12.0555C24.2948 12.6311 24.5001 13.3078 24.5001 14C24.5001 14.9283 24.1314 15.8185 23.475 16.4749C22.8186 17.1313 21.9284 17.5 21.0001 17.5Z" fill="#003566"/>
</g>
<defs>
<clipPath id="clip0_278_1781">
<rect width="42" height="42" fill="white"/>
</clipPath>
</defs>
</svg>
