<svg width="37" height="26" viewBox="0 0 37 26" fill="none" xmlns="http://www.w3.org/2000/svg">
<rect width="37" height="26" rx="3" fill="#FFC300"/>
<path d="M17.9717 13.992H14.7397V17.304H13.0437V13.992H9.81169V12.456H13.0437V9.144H14.7397V12.456H17.9717V13.992ZM28.0816 8.904H22.7216V12.088C22.9456 11.7893 23.2762 11.5387 23.7136 11.336C24.1616 11.1333 24.6362 11.032 25.1376 11.032C26.0336 11.032 26.7589 11.224 27.3136 11.608C27.8789 11.992 28.2789 12.4773 28.5136 13.064C28.7589 13.6507 28.8816 14.2693 28.8816 14.92C28.8816 15.7093 28.7269 16.4133 28.4176 17.032C28.1189 17.64 27.6656 18.12 27.0576 18.472C26.4602 18.824 25.7242 19 24.8496 19C23.6869 19 22.7536 18.712 22.0496 18.136C21.3456 17.56 20.9242 16.7973 20.7856 15.848H22.5616C22.6789 16.3493 22.9402 16.7493 23.3456 17.048C23.7509 17.336 24.2576 17.48 24.8656 17.48C25.6229 17.48 26.1882 17.2507 26.5616 16.792C26.9456 16.3333 27.1376 15.7253 27.1376 14.968C27.1376 14.2 26.9456 13.6133 26.5616 13.208C26.1776 12.792 25.6122 12.584 24.8656 12.584C24.3429 12.584 23.9002 12.7173 23.5376 12.984C23.1856 13.24 22.9296 13.592 22.7696 14.04H21.0416V7.304H28.0816V8.904Z" fill="white"/>
</svg>
