<svg width="40" height="40" viewBox="0 0 40 40" fill="none" xmlns="http://www.w3.org/2000/svg">
<rect width="40" height="40" rx="8" fill="#F2F2F2"/>
<g clip-path="url(#clip0_938_1845)">
<path d="M27 12C28.5977 12 29.9037 13.2489 29.9949 14.8237L30 15V16.8171C30 17.4235 29.6477 17.8954 29.224 18.1466L29.1168 18.2048C28.4531 18.5323 28 19.2142 28 20C28 20.7297 28.3907 21.3698 28.9779 21.7197L29.1168 21.7952C29.5504 22.0091 29.9361 22.4508 29.9928 23.0342L30 23.1829V25C30 26.5977 28.7511 27.9037 27.1763 27.9949L27 28H13C11.4023 28 10.0963 26.7511 10.0051 25.1763L10 25V23.1829C10 22.5765 10.3523 22.1046 10.776 21.8534L10.8832 21.7952C11.5469 21.4677 12 20.7858 12 20C12 19.2703 11.6093 18.6302 11.0221 18.2803L10.8832 18.2048C10.4496 17.9909 10.0639 17.5492 10.0072 16.9659L10 16.8171V15C10 13.4023 11.2489 12.0963 12.8237 12.0051L13 12H27ZM18 17C17.4477 17 17 17.4477 17 18V22C17 22.5523 17.4477 23 18 23C18.5523 23 19 22.5523 19 22V18C19 17.4477 18.5523 17 18 17Z" fill="black"/>
</g>
<defs>
<clipPath id="clip0_938_1845">
<rect width="24" height="24" fill="white" transform="translate(8 8)"/>
</clipPath>
</defs>
</svg>
