<svg width="266" height="532" viewBox="0 0 266 532" fill="none" xmlns="http://www.w3.org/2000/svg">
<path d="M3 267.058L3.00001 102.739C3.00001 81.1904 14.0703 61.1418 32.3232 49.6643L88.4756 14.3772C100.668 6.71527 114.751 2.65266 129.14 2.65161L189.095 2.65161C197.175 2.65161 203.746 9.21396 203.746 17.303L203.746 58.1252L206.408 57.9524C207.648 57.872 208.71 57.7854 209.799 57.7854C239.324 57.7855 263.259 81.7104 263.259 111.245C263.259 140.762 239.324 164.705 209.799 164.705C208.713 164.705 207.7 164.603 206.408 164.519L203.746 164.347L203.746 345.648L206.408 345.475C207.7 345.391 208.713 345.288 209.799 345.288C239.324 345.288 263.259 369.231 263.259 398.748C263.259 428.285 239.323 452.228 209.799 452.228C208.713 452.228 207.7 452.125 206.408 452.041L203.746 451.869L203.746 514C203.746 522.089 197.175 528.652 189.095 528.652L145.176 528.652C127.186 528.652 111.563 516.249 107.493 498.71L107.494 498.709L81.6025 386.865L81.4375 386.155L80.917 385.645L33.0996 338.75L33.0986 338.75C13.8469 319.875 3.00011 294.03 3 267.058Z" stroke="black" stroke-width="5"/>
</svg>
