<svg width="40" height="40" viewBox="0 0 40 40" fill="none" xmlns="http://www.w3.org/2000/svg">
<g clip-path="url(#clip0_842_2403)">
<path d="M32.6542 17.6827C32.1881 17.6827 31.7352 17.731 31.2946 17.8143L28.7127 9.93607C28.261 8.55763 26.9738 7.62537 25.5235 7.62537H21.9683V9.53271H25.5235C26.1514 9.53209 26.7068 9.93544 26.9013 10.5302L27.3722 11.9703H22.6313C20.2028 11.9703 18.3794 13.1845 18.3794 13.1845V16.7281H28.9313L29.4831 18.4109C27.016 19.5955 25.3097 22.1097 25.3085 25.0284C25.3098 29.0859 28.5968 32.3736 32.6543 32.3747C36.7106 32.3736 39.9988 29.0859 40 25.0284C39.9988 20.9715 36.7105 17.6839 32.6542 17.6827ZM36.0512 28.4254C35.1781 29.296 33.9838 29.8322 32.6543 29.8322C31.3235 29.8322 30.1317 29.2961 29.2585 28.4254C28.3879 27.5522 27.8517 26.3592 27.8517 25.0284C27.8517 23.6983 28.3878 22.5058 29.2585 21.6327C29.5617 21.3296 29.9155 21.0851 30.2886 20.8707L31.1569 23.5213C30.7692 23.9065 30.529 24.4391 30.529 25.0283C30.529 26.2027 31.4806 27.1549 32.6543 27.1549C33.8281 27.1549 34.7796 26.2027 34.7796 25.0283C34.7796 23.9633 33.9935 23.0901 32.9718 22.9356L32.1024 20.2814C32.286 20.2597 32.4647 20.2258 32.6543 20.2258C33.9838 20.2258 35.1781 20.7614 36.0512 21.6327C36.9218 22.5058 37.4556 23.6983 37.4581 25.0284C37.4556 26.3592 36.9218 27.5522 36.0512 28.4254Z" fill="black"/>
<path d="M7.34453 17.6827C3.28703 17.6839 0.00125 20.9716 0 25.0284C0.00125 29.0859 3.28703 32.3736 7.34453 32.3748C11.402 32.3736 14.6891 29.0859 14.6903 25.0284C14.6891 20.9716 11.402 17.6839 7.34453 17.6827ZM10.7415 28.4254C9.86836 29.296 8.67531 29.8322 7.34453 29.8322C6.01375 29.8322 4.82188 29.2961 3.94875 28.4254C3.07687 27.5523 2.54187 26.3592 2.54187 25.0284C2.54187 23.6983 3.07687 22.5058 3.94875 21.6327C4.82188 20.7614 6.01375 20.2259 7.34453 20.2259C8.67531 20.2259 9.86844 20.7614 10.7415 21.6327C11.6121 22.5058 12.1471 23.6983 12.1484 25.0284C12.1471 26.3592 11.6122 27.5523 10.7415 28.4254Z" fill="black"/>
<path d="M7.34455 22.9037C6.1708 22.9037 5.21924 23.8546 5.21924 25.0284C5.21924 26.2028 6.1708 27.1549 7.34455 27.1549C8.51838 27.1549 9.47111 26.2028 9.47111 25.0284C9.47111 23.8546 8.51838 22.9037 7.34455 22.9037Z" fill="black"/>
<path d="M34.3026 16.2149V11.0699C32.1265 11.0699 30.7415 12.5541 30.7415 12.5541V14.7302C30.7415 14.7302 32.1265 16.2149 34.3026 16.2149Z" fill="black"/>
<path d="M36.2808 11.0688H35.2241V16.2131H36.2808V11.0688Z" fill="black"/>
<path d="M5.5079 16.7281H17.2009V13.3873H13.6446C12.6906 13.3873 11.7427 13.2363 10.8357 12.9387L9.56532 12.5215C8.6597 12.2238 7.71048 12.0717 6.75649 12.0717H5.5079C4.84618 12.0717 4.30884 12.6096 4.30884 13.2726V15.5271C4.30876 16.1901 4.8461 16.7281 5.5079 16.7281Z" fill="black"/>
<path d="M26.8206 18.1337V18.0281H13.0493C15.0828 19.6813 16.3859 22.2027 16.3859 25.0309C16.3859 25.2845 16.4728 25.7935 17.201 25.7935H22.6641C23.3585 25.7935 23.6108 25.2845 23.6108 25.0309C23.6108 22.2655 24.8594 19.7869 26.8206 18.1337Z" fill="black"/>
</g>
<defs>
<clipPath id="clip0_842_2403">
<rect width="40" height="40" fill="white"/>
</clipPath>
</defs>
</svg>
