<svg width="40" height="40" viewBox="0 0 40 40" fill="none" xmlns="http://www.w3.org/2000/svg">
<g clip-path="url(#clip0_842_2401)">
<path d="M13.5875 5.58912C13.5492 5.59003 13.5111 5.59369 13.4734 5.60005H7.19997C3.23315 5.60005 -3.27574e-05 8.83324 -3.27574e-05 12.8001V15.0657C-0.014312 15.1521 -0.014312 15.2402 -3.27583e-05 15.3266L-3.27574e-05 18.4001V19.2001V26.4001C-3.27574e-05 28.1673 1.43277 29.6001 3.19997 29.6001H3.23278C3.22179 29.7336 3.19997 29.8664 3.19997 30.0001C3.19997 31.0778 3.55491 32.1664 4.30153 33.0063C5.04815 33.8463 6.19997 34.4001 7.59997 34.4001C8.99997 34.4001 10.1518 33.8463 10.8984 33.0063C11.645 32.1664 12 31.0778 12 30.0001C12 29.8664 11.9781 29.7336 11.9672 29.6001H25.6687L35.9406 21.611L35.9547 21.5985C35.9051 20.5289 35.807 19.5088 35.6734 18.536C35.6678 18.492 35.6642 18.4441 35.6578 18.4001H35.6515C34.8777 12.9391 32.9662 9.06961 31.8625 7.20005H34.4C34.506 7.20155 34.6112 7.18197 34.7096 7.14244C34.808 7.10291 34.8975 7.04422 34.973 6.96978C35.0485 6.89535 35.1085 6.80665 35.1494 6.70884C35.1903 6.61104 35.2114 6.50607 35.2114 6.40005C35.2114 6.29403 35.1903 6.18907 35.1494 6.09127C35.1085 5.99346 35.0485 5.90476 34.973 5.83033C34.8975 5.75589 34.808 5.6972 34.7096 5.65767C34.6112 5.61814 34.506 5.59855 34.4 5.60005H13.7343C13.6858 5.5919 13.6367 5.58824 13.5875 5.58912ZM7.19997 7.20005H12.8V14.4001H1.59997V12.8001C1.59997 9.69807 4.09798 7.20005 7.19997 7.20005ZM14.4 7.20005H24V20.4001C24 22.8265 22.0256 24.8001 19.6 24.8001H17.6V22.4001C17.6 20.4686 16.2232 18.8532 14.4 18.4813V15.3344C14.4142 15.248 14.4142 15.1599 14.4 15.0735V7.20005ZM28 7.20005H29.9703C30.5029 7.97691 32.8406 11.6214 33.8984 17.6001H28V7.20005ZM1.59997 16.0001H12.8V18.4001H1.59997V16.0001ZM36.7359 23.0188L29.3031 28.8001H30.5875C30.4769 29.1835 30.4 29.5811 30.4 30.0001C30.4 32.4265 32.3744 34.4001 34.8 34.4001C37.2256 34.4001 39.2 32.4265 39.2 30.0001C39.2 29.5839 39.1381 29.1819 39.0297 28.8001H39.2C39.44 28.8001 39.6667 28.6935 39.8187 28.5079C39.9699 28.3231 40.0315 28.079 39.9843 27.8438C39.4379 25.1078 37.8855 23.7036 36.7359 23.0188ZM32.2812 28.8001H37.3187C37.4936 29.1652 37.6 29.5689 37.6 30.0001C37.6 31.5441 36.344 32.8001 34.8 32.8001C33.256 32.8001 32 31.5441 32 30.0001C32 29.5689 32.1064 29.1652 32.2812 28.8001ZM4.83434 29.6001H10.3656C10.3824 29.7328 10.4 29.8653 10.4 30.0001C10.4 30.7223 10.1549 31.4338 9.70153 31.9438C9.24815 32.4539 8.59997 32.8001 7.59997 32.8001C6.59997 32.8001 5.95179 32.4539 5.4984 31.9438C5.04502 31.4338 4.79997 30.7223 4.79997 30.0001C4.79997 29.8653 4.81751 29.7328 4.83434 29.6001Z" fill="black"/>
</g>
<defs>
<clipPath id="clip0_842_2401">
<rect width="40" height="40" fill="white"/>
</clipPath>
</defs>
</svg>
