<svg width="40" height="40" viewBox="0 0 40 40" fill="none" xmlns="http://www.w3.org/2000/svg">
<path fill-rule="evenodd" clip-rule="evenodd" d="M6.16528 20.7226C4.41072 20.7226 2.98819 22.1451 2.98819 23.8997C2.98819 25.6543 4.41072 27.0768 6.16528 27.0768C7.91983 27.0768 9.34236 25.6543 9.34236 23.8997C9.34236 22.1451 7.91983 20.7226 6.16528 20.7226ZM32.5129 22.3828V23.5254H31.3704C31.5071 22.9655 31.9498 22.5195 32.5129 22.3828ZM31.3671 24.2708H32.5129V25.4134C31.9498 25.2799 31.5071 24.8339 31.3671 24.2708ZM33.2584 25.4166V24.2741H34.401C34.2642 24.8339 33.8183 25.2767 33.2584 25.4166ZM34.401 23.5286H33.2584V22.386C33.8183 22.5195 34.2642 22.9655 34.401 23.5286ZM5.79093 22.3828V23.5254H4.64835C4.78507 22.9655 5.22778 22.5195 5.79093 22.3828ZM4.64835 24.2708H5.79093V25.4134C5.22778 25.2799 4.78507 24.8339 4.64835 24.2708ZM6.53637 25.4166V24.2741H7.67895C7.54223 24.8339 7.09952 25.2767 6.53637 25.4166ZM7.68221 23.5286H6.53963V22.386C7.09952 22.5195 7.54223 22.9655 7.68221 23.5286ZM23.955 17.0833C24.4563 16.9694 24.9543 16.9694 25.4556 16.9922C21.5331 14.9316 19.9934 13.5937 15.4003 13.8639L16.0318 18.0533L23.5937 18.3398C23.5253 18.1412 23.4862 18.0338 23.4732 17.8353C23.4374 17.2688 23.4439 17.2005 23.955 17.0833ZM14.2447 13.9388L15.065 17.998L7.2102 17.679C6.4029 17.6464 6.26293 17.2916 6.75121 16.6113C6.97257 16.302 7.21996 15.9961 7.50317 15.6933C9.53442 13.5254 11.5559 13.9746 14.2447 13.9388ZM39.8502 21.8001H39.6093C39.4595 21.136 39.1633 20.5371 38.7271 20C37.7701 18.8086 37.3339 18.9583 35.9114 18.7011L27.9491 17.2005C26.1816 15.944 24.0494 14.8242 21.4485 13.8802C19.0364 13.0013 17.3339 12.9166 14.7525 12.9199C13.2747 12.9231 11.7773 13.011 10.2571 13.1933C9.48559 13.2422 8.73038 13.3463 7.98819 13.4961C7.09952 13.6751 6.22713 13.9225 5.37101 14.2155L2.1809 16.0579C1.24015 16.6015 1.03833 17.2363 0.917881 18.2747L0.468662 22.1093H0.0031662V24.2285C0.0682716 24.9414 0.348221 25.0488 0.940666 25.0488H1.71215C1.41267 18.3463 10.843 17.2005 10.6379 25.5794H28.6848C27.4706 19.8014 33.2974 17.7962 36.1588 21.1002C37.0279 22.1061 37.3306 23.4798 37.2525 25.1041H39.3391C39.5051 25.026 39.6353 24.9186 39.733 24.7851C40.0748 24.3196 39.9999 22.9166 39.9739 22.1061C39.9706 21.888 40.039 21.8001 39.8502 21.8001ZM32.884 20.7226C31.1295 20.7226 29.7069 22.1451 29.7069 23.8997C29.7069 25.6543 31.1295 27.0768 32.884 27.0768C34.6386 27.0768 36.0611 25.6543 36.0611 23.8997C36.0611 22.1451 34.6386 20.7226 32.884 20.7226Z" fill="black"/>
</svg>
