<svg width="30" height="32" viewBox="0 0 30 32" fill="none" xmlns="http://www.w3.org/2000/svg">
<path d="M15.159 0C22.2337 0 27.9693 4.74911 27.9693 10.6082C27.9693 16.4673 22.235 20.033 15.159 20.033C8.43892 19.8971 3.67829 17.7808 0.877091 13.6842C0.776811 13.5342 0.707214 13.3657 0.67231 13.1887C0.637407 13.0116 0.637887 12.8293 0.673722 12.6524C2.27498 4.65955 7.1034 0.442074 15.159 0ZM14.6812 6.59945C10.6133 7.01134 8.12398 8.94779 7.2132 12.4088C8.45413 13.5028 10.9435 14.11 14.6812 14.2304C18.4368 14.1713 20.7118 13.0765 20.7565 10.5314C20.5227 7.72048 17.7893 6.49312 14.6812 6.59945Z" fill="black"/>
<path d="M0.0344531 16.39C2.13303 22.4106 7.92042 25.761 13.8699 25.761C18.8039 25.761 22.074 23.6253 23.7891 20.4032L29.3183 23.8668C27.391 28.5813 21.6773 31.9999 14.9275 31.9999C6.59594 31.9999 -0.538687 26.3848 0.0320438 16.6215C0.0319607 16.5439 0.0327916 16.4662 0.0344531 16.39Z" fill="#089F00"/>
</svg>
