<svg width="34" height="34" viewBox="0 0 34 34" fill="none" xmlns="http://www.w3.org/2000/svg">
<path d="M2.8335 28.3333L11.3335 17L2.8335 5.66666H21.2502C21.6988 5.66666 22.1238 5.767 22.5252 5.9677C22.9266 6.16839 23.2571 6.44582 23.5168 6.79999L31.1668 17L30.9897 17.2479C30.3522 16.8229 29.6616 16.4746 28.9179 16.2031C28.1741 15.9316 27.4009 15.7486 26.5981 15.6542L21.2502 8.49999H8.50016L14.8752 17L8.50016 25.5H15.5835C15.5835 25.9958 15.6189 26.4799 15.6897 26.9521C15.7606 27.4243 15.8668 27.8847 16.0085 28.3333H2.8335ZM24.4731 28.6875L29.396 23.8L27.9085 22.3125L24.4731 25.6771L23.0918 24.2958L21.6043 25.8187L24.4731 28.6875ZM25.5002 32.5833C23.5404 32.5833 21.87 31.8927 20.4887 30.5114C19.1075 29.1302 18.4168 27.4597 18.4168 25.5C18.4168 23.5403 19.1075 21.8698 20.4887 20.4885C21.87 19.1073 23.5404 18.4167 25.5002 18.4167C27.4599 18.4167 29.1304 19.1073 30.5116 20.4885C31.8929 21.8698 32.5835 23.5403 32.5835 25.5C32.5835 27.4597 31.8929 29.1302 30.5116 30.5114C29.1304 31.8927 27.4599 32.5833 25.5002 32.5833Z" fill="#FFC300"/>
</svg>
