<svg width="18" height="20" viewBox="0 0 18 20" fill="none" xmlns="http://www.w3.org/2000/svg">
<path d="M3 20H15C15.7956 20 16.5587 19.6839 17.1213 19.1213C17.6839 18.5587 18 17.7956 18 17V5C18 4.46957 17.7893 3.96086 17.4142 3.58579C17.0391 3.21071 16.5304 3 16 3H14V1C14 0.734783 13.8946 0.48043 13.7071 0.292893C13.5196 0.105357 13.2652 0 13 0C12.7348 0 12.4804 0.105357 12.2929 0.292893C12.1054 0.48043 12 0.734783 12 1V3H6V1C6 0.734783 5.89464 0.48043 5.70711 0.292893C5.51957 0.105357 5.26522 0 5 0C4.73478 0 4.48043 0.105357 4.29289 0.292893C4.10536 0.48043 4 0.734783 4 1V3H2C1.46957 3 0.960859 3.21071 0.585786 3.58579C0.210714 3.96086 0 4.46957 0 5V17C0 17.7956 0.316071 18.5587 0.87868 19.1213C1.44129 19.6839 2.20435 20 3 20ZM2 10.5C2 10.3674 2.05268 10.2402 2.14645 10.1464C2.24021 10.0527 2.36739 10 2.5 10H15.5C15.6326 10 15.7598 10.0527 15.8536 10.1464C15.9473 10.2402 16 10.3674 16 10.5V17C16 17.2652 15.8946 17.5196 15.7071 17.7071C15.5196 17.8946 15.2652 18 15 18H3C2.73478 18 2.48043 17.8946 2.29289 17.7071C2.10536 17.5196 2 17.2652 2 17V10.5Z" fill="#595959"/>
</svg>
