<svg width="30" height="30" viewBox="0 0 30 30" fill="none" xmlns="http://www.w3.org/2000/svg">
<g clip-path="url(#clip0_2536_2323)">
<path fill-rule="evenodd" clip-rule="evenodd" d="M15.0003 12V15H18.0003C18.0003 13.3425 16.6578 12 15.0003 12ZM15.0003 6V9C18.3093 9 21.0003 11.691 21.0003 15H24.0003C24.0003 10.029 19.9713 6 15.0003 6ZM15.0003 0V3C21.6168 3 27.0003 8.3835 27.0003 15H30.0003C30.0003 6.7155 23.2848 0 15.0003 0ZM21.9783 27.3508C21.9603 27.4048 21.9618 27.3973 21.9783 27.3508V27.3508ZM21.1758 23.3672C20.1333 22.8062 19.0788 22.1669 17.9883 21.7214C15.8808 20.8619 16.0233 23.4028 14.5188 24.2263C13.5408 24.7618 12.1608 23.7914 11.3073 23.2544C9.81626 22.3154 8.49476 21.0796 7.39676 19.6501C6.83426 18.9196 5.59226 17.5457 5.74526 16.5212C5.98826 14.8952 7.91125 14.8137 7.36075 12.8247C7.06675 11.7597 6.54026 10.7115 6.14576 9.68555C5.61776 8.31005 5.40026 7.42939 3.85976 7.50439C2.74676 7.55839 2.00876 8.03426 1.32476 8.92676C-0.526237 11.3373 -0.24724 14.5872 0.996261 17.2317C2.75726 20.9742 5.77526 24.5025 8.99876 26.7825C11.1918 28.3335 14.0808 29.7417 16.7358 29.9802C18.6798 30.1557 21.3993 29.1046 22.0953 26.9941C22.0473 27.1411 22.0008 27.2833 21.9783 27.3508C21.9948 27.2983 22.0308 27.1921 22.0953 26.9941C22.1658 26.7811 22.2003 26.6745 22.2168 26.6265C22.1958 26.6895 22.1478 26.8367 22.0968 26.9897C22.7088 25.1297 22.7838 24.2327 21.1758 23.3672ZM22.2168 26.6265C22.2288 26.5875 22.2288 26.5905 22.2168 26.6265V26.6265Z" fill="#003566"/>
</g>
<defs>
<clipPath id="clip0_2536_2323">
<rect width="30" height="30" fill="white"/>
</clipPath>
</defs>
</svg>
