<svg width="59" height="37" viewBox="0 0 59 37" fill="none" xmlns="http://www.w3.org/2000/svg">
<rect width="58.2" height="36.375" rx="12" fill="white"/>
<path d="M29.7063 33.9502C38.0769 33.9502 44.8625 27.1645 44.8625 18.7939C44.8625 10.4234 38.0769 3.6377 29.7063 3.6377C21.3357 3.6377 14.55 10.4234 14.55 18.7939C14.55 27.1645 21.3357 33.9502 29.7063 33.9502Z" fill="#FFC300"/>
<path d="M33.0243 22.5487C32.8331 24.4955 30.4979 28.2074 30.5161 28.9832C30.5343 29.759 31.3284 33.3046 31.3284 33.3046H26.4553L26.1687 28.9359C26.138 28.4656 24.7129 23.4867 27.165 21.4433L28.4143 21.5751L29.0828 22.4301C30.5415 21.2707 31.3162 20.1518 30.0844 18.0159L29.3197 18.05C28.6043 17.2387 29.0056 16.9972 29.9036 16.815C30.7187 16.6494 31.3204 16.8157 31.761 17.1908C32.162 17.6476 33.174 21.0167 33.0235 22.5484L33.0243 22.5487Z" fill="#FED298"/>
<path d="M40.1331 11.5765L31.4996 21.6966L26.8042 17.6283L35.4377 7.50781L40.1331 11.5765Z" fill="#83CF8F"/>
<path d="M34.8691 15.7579C34.1533 16.5696 32.8981 16.6623 32.0652 15.964C31.2327 15.2657 31.138 14.0418 31.8538 13.23C32.57 12.418 33.8253 12.3256 34.6577 13.024C35.4902 13.7219 35.585 14.9462 34.8691 15.7579ZM27.2344 17.3978L31.3361 20.8363L39.488 11.5905L35.3862 8.15234L27.234 17.3981L27.2344 17.3978Z" fill="#75BD80"/>
<path d="M38.0699 10.8355L36.4328 9.44238C36.001 9.93958 35.2441 9.99599 34.7422 9.56869L28.7383 16.4802C29.2403 16.9075 29.2976 17.6566 28.8659 18.1534L30.5031 19.5465C30.9345 19.0497 31.6913 18.9933 32.1937 19.4206L38.1975 12.5091C37.6951 12.0818 37.6385 11.3327 38.0702 10.8355L38.0699 10.8355Z" fill="#83CF8F"/>
<path d="M34.7296 12.9456C35.5403 13.6814 35.6323 14.9708 34.9356 15.8258C34.239 16.6815 33.0174 16.7782 32.2071 16.0432C31.3968 15.3082 31.3048 14.0184 32.0015 13.1631C32.6981 12.3077 33.9197 12.2106 34.73 12.9456H34.7296Z" fill="#75BD80"/>
<path d="M33.973 14.3486C33.9269 14.3103 33.8766 14.293 33.8237 14.2966C33.7703 14.3003 33.6946 14.3302 33.5955 14.3865L33.9703 14.698C34.0708 14.5472 34.0718 14.4304 33.9727 14.3482L33.973 14.3486ZM32.9207 14.3609C32.9696 14.4015 33.0212 14.4201 33.0755 14.4165C33.1299 14.4132 33.2011 14.3879 33.2889 14.3406L32.9159 14.0307C32.8715 14.1009 32.8502 14.1642 32.8519 14.2207C32.8539 14.2773 32.8767 14.3242 32.9211 14.3609H32.9207ZM34.101 14.1795C34.1884 14.2524 34.2325 14.3443 34.2332 14.4547C34.2335 14.5652 34.1908 14.6837 34.1045 14.8095L34.3281 14.9956L34.2211 15.1157L34.006 14.9374C33.9441 15.0069 33.8787 15.0698 33.8092 15.1257C33.74 15.1813 33.6771 15.2223 33.6199 15.2472L33.4696 15.122C33.5394 15.0904 33.6117 15.0468 33.6867 14.9922C33.7617 14.937 33.8237 14.882 33.8733 14.8268L33.4486 14.4739C33.2938 14.5668 33.1658 14.6157 33.0649 14.6211C32.9641 14.6264 32.8698 14.5928 32.7824 14.5202C32.6981 14.45 32.6572 14.3608 32.6596 14.2529C32.6616 14.145 32.7029 14.0342 32.7838 13.9211L32.6083 13.775L32.7149 13.6545L32.8884 13.7989C32.9933 13.6874 33.1151 13.5969 33.2539 13.5273L33.3375 13.6808C33.2171 13.742 33.1107 13.8176 33.0192 13.9071L33.4372 14.255C33.5563 14.1841 33.6527 14.1371 33.7259 14.1142C33.7996 14.0912 33.8667 14.0845 33.9266 14.0945C33.9864 14.1045 34.0449 14.1328 34.101 14.1797V14.1795Z" fill="white"/>
<path d="M36.4783 8.21171L30.8934 21.6959L24.6543 19.0568L30.2395 5.57227L36.4783 8.21171Z" fill="#83CF8F"/>
<path d="M32.5349 14.3747C32.0799 15.4935 30.8303 16.021 29.7431 15.5525C28.6566 15.084 28.144 13.7972 28.599 12.6783C29.054 11.5598 30.3036 11.032 31.3908 11.5008C32.4777 11.969 32.9896 13.2554 32.5349 14.3747ZM25.3 18.7439L30.6539 21.0507L35.8342 8.30914L30.4807 6.00195L25.3 18.7435V18.7439Z" fill="#75BD80"/>
<path d="M34.0463 8.20935L31.8393 7.29297C31.5558 7.96409 30.7773 8.28082 30.1006 7.99997L26.1599 17.3369C26.8369 17.6177 27.156 18.3898 26.8724 19.0609L29.0798 19.9769C29.3633 19.3058 30.1414 18.9894 30.8185 19.2703L34.7592 9.933C34.0822 9.65221 33.7632 8.88012 34.0467 8.209L34.0463 8.20935Z" fill="#83CF8F"/>
<path d="M31.4379 11.5443C32.5873 12.0029 33.1294 13.2619 32.6481 14.3568C32.1669 15.4517 30.8446 15.9677 29.6952 15.5093C28.5455 15.0511 28.0034 13.7918 28.4847 12.6968C28.9659 11.6019 30.2881 11.0857 31.4379 11.5443Z" fill="#3FA344"/>
<path d="M30.8977 13.3049C30.832 13.2794 30.7701 13.2773 30.7128 13.2995C30.6548 13.3216 30.582 13.379 30.4926 13.4726L31.0256 13.6806C31.0814 13.4851 31.0384 13.3596 30.898 13.3049H30.8977ZM29.7337 13.6718C29.8033 13.6991 29.8675 13.7014 29.9265 13.6797C29.9859 13.6576 30.0552 13.6069 30.1354 13.5267L29.6057 13.32C29.582 13.4097 29.5819 13.4849 29.6053 13.545C29.6282 13.6052 29.6713 13.6474 29.734 13.6719L29.7337 13.6718ZM30.9775 13.0808C31.1014 13.1294 31.1845 13.2127 31.2265 13.3314C31.2681 13.4497 31.2647 13.5912 31.2159 13.7551L31.5334 13.8792L31.4594 14.0441L31.1539 13.9251C31.1109 14.0203 31.0617 14.1098 31.0056 14.193C30.949 14.2764 30.8944 14.3406 30.8408 14.3869L30.6271 14.3032C30.6924 14.2461 30.7565 14.175 30.8196 14.0914C30.8823 14.007 30.9308 13.9271 30.965 13.8513L30.3621 13.616C30.2246 13.7673 30.1007 13.8629 29.991 13.9023C29.8809 13.9422 29.7635 13.9377 29.6396 13.8891C29.52 13.8425 29.4412 13.7609 29.4033 13.6446C29.3655 13.5279 29.3702 13.3957 29.4176 13.2471L29.1686 13.1498L29.2426 12.9849L29.489 13.0811C29.5638 12.9264 29.6658 12.7884 29.7938 12.667L29.9436 12.8037C29.8328 12.9094 29.7428 13.026 29.6739 13.1532L30.2681 13.3852C30.3738 13.2692 30.4631 13.1866 30.5364 13.1369C30.6097 13.0876 30.6811 13.0581 30.7515 13.0482C30.8215 13.0386 30.8969 13.0495 30.9775 13.0808Z" fill="#7DBF76"/>
<path d="M33.0057 6.21777L33.0393 20.8209L26.1932 20.8366L26.1599 6.23346L33.0057 6.21777Z" fill="#83CF8F"/>
<path d="M31.7997 13.5219C31.8026 14.729 30.8196 15.7094 29.6042 15.7122C28.3885 15.7151 27.4013 14.7391 27.398 13.5319C27.3955 12.3251 28.3784 11.3444 29.5938 11.3419C30.8095 11.3387 31.7971 12.3151 31.7997 13.5219ZM26.6212 20.4063L32.6086 20.3924L32.5769 6.64746L26.5891 6.66106L26.6212 20.406V20.4063Z" fill="#75BD80"/>
<path d="M30.8002 7.07715L28.3667 7.08287C28.3682 7.81831 27.7646 8.41573 27.0184 8.41751L27.0425 18.6475C27.7887 18.6457 28.3952 19.241 28.397 19.9761L30.8304 19.9704C30.8286 19.2349 31.4322 18.6375 32.178 18.6357L32.1543 8.4057C31.4081 8.40714 30.8016 7.81223 30.7998 7.07715H30.8002Z" fill="#83CF8F"/>
<path d="M29.594 11.377C30.781 11.3742 31.7459 12.3349 31.7487 13.522C31.7515 14.7095 30.7912 15.6744 29.6042 15.6766C28.4169 15.6794 27.4523 14.719 27.4491 13.5319C27.4467 12.3444 28.4071 11.3798 29.594 11.377Z" fill="#75BD80"/>
<path d="M29.8884 13.1241C29.8211 13.1244 29.766 13.1457 29.724 13.1881C29.6823 13.2305 29.6407 13.3123 29.5998 13.4341L30.1494 13.4331C30.1206 13.2269 30.0335 13.124 29.8885 13.1243V13.1241H29.8884ZM29.0127 13.906C29.0846 13.906 29.1418 13.884 29.1852 13.8416C29.2286 13.7986 29.2692 13.7244 29.3073 13.619L28.7605 13.6201C28.7758 13.7142 28.8053 13.7853 28.849 13.8336C28.8927 13.8822 28.9472 13.9064 29.0124 13.906H29.0127ZM29.8697 12.8818C29.9981 12.8818 30.1035 12.9298 30.1874 13.0268C30.2707 13.1234 30.3238 13.2592 30.3457 13.4328L30.6735 13.4321L30.6739 13.6162L30.3589 13.6166C30.3589 13.7233 30.3512 13.8266 30.3346 13.926C30.3183 14.0262 30.2957 14.1077 30.2669 14.1717H30.0462C30.0805 14.093 30.109 14.002 30.1312 13.8987C30.1531 13.7958 30.1638 13.702 30.1635 13.6169L29.5417 13.6183C29.481 13.8133 29.4102 13.9501 29.3294 14.0285C29.2486 14.1076 29.1442 14.1465 29.0158 14.1469C28.8923 14.1472 28.791 14.0993 28.7119 14.003C28.6325 13.9067 28.5842 13.7793 28.5668 13.6204L28.3094 13.6208L28.3091 13.437L28.5637 13.4366C28.5679 13.2616 28.6023 13.0929 28.6671 12.9301L28.8524 13.004C28.7968 13.1457 28.7646 13.29 28.7545 13.4363L29.3676 13.4349C29.4144 13.2858 29.4602 13.1738 29.5046 13.0996C29.549 13.025 29.6 12.9708 29.6579 12.9351C29.7159 12.9001 29.786 12.8822 29.8692 12.8818H29.8697Z" fill="white"/>
<path d="M27.4392 6.43164L33.254 19.8205L27.0294 22.5553L21.215 9.16608L27.4392 6.43164Z" fill="#83CF8F"/>
<path d="M29.1315 13.6277C29.6154 14.7235 29.1097 15.9994 28.0023 16.4781C26.895 16.9565 25.6049 16.4565 25.1213 15.3607C24.6377 14.265 25.1435 12.9891 26.2508 12.5107C27.3582 12.032 28.6482 12.5323 29.1318 13.6277H29.1315ZM27.1533 21.9109L32.6086 19.5538L27.0999 7.07715L21.6445 9.43458L27.1536 21.9109H27.1533Z" fill="#75BD80"/>
<path d="M25.7752 8.15234L23.611 9.10539C23.9011 9.77455 23.5979 10.5542 22.9343 10.8463L26.9662 20.154C27.6302 19.8615 28.4031 20.1672 28.6928 20.8363L30.8569 19.8829C30.5669 19.2141 30.87 18.4348 31.5336 18.1423L27.5014 8.83465C26.8378 9.12748 26.0649 8.82144 25.7749 8.15234H25.7752Z" fill="#83CF8F"/>
<path d="M26.2229 12.6323C27.365 12.1572 28.6952 12.6541 29.1941 13.7417C29.693 14.8293 29.172 16.0968 28.0295 16.5715C26.8871 17.0467 25.5569 16.5501 25.058 15.4622C24.559 14.3746 25.0809 13.1078 26.2229 12.6323Z" fill="#75BD80"/>
<path d="M27.3432 13.9823C27.278 14.0087 27.2333 14.0482 27.2106 14.1013C27.1875 14.1545 27.1816 14.2417 27.1926 14.3647L27.7248 14.1528C27.6107 13.983 27.4836 13.9262 27.3432 13.9823ZM26.821 15.0032C26.8902 14.9755 26.9368 14.9347 26.9606 14.8809C26.9849 14.8264 26.9933 14.7459 26.9867 14.6385L26.4571 14.8495C26.5113 14.9264 26.5696 14.9772 26.6323 15.0026C26.6949 15.0283 26.7576 15.0287 26.821 15.0032ZM27.2237 13.7771C27.348 13.7276 27.4707 13.7293 27.592 13.7821C27.7133 13.8346 27.8207 13.9332 27.9148 14.077L28.2318 13.9506L28.3091 14.1117L28.0043 14.233C28.0486 14.3259 28.0841 14.4195 28.1098 14.5131C28.1359 14.6067 28.1479 14.6873 28.1461 14.7542L27.9328 14.8387C27.9331 14.7565 27.9229 14.6662 27.9013 14.567C27.8793 14.468 27.8507 14.3818 27.8152 14.3079L27.2134 14.5476C27.2358 14.7414 27.2245 14.8889 27.179 14.9889C27.1332 15.0885 27.0486 15.1633 26.9247 15.2125C26.8052 15.2603 26.6869 15.257 26.5699 15.2031C26.453 15.1493 26.3533 15.0564 26.2701 14.9237L26.0213 15.023L25.9443 14.8622L26.1903 14.7639C26.1218 14.6091 26.0847 14.448 26.0792 14.2809L26.2896 14.2742C26.295 14.4196 26.3233 14.5584 26.3745 14.6904L26.9682 14.4541C26.9514 14.3053 26.9488 14.19 26.9609 14.1078C26.9731 14.0255 27.0001 13.958 27.0416 13.9052C27.0826 13.852 27.1435 13.8092 27.2237 13.7771Z" fill="white"/>
<path d="M30.2888 19.0824L29.2832 21.3012L30.2421 22.9392C31.3341 24.8048 25.9554 24.1475 26.4013 22.4003C26.4467 22.2222 26.7861 21.0979 26.96 20.9206L28.2038 19.651L28.7734 18.3256C29.3504 16.5926 30.9884 17.5391 30.2888 19.0824Z" fill="#FED298"/>
<path d="M29.2809 17.6211C29.4067 17.2844 30.0406 17.3358 30.0286 17.7112L29.7756 18.6864C29.7756 18.6864 29.1399 18.3588 28.9539 18.5038L29.2809 17.6211Z" fill="#FFF7DF"/>
<path d="M24.6543 31.7988H32.8236V33.6228C31.8172 33.8355 30.7732 33.9487 29.7022 33.9487C27.9292 33.9487 26.2294 33.6413 24.6546 33.0787V31.7989H24.6543V31.7988Z" fill="#003566"/>
<path d="M24.8688 31.8005H32.6081V30.7256H24.8688V31.8005Z" fill="white"/>
</svg>
