<svg width="24" height="13" viewBox="0 0 24 13" fill="none" xmlns="http://www.w3.org/2000/svg">
<path d="M14.5814 0.457875C14.5362 0.193453 14.3071 0 14.0386 0H1.66078C1.30406 0 1.01522 0.289171 1.01522 0.645234C1.01522 1.00195 1.30406 1.2908 1.66078 1.2908H4.67311C5.02983 1.2908 5.31867 1.58002 5.31867 1.93641C5.31867 2.2928 5.02983 2.58197 4.67311 2.58197H0.645563C0.289172 2.58197 0 2.87114 0 3.22753C0 3.58392 0.289172 3.87272 0.645563 3.87272H6.13528C6.45028 3.87272 6.70584 4.12866 6.70584 4.44366C6.70584 4.75866 6.45028 5.01422 6.13528 5.01422H3.21867C2.86195 5.01422 2.57311 5.30344 2.57311 5.65983C2.57311 6.01617 2.86195 6.30539 3.21867 6.30539H5.36822C5.6835 6.30539 5.93911 6.56095 5.93911 6.87595C5.93911 7.19091 5.6835 7.44651 5.36822 7.44651H2.4007C2.04398 7.44651 1.75514 7.73569 1.75514 8.09208C1.75514 8.44847 2.04398 8.73764 2.4007 8.73764H6.47948L6.73673 10.1927H8.21423C8.12733 10.4039 8.07778 10.6343 8.07778 10.877C8.07778 11.8729 8.88487 12.68 9.88078 12.68C10.8763 12.68 11.6834 11.8729 11.6834 10.877C11.6834 10.6343 11.6339 10.4039 11.547 10.1927H16.2363L14.5814 0.457875ZM10.6567 10.877C10.6567 11.3057 10.3095 11.6529 9.88073 11.6529C9.45173 11.6529 9.10448 11.3057 9.10448 10.877C9.10448 10.5787 9.2745 10.3227 9.5213 10.1927H10.2398C10.4866 10.3227 10.6567 10.5786 10.6567 10.877Z" fill="black"/>
<path d="M23.9811 9.06211L23.2405 5.40863L20.5364 1.24805H15.6128L17.1378 10.1927H18.9388C18.8522 10.4038 18.8026 10.6343 18.8026 10.877C18.8026 11.8728 19.6098 12.68 20.6053 12.68C21.6012 12.68 22.4083 11.8728 22.4083 10.877C22.4083 10.6343 22.3587 10.4038 22.2719 10.1927H23.0566C23.3397 10.1927 23.6078 10.0658 23.787 9.84647C23.9659 9.62761 24.0374 9.33942 23.9811 9.06211ZM18.3997 2.91258H19.6332L21.2346 5.37572H18.8199L18.3997 2.91258ZM21.3815 10.877C21.3815 11.3057 21.0343 11.6529 20.6053 11.6529C20.1769 11.6529 19.8294 11.3057 19.8294 10.877C19.8294 10.5787 19.9998 10.3227 20.2462 10.1927H20.9647C21.2115 10.3227 21.3815 10.5786 21.3815 10.877Z" fill="black"/>
</svg>
