<svg width="24" height="24" viewBox="0 0 24 24" fill="none" xmlns="http://www.w3.org/2000/svg">
<path d="M19.0449 23.8869C18.7803 23.7989 18.3743 23.6305 18.1427 23.5107C16.941 22.8891 3.62679 14.987 3.49842 14.8192C3.25475 14.5008 3.31558 13.8978 3.61865 13.627C3.76748 13.493 4.72825 13.0454 5.75366 12.6302C6.77905 12.2152 7.66491 11.8476 7.7222 11.8132C7.77941 11.7792 6.50772 11.1862 4.89603 10.496C3.28434 9.80562 1.86837 9.15282 1.74944 9.04522C1.25962 8.60202 1.81806 7.99782 2.62632 8.09662C3.17518 8.16462 9.37662 10.8878 9.5726 11.148C9.75324 11.3876 9.76864 11.9534 9.60301 12.263C9.53699 12.387 8.72421 12.8798 7.79678 13.3594C6.86935 13.8392 6.15204 14.2696 6.20275 14.3158C6.25336 14.3618 9.40727 16.065 13.2112 18.1002C21.594 22.5851 21.1107 22.3141 21.3353 22.6567C21.8725 23.4765 20.3244 24.3081 19.0449 23.8869ZM20.5243 23.3033C20.9076 22.9201 20.5363 22.4855 19.8267 22.4855C19.0899 22.4855 18.6842 23.0201 19.1952 23.3177C19.4869 23.4877 20.3494 23.4777 20.5243 23.2977V23.3033ZM2.85441 8.90662C3.13421 8.72862 2.91142 8.41542 2.5061 8.41542C2.27927 8.41542 2.10932 8.48942 2.06381 8.60742C1.98559 8.81142 2.20524 9.01262 2.5061 9.01262C2.60532 9.01262 2.76207 8.96462 2.85441 8.90662ZM19.2542 20.1104C17.3723 17.7004 15.7388 14.4858 15.541 12.803C15.3743 11.3856 16.1659 9.75342 17.4288 8.91022C20.6959 6.72902 24.8081 9.70262 23.862 13.5624C23.5724 14.7438 22.4447 16.9966 21.2914 18.6974C19.8071 20.8861 19.8414 20.8623 19.2542 20.1104ZM20.672 14.4638C21.3807 13.9754 21.4835 13.3002 20.933 12.7498L20.596 12.4128L20.8729 12.091C21.2723 11.6266 21.24 11.0722 20.7883 10.6394C20.4562 10.3214 20.3387 10.289 19.3449 10.2414L18.263 10.1894V12.4288V14.6682H19.3188C20.1169 14.6682 20.4472 14.6186 20.672 14.4638ZM19.2253 13.293C19.2253 12.9056 19.2569 12.865 19.5561 12.8666C20.021 12.8666 20.2152 13.0266 20.168 13.3594C20.1346 13.5954 20.0472 13.6532 19.6764 13.6838C19.2326 13.7198 19.2253 13.7138 19.2253 13.293ZM19.2253 11.5946C19.2253 11.186 19.2433 11.1678 19.6041 11.2036C20.3602 11.2796 20.3306 12.023 19.5715 12.023C19.2549 12.023 19.2253 11.987 19.2253 11.5946ZM1.56907 6.08962C0.235655 4.07361 -0.222738 2.72021 0.0984074 1.7472C0.417973 0.779202 1.46055 0.00520001 2.45241 0C3.15213 0 4.08852 0.499201 4.50723 1.1038C4.81277 1.545 4.8514 1.704 4.84984 2.51281C4.8483 3.31661 4.79583 3.53141 4.40703 4.32661C3.85775 5.44981 2.725 7.14122 2.4917 7.18662C2.38587 7.20662 2.0228 6.77562 1.56907 6.08962ZM1.86119 3.66521C1.9084 3.54321 2.10052 3.48521 2.46261 3.48521C2.82468 3.48521 3.0169 3.54321 3.06401 3.66521C3.12142 3.81521 3.70892 3.93961 3.70892 3.80321C3.70892 3.77921 3.43295 3.17041 3.09562 2.45021L2.48233 1.1408L2.2342 1.6218C2.09778 1.8864 1.80676 2.49521 1.58757 2.97461L1.18907 3.84661H1.49051C1.65635 3.84661 1.82312 3.76321 1.86119 3.66521ZM2.26553 2.89321C2.26553 2.83321 2.30014 2.69281 2.34235 2.58261C2.40376 2.42261 2.43977 2.41461 2.52098 2.54261C2.67901 2.79201 2.64461 3.00381 2.44597 3.00381C2.34675 3.00381 2.26553 2.95321 2.26553 2.89321Z" fill="black"/>
</svg>
