<svg width="38" height="57" viewBox="0 0 38 57" fill="none" xmlns="http://www.w3.org/2000/svg">
<path d="M28.9384 37.1845C28.9412 37.1791 28.9441 37.1741 28.947 37.1688C28.9701 37.1188 28.9366 37.1869 28.9384 37.1845Z" fill="#003566"/>
<path d="M28.9468 27.5785C28.9444 27.5727 28.9416 27.5674 28.939 27.5615C28.9443 27.5735 28.9509 27.5885 28.9558 27.5997C28.9527 27.5927 28.9498 27.5856 28.9468 27.5785Z" fill="#003566"/>
<path d="M29.2225 13.8387C29.1902 13.8918 29.2541 13.7852 29.2225 13.8387V13.8387Z" fill="#003566"/>
<path d="M20.2802 45.0794C20.2988 45.0679 20.3047 45.0642 20.2802 45.0794V45.0794Z" fill="#003566"/>
<path d="M37.9482 2.14127C37.8388 1.87137 37.7293 1.60136 37.62 1.33124C37.248 1.56285 36.8868 1.81984 36.5314 2.08603C36.3293 2.2376 36.1294 2.39366 35.9312 2.55263L35.6699 2.76549C35.5898 2.61921 35.5095 2.47303 35.4296 2.32652L35.6876 2.13465C35.9014 1.97825 36.1168 1.82478 36.3345 1.67681C36.7061 1.42375 37.0837 1.18057 37.4707 0.964117C37.3964 0.780555 37.322 0.596993 37.2475 0.413543C37.2034 0.304528 37.1594 0.195851 37.1151 0.0870607C37.0809 0.0026334 37.0937 -0.0180243 37.0181 0.0148709C36.3403 0.309581 35.6765 0.649198 35.0274 1.02508C33.4608 1.932 31.9376 3.03977 30.622 4.41463C29.2567 5.84125 28.0441 7.48871 27.2125 9.43548C26.3789 11.3877 25.9407 13.5354 25.9157 15.7297C25.9033 16.8358 26.0225 17.9213 26.1898 19.0062C26.3593 20.1054 26.6672 21.1531 26.9837 22.2008C27.1998 22.9566 27.5394 23.6551 27.7766 24.4018C27.931 24.8877 28.0433 25.3765 28.1398 25.8822C28.2286 26.3479 28.2454 26.8669 28.1997 27.341C28.155 27.8062 28.0238 28.2093 27.8288 28.6104C27.624 29.0311 27.3115 29.3948 27.0129 29.7192C26.697 30.0627 26.3579 30.373 26.005 30.6591C24.5004 31.8779 22.7871 32.7102 21.0737 33.3949C21.0184 33.417 20.963 33.4374 20.9077 33.4591L17.3862 42.2055C17.4345 42.1862 17.483 42.168 17.5313 42.1485C18.3796 41.8084 19.2234 41.4507 20.0578 41.0628C20.4159 40.8964 20.7717 40.7244 21.1272 40.55C21.1564 40.5355 21.2251 40.4997 21.2251 40.4997C21.2251 40.4997 21.2712 40.6361 21.2919 40.6922C21.4726 41.1858 21.653 41.6787 21.8337 42.1723C21.9083 42.3758 21.983 42.5797 22.0574 42.783C22.0702 42.8182 22.0829 42.8536 22.096 42.8886C22.0965 42.8905 21.8415 43.0301 21.7888 43.0589C21.8008 43.0521 21.8121 43.0461 21.8211 43.041C21.8117 43.0463 21.7991 43.0532 21.7797 43.0639C20.38 43.8368 18.9491 44.5288 17.5018 45.1604C16.9811 45.3875 16.4573 45.6048 15.9322 45.8174L11.7351 56.2419C12.3722 55.9651 13.0055 55.6762 13.636 55.3832C15.3157 54.602 16.9755 53.7573 18.6099 52.8473C21.9316 50.9978 25.1686 48.881 28.146 46.3093C30.9916 43.8376 33.6762 40.8958 35.4453 37.2026C36.3334 35.3483 36.9809 33.2976 37.2233 31.1706C37.4713 28.9972 37.3013 26.7707 36.7397 24.6845C36.3695 23.3092 35.8408 21.9785 35.1777 20.7716C34.8833 20.2358 34.5733 19.7198 34.2505 19.2088C34.0671 18.9192 33.8654 18.6461 33.6665 18.3719C33.3678 17.9594 33.1221 17.4895 32.878 17.0299C32.464 16.2508 32.1595 15.361 32.0092 14.4538C31.8235 13.3342 31.8892 12.213 32.1339 11.1149C32.6033 9.00896 33.7077 7.13618 34.9243 5.55553C35.6721 4.58371 36.4923 3.68903 37.3643 2.88147C37.5381 2.72025 37.7144 2.56262 37.8934 2.41005C38.0329 2.29048 38.0181 2.31372 37.9482 2.14127ZM32.0979 33.6091C32.0979 33.6091 32.0792 33.6519 32.0504 33.7105C32.0437 33.7227 32.0414 33.7266 32.0409 33.7271C31.2592 35.1557 30.3392 36.4137 29.2666 37.5379C28.2558 38.5975 27.1557 39.5109 26.0234 40.3694C25.6888 39.6831 25.3541 38.9965 25.0194 38.31C26.4385 37.3313 27.8189 36.2553 29.0166 34.9041C29.6067 34.2381 30.1303 33.5136 30.6039 32.7252L30.7155 32.5494L32.0979 33.6091ZM32.0417 22.3805C32.0304 22.3561 32.0249 22.3441 32.0505 22.3984C32.0741 22.45 32.0705 22.4423 32.0603 22.4208C32.8694 24.1893 33.4249 26.145 33.4179 28.1825C32.9289 28.1713 32.4397 28.1599 31.9506 28.1487C32.0121 26.6365 31.6849 25.1338 31.1827 23.7579C30.9047 22.9962 30.552 22.2798 30.2092 21.5588C29.9129 20.9365 29.6554 20.3019 29.405 19.6515C29.595 19.5482 29.7851 19.4449 29.9752 19.3419C30.0974 19.2756 30.4404 19.0875 30.4404 19.0875L30.4713 19.1655C30.6964 19.6887 30.9277 20.1959 31.1854 20.6968C31.4734 21.2565 31.7731 21.8071 32.0417 22.3805ZM32.3764 6.19053C31.5255 7.37094 30.7637 8.62039 30.2314 10.0549C29.7334 11.3975 29.4505 12.855 29.4701 14.328C29.153 14.3225 28.8356 14.317 28.5183 14.3116C28.5654 12.3501 29.0829 10.4495 29.9151 8.76915C30.3378 7.91511 30.8383 7.12922 31.3782 6.37858C31.5082 6.19771 31.6477 6.02639 31.7841 5.85271C31.8333 5.7904 31.9839 5.58864 31.9839 5.58864C31.9839 5.58864 32.2926 5.9487 32.43 6.10722C32.4318 6.10924 32.4332 6.11115 32.4351 6.11317C32.4146 6.13787 32.3951 6.16381 32.3764 6.19053Z" fill="#003566"/>
<path d="M20.1501 28.586C20.1501 21.89 15.6305 16.4424 10.075 16.4424C4.51963 16.4424 0 21.89 0 28.586C0 30.5481 0.388606 32.4027 1.07714 34.0449L10.075 56.4099L19.0743 34.0414C19.762 32.4001 20.1501 30.5466 20.1501 28.586ZM10.075 35.3058C7.00067 35.3058 4.49949 32.2914 4.49949 28.5859C4.49949 24.8803 7.00075 21.8656 10.075 21.8656C13.1493 21.8656 15.6505 24.8804 15.6505 28.5859C15.6504 32.2914 13.1493 35.3058 10.075 35.3058Z" fill="#003566"/>
</svg>
