<svg width="20" height="20" viewBox="0 0 20 20" fill="none" xmlns="http://www.w3.org/2000/svg">
<path d="M2.6282 10.0605C1.1266 9.5262 0.375798 9.25896 0.152102 8.85383C-0.0417494 8.50265 -0.0508203 8.07864 0.127843 7.71956C0.334019 7.30516 1.07272 7.00615 2.55011 6.40816L16.4757 0.771601C17.9307 0.18264 18.6583 -0.111835 19.1179 0.0391496C19.5169 0.170205 19.8297 0.483088 19.9608 0.882028C20.1118 1.34164 19.8173 2.06918 19.2284 3.52424L13.5918 17.4498C12.9938 18.9272 12.6949 19.666 12.2804 19.8722C11.9213 20.0508 11.4973 20.0417 11.1461 19.8479C10.741 19.6242 10.4738 18.8734 9.93952 17.3718L8.30366 12.7744C8.19974 12.4823 8.14778 12.3362 8.06284 12.2143C7.98768 12.1061 7.89386 12.0123 7.78572 11.9371C7.66377 11.8522 7.51769 11.8002 7.22556 11.6963L2.6282 10.0605Z" fill="black"/>
</svg>
