<svg width="12" height="12" viewBox="0 0 12 12" fill="none" xmlns="http://www.w3.org/2000/svg">
<path d="M6.66424 2.355L6.52124 7.69H5.47624L5.33324 2.355H6.66424ZM6.03724 10.077C5.80991 10.077 5.61924 10 5.46524 9.846C5.31124 9.692 5.23424 9.50133 5.23424 9.274C5.23424 9.04667 5.31124 8.856 5.46524 8.702C5.61924 8.548 5.80991 8.471 6.03724 8.471C6.25724 8.471 6.44424 8.548 6.59824 8.702C6.75224 8.856 6.82924 9.04667 6.82924 9.274C6.82924 9.50133 6.75224 9.692 6.59824 9.846C6.44424 10 6.25724 10.077 6.03724 10.077Z" fill="#9F9F9F"/>
<circle cx="6" cy="6" r="5.625" stroke="#9F9F9F" stroke-width="0.75"/>
</svg>
