eqq<svg width="40" height="40" viewBox="0 0 40 40" fill="none" xmlns="http://www.w3.org/2000/svg">
<path fill-rule="evenodd" clip-rule="evenodd" d="M20 40C31.0456 40 40 31.0456 40 20C40 8.9543 31.0456 0 20 0C8.9543 0 0 8.9543 0 20C0 23.1994 0.75124 26.2232 2.08692 28.905C2.44188 29.6176 2.56002 30.4322 2.35424 31.2012L1.16302 35.6534C0.6459 37.586 2.41402 39.354 4.3467 38.837L8.79878 37.6458C9.56786 37.44 10.3824 37.5582 11.0951 37.913C13.7767 39.2488 16.8006 40 20 40ZM12 22.5C11.1716 22.5 10.5 23.1716 10.5 24C10.5 24.8284 11.1716 25.5 12 25.5H23C23.8284 25.5 24.5 24.8284 24.5 24C24.5 23.1716 23.8284 22.5 23 22.5H12ZM10.5 17C10.5 16.1716 11.1716 15.5 12 15.5H28C28.8284 15.5 29.5 16.1716 29.5 17C29.5 17.8284 28.8284 18.5 28 18.5H12C11.1716 18.5 10.5 17.8284 10.5 17Z" fill="#003566"/>
</svg>
