<svg width="30" height="30" viewBox="0 0 30 30" fill="none" xmlns="http://www.w3.org/2000/svg">
<path fill-rule="evenodd" clip-rule="evenodd" d="M15 27.5C21.9035 27.5 27.5 21.9035 27.5 15C27.5 8.09644 21.9035 2.5 15 2.5C8.09644 2.5 2.5 8.09644 2.5 15C2.5 16.9996 2.96952 18.8895 3.80432 20.5656C4.02617 21.011 4.10001 21.5201 3.9714 22.0007L3.22689 24.7834C2.90369 25.9912 4.00876 27.0962 5.21669 26.7731L7.99924 26.0286C8.47991 25.9 8.98901 25.9739 9.43441 26.1956C11.1105 27.0305 13.0004 27.5 15 27.5ZM10 16.5625C9.48224 16.5625 9.0625 16.9822 9.0625 17.5C9.0625 18.0177 9.48224 18.4375 10 18.4375H16.875C17.3927 18.4375 17.8125 18.0177 17.8125 17.5C17.8125 16.9822 17.3927 16.5625 16.875 16.5625H10ZM9.0625 13.125C9.0625 12.6072 9.48224 12.1875 10 12.1875H20C20.5177 12.1875 20.9375 12.6072 20.9375 13.125C20.9375 13.6427 20.5177 14.0625 20 14.0625H10C9.48224 14.0625 9.0625 13.6427 9.0625 13.125Z" fill="#003566"/>
</svg>
