wwww<svg width="36" height="35" viewBox="0 0 36 35" fill="none" xmlns="http://www.w3.org/2000/svg">
<path d="M18.0012 21.4516C20.3706 21.4516 22.2914 19.5308 22.2914 17.1613C22.2914 14.7919 20.3706 12.8711 18.0012 12.8711C15.6317 12.8711 13.7109 14.7919 13.7109 17.1613C13.7109 19.5308 15.6317 21.4516 18.0012 21.4516Z" fill="#003566"/>
<path fill-rule="evenodd" clip-rule="evenodd" d="M5.30706 15.0158C6.21127 9.62618 10.4651 5.3724 15.8547 4.46819V0H20.1449V4.46819C25.5345 5.3724 29.7883 9.62618 30.6924 15.0158H35.1607V19.306H30.6924C29.7883 24.6956 25.5345 28.9494 20.1449 29.8536V34.3218H15.8547V29.8536C10.4651 28.9494 6.21127 24.6956 5.30706 19.306H0.838867V15.0158H5.30706ZM9.41933 17.1609C9.41933 12.4221 13.2609 8.58046 17.9998 8.58046C22.7386 8.58046 26.5803 12.4221 26.5803 17.1609C26.5803 21.8997 22.7386 25.7414 17.9998 25.7414C13.2609 25.7414 9.41933 21.8997 9.41933 17.1609Z" fill="#003566"/>
</svg>
