<svg width="48" height="48" viewBox="0 0 48 48" fill="none" xmlns="http://www.w3.org/2000/svg">
<rect width="48" height="48" rx="8" fill="#F0F2F5"/>
<g clip-path="url(#clip0_1002_3015)">
<path fill-rule="evenodd" clip-rule="evenodd" d="M34.5 23.25C34.4974 20.7658 32.4842 18.7526 30 18.75H26.2688C25.9959 18.7341 21.2419 18.3994 16.7147 14.6025C16.2684 14.2276 15.6453 14.1453 15.1169 14.3913C14.5885 14.6373 14.2504 15.1671 14.25 15.75V30.75C14.2501 31.333 14.588 31.8632 15.1165 32.1094C15.6449 32.3557 16.2682 32.2734 16.7147 31.8984C20.2556 28.9284 23.9334 28.0772 25.5 27.8391V30.8128C25.4994 31.3148 25.7499 31.7839 26.1675 32.0625L27.1987 32.7497C27.6032 33.0196 28.1134 33.0768 28.5676 32.903C29.0217 32.7292 29.3635 32.346 29.4844 31.875L30.5878 27.7163C32.8269 27.4183 34.4995 25.5088 34.5 23.25ZM15.75 30.7434V15.75C19.7634 19.1166 23.8716 19.9688 25.5 20.1788V26.3175C23.8734 26.5312 19.7663 27.3816 15.75 30.7434ZM28.0312 31.4934V31.5037L27 30.8166V27.75H29.025L28.0312 31.4934ZM30 26.25H27V20.25H30C31.6569 20.25 33 21.5931 33 23.25C33 24.9069 31.6569 26.25 30 26.25Z" fill="#121417"/>
</g>
<defs>
<clipPath id="clip0_1002_3015">
<rect width="24" height="24" fill="white" transform="translate(12 12)"/>
</clipPath>
</defs>
</svg>
