<svg width="40" height="40" viewBox="0 0 40 40" fill="none" xmlns="http://www.w3.org/2000/svg">
<rect width="40" height="40" rx="8" fill="#F2F2F2"/>
<mask id="path-2-inside-1_998_2008" fill="white">
<path d="M29.0625 14.982H28.1805C28.7985 14.295 29.1765 13.3815 29.1765 12.3795C29.1765 12.081 29.1427 11.7908 29.0798 11.5117L29.085 11.538C28.7565 10.2592 27.7305 9.28575 26.4457 9.03825L26.4247 9.0345C26.2703 9.012 26.0918 9 25.9103 9C24.5048 9 23.2755 9.759 22.6117 10.8885L22.602 10.9065L20.0632 14.5583L17.5252 10.9065C16.8495 9.75825 15.6203 9 14.2133 9C14.0325 9 13.8555 9.01275 13.6815 9.03675L13.7017 9.0345C12.396 9.28425 11.3693 10.2585 11.0468 11.5147L11.0415 11.538C10.983 11.7907 10.9492 12.0817 10.9492 12.3802C10.9492 13.3822 11.3273 14.295 11.9483 14.9858L11.9453 14.982H11.0625C9.924 14.9835 9.0015 15.906 9 17.0445V19.2945C9.003 20.2297 9.62925 21.018 10.4857 21.2655L10.5 21.2692V29.0445C10.5015 30.183 11.424 31.1055 12.5625 31.107H27.5625C28.701 31.1055 29.6235 30.183 29.625 29.0445V21.2692C30.495 21.018 31.1213 20.2298 31.125 19.2952V17.0445C31.1235 15.906 30.201 14.9835 29.0625 14.982ZM23.5238 11.5485C24.0007 10.6942 24.8993 10.1258 25.9305 10.1258C26.0332 10.1258 26.1345 10.1317 26.2342 10.1422L26.2222 10.1415C27.0922 10.3095 27.7755 10.9598 27.99 11.7975L27.9938 11.8133C28.0155 11.955 28.0282 12.1185 28.0282 12.2842C28.0282 13.404 27.462 14.391 26.5995 14.9753L26.5882 14.9827H21.1388L23.5238 11.5485ZM12.132 11.8125C12.3495 10.959 13.0328 10.3095 13.8885 10.1437L13.9028 10.1415C13.9883 10.1317 14.088 10.1265 14.1885 10.1265C15.2213 10.1265 16.1205 10.6942 16.593 11.5342L16.6005 11.5477L18.987 14.9812H13.5375C12.6638 14.3902 12.0975 13.4025 12.0975 12.2835C12.0975 12.117 12.1102 11.9542 12.1342 11.7945L12.132 11.8125ZM10.125 19.2945V17.0445C10.1257 16.527 10.545 16.1077 11.0625 16.107H19.5V20.232H11.0625C10.545 20.2312 10.1257 19.812 10.125 19.2945ZM11.625 29.0445V21.357H19.5V29.982H12.5625C12.045 29.9813 11.6258 29.562 11.625 29.0445ZM28.5 29.0445C28.4993 29.562 28.08 29.9813 27.5625 29.982H20.625V21.357H28.5V29.0445ZM30 19.2945C29.9993 19.812 29.58 20.2312 29.0625 20.232H20.625V16.107H29.0625C29.58 16.1077 29.9993 16.527 30 17.0445V19.2945Z"/>
</mask>
<path d="M29.0625 14.982L29.0678 10.982H29.0625V14.982ZM28.1805 14.982L25.2067 12.3069L19.202 18.982L28.1805 18.982V14.982ZM29.0798 11.5117L32.9815 10.6307L25.1574 12.2962L29.0798 11.5117ZM29.085 11.538L25.2108 12.5333L33.0073 10.7535L29.085 11.538ZM26.4457 9.03825L27.2024 5.11047L27.1757 5.10532L27.1489 5.10054L26.4457 9.03825ZM26.4247 9.0345L27.1279 5.09679L27.0647 5.08551L27.0012 5.07625L26.4247 9.0345ZM22.6117 10.8885L19.1631 8.86192L19.1278 8.92201L19.0946 8.98329L22.6117 10.8885ZM22.602 10.9065L25.8863 13.1898L26.0132 13.0072L26.1191 12.8117L22.602 10.9065ZM20.0632 14.5583L16.7786 16.8411L20.0628 21.5664L23.3475 16.8415L20.0632 14.5583ZM17.5252 10.9065L14.0779 12.9353L14.1545 13.0654L14.2406 13.1893L17.5252 10.9065ZM13.6815 9.03675L13.135 5.07427L14.1232 13.0123L13.6815 9.03675ZM13.7017 9.0345L14.4532 12.9633L13.26 5.05896L13.7017 9.0345ZM11.0468 11.5147L7.17238 10.5201L7.15786 10.5767L7.14499 10.6337L11.0468 11.5147ZM11.0415 11.538L14.9385 12.44L14.9409 12.4295L14.9433 12.4191L11.0415 11.538ZM11.9483 14.9858L8.97363 17.66L15.0717 12.4869L11.9483 14.9858ZM11.9453 14.982L15.0687 12.4832L13.8677 10.982H11.9453V14.982ZM11.0625 14.982V10.982L11.0572 10.982L11.0625 14.982ZM9 17.0445L5 17.0392V17.0445H9ZM9 19.2945H4.99998L5.00002 19.3073L9 19.2945ZM10.4857 21.2655L9.37532 25.1083L9.42147 25.1216L9.46794 25.1338L10.4857 21.2655ZM10.5 21.2692H14.5V18.1856L11.5178 17.4009L10.5 21.2692ZM10.5 29.0445H6.5L6.5 29.0498L10.5 29.0445ZM12.5625 31.107L12.5572 35.107H12.5625V31.107ZM27.5625 31.107V35.107L27.5678 35.107L27.5625 31.107ZM29.625 29.0445L33.625 29.0498V29.0445H29.625ZM29.625 21.2692L28.5152 17.4263L25.625 18.261V21.2692H29.625ZM31.125 19.2952L35.125 19.3113L35.125 19.3033V19.2952H31.125ZM31.125 17.0445L35.125 17.0445L35.125 17.0392L31.125 17.0445ZM23.5238 11.5485L26.8092 13.8302L26.9208 13.6694L27.0162 13.4986L23.5238 11.5485ZM26.2342 10.1422L25.9848 14.1345L26.653 6.16423L26.2342 10.1422ZM26.2222 10.1415L26.4717 6.14929L25.4638 14.0689L26.2222 10.1415ZM27.99 11.7975L31.8812 10.8708L31.8734 10.838L31.865 10.8053L27.99 11.7975ZM27.9938 11.8133L31.9475 11.2066L31.9227 11.0453L31.8849 10.8866L27.9938 11.8133ZM26.5995 14.9753L28.8184 18.3034L28.8306 18.2952L28.8428 18.287L26.5995 14.9753ZM26.5882 14.9827V18.9827H27.7994L28.8071 18.3109L26.5882 14.9827ZM21.1388 14.9827L17.8533 12.7011L13.4909 18.9827H21.1388V14.9827ZM12.132 11.8125L8.16288 11.3164L16.0081 12.8003L12.132 11.8125ZM13.8885 10.1437L13.2646 6.1927L13.1961 6.20353L13.1279 6.21673L13.8885 10.1437ZM13.9028 10.1415L13.4495 6.16726L13.364 6.17702L13.2789 6.19045L13.9028 10.1415ZM16.593 11.5342L20.0896 9.59165L20.0845 9.58242L20.0793 9.5732L16.593 11.5342ZM16.6005 11.5477L13.1039 13.4903L13.2014 13.6658L13.316 13.8307L16.6005 11.5477ZM18.987 14.9812V18.9812H26.6386L22.2715 12.6983L18.987 14.9812ZM13.5375 14.9812L11.2964 18.2945L12.3117 18.9812H13.5375V14.9812ZM12.1342 11.7945L16.1034 12.2906L8.17864 11.2002L12.1342 11.7945ZM10.125 19.2945L6.125 19.2945L6.125 19.3003L10.125 19.2945ZM10.125 17.0445L6.125 17.0387V17.0445H10.125ZM11.0625 16.107V12.107L11.0567 12.107L11.0625 16.107ZM19.5 16.107H23.5V12.107H19.5V16.107ZM19.5 20.232V24.232H23.5V20.232H19.5ZM11.0625 20.232L11.0567 24.232H11.0625V20.232ZM11.625 29.0445H7.625L7.625 29.0503L11.625 29.0445ZM11.625 21.357V17.357H7.625V21.357H11.625ZM19.5 21.357H23.5V17.357H19.5V21.357ZM19.5 29.982V33.982H23.5V29.982H19.5ZM12.5625 29.982L12.5567 33.982H12.5625V29.982ZM28.5 29.0445L32.5 29.0503V29.0445H28.5ZM27.5625 29.982V33.982L27.5683 33.982L27.5625 29.982ZM20.625 29.982H16.625V33.982H20.625V29.982ZM20.625 21.357V17.357H16.625V21.357H20.625ZM28.5 21.357H32.5V17.357H28.5V21.357ZM30 19.2945L34 19.3003V19.2945H30ZM29.0625 20.232V24.232L29.0683 24.232L29.0625 20.232ZM20.625 20.232H16.625V24.232H20.625V20.232ZM20.625 16.107V12.107H16.625V16.107H20.625ZM29.0625 16.107L29.0683 12.107H29.0625V16.107ZM30 17.0445H34L34 17.0387L30 17.0445ZM29.0625 14.982V10.982H28.1805V14.982V18.982H29.0625V14.982ZM28.1805 14.982L31.1543 17.6571C32.4089 16.2625 33.1765 14.4047 33.1765 12.3795H29.1765H25.1765C25.1765 12.374 25.1781 12.3596 25.1846 12.343C25.1903 12.3284 25.1979 12.3166 25.2067 12.3069L28.1805 14.982ZM29.1765 12.3795H33.1765C33.1765 11.7783 33.1084 11.1926 32.9815 10.6307L29.0798 11.5117L25.178 12.3928C25.1776 12.3912 25.1772 12.3889 25.1769 12.3863C25.1766 12.3835 25.1765 12.3812 25.1765 12.3795H29.1765ZM29.0798 11.5117L25.1574 12.2962L25.1627 12.3225L29.085 11.538L33.0073 10.7535L33.0021 10.7273L29.0798 11.5117ZM29.085 11.538L32.9592 10.5427C32.2517 7.78854 30.0287 5.65493 27.2024 5.11047L26.4457 9.03825L25.6891 12.966C25.4323 12.9166 25.2613 12.73 25.2108 12.5333L29.085 11.538ZM26.4457 9.03825L27.1489 5.10054L27.1279 5.09679L26.4247 9.0345L25.7216 12.9722L25.7426 12.976L26.4457 9.03825ZM26.4247 9.0345L27.0012 5.07625C26.6287 5.02201 26.2552 5 25.9103 5V9V13C25.9141 13 25.9148 13.0002 25.9098 12.9998C25.9069 12.9996 25.9009 12.9992 25.8915 12.9982C25.8822 12.9973 25.8678 12.9956 25.8483 12.9927L26.4247 9.0345ZM25.9103 9V5C23.0296 5 20.516 6.55981 19.1631 8.86192L22.6117 10.8885L26.0604 12.9151C26.0453 12.9408 26.0261 12.9596 26.0019 12.9737C25.9723 12.991 25.9366 13 25.9103 13V9ZM22.6117 10.8885L19.0946 8.98329L19.0849 9.00129L22.602 10.9065L26.1191 12.8117L26.1289 12.7937L22.6117 10.8885ZM22.602 10.9065L19.3177 8.62321L16.779 12.275L20.0632 14.5583L23.3475 16.8415L25.8863 13.1898L22.602 10.9065ZM20.0632 14.5583L23.3479 12.2754L20.8099 8.62367L17.5252 10.9065L14.2406 13.1893L16.7786 16.8411L20.0632 14.5583ZM17.5252 10.9065L20.9726 8.87773C19.6133 6.56806 17.1056 5 14.2133 5V9V13C14.2041 13 14.188 12.9986 14.1684 12.9932C14.1495 12.988 14.1327 12.9806 14.1191 12.9726C14.093 12.9573 14.082 12.9422 14.0779 12.9353L17.5252 10.9065ZM14.2133 9V5C13.8433 5 13.4837 5.02616 13.135 5.07427L13.6815 9.03675L14.228 12.9992C14.2281 12.9992 14.2265 12.9995 14.2235 12.9997C14.2206 12.9999 14.2171 13 14.2133 13V9ZM13.6815 9.03675L14.1232 13.0123L14.1435 13.01L13.7017 9.0345L13.26 5.05896L13.2398 5.06121L13.6815 9.03675ZM13.7017 9.0345L12.9503 5.10572C10.1275 5.64563 7.88107 7.75954 7.17238 10.5201L11.0468 11.5147L14.9211 12.5094C14.8574 12.7575 14.6645 12.9229 14.4532 12.9633L13.7017 9.0345ZM11.0468 11.5147L7.14499 10.6337L7.13974 10.6569L11.0415 11.538L14.9433 12.4191L14.9485 12.3958L11.0468 11.5147ZM11.0415 11.538L7.14452 10.636C7.01399 11.2 6.94925 11.7944 6.94925 12.3802H10.9492H14.9493C14.9493 12.3804 14.9492 12.3806 14.9492 12.3806C14.9492 12.3807 14.9492 12.3807 14.9492 12.3807C14.9492 12.3808 14.9492 12.3807 14.9492 12.3807C14.9492 12.3807 14.9492 12.3807 14.9492 12.3807C14.9492 12.3808 14.9492 12.381 14.9492 12.3814C14.9492 12.3819 14.9491 12.3827 14.9489 12.384C14.9487 12.3863 14.948 12.3916 14.9466 12.4C14.9452 12.4082 14.9427 12.4216 14.9385 12.44L11.0415 11.538ZM10.9492 12.3802H6.94925C6.94925 14.4089 7.71915 16.2646 8.97363 17.66L11.9483 14.9858L14.9229 12.3115C14.9279 12.3171 14.9348 12.3267 14.9407 12.3419C14.9437 12.3495 14.946 12.3575 14.9475 12.3653C14.9491 12.3733 14.9493 12.3787 14.9493 12.3802H10.9492ZM11.9483 14.9858L15.0717 12.4869L15.0687 12.4832L11.9453 14.982L8.8218 17.4808L8.8248 17.4846L11.9483 14.9858ZM11.9453 14.982V10.982H11.0625V14.982V18.982H11.9453V14.982ZM11.0625 14.982L11.0572 10.982C7.71371 10.9864 5.00441 13.6957 5 17.0392L9 17.0445L13 17.0498C12.9986 18.1163 12.1343 18.9806 11.0678 18.982L11.0625 14.982ZM9 17.0445H5V19.2945H9H13V17.0445H9ZM9 19.2945L5.00002 19.3073C5.00887 22.0654 6.85664 24.3805 9.37532 25.1083L10.4857 21.2655L11.5962 17.4227C12.4019 17.6555 12.9971 18.3941 13 19.2817L9 19.2945ZM10.4857 21.2655L9.46794 25.1338L9.48219 25.1376L10.5 21.2692L11.5178 17.4009L11.5036 17.3972L10.4857 21.2655ZM10.5 21.2692H6.5V29.0445H10.5H14.5V21.2692H10.5ZM10.5 29.0445L6.5 29.0498C6.50441 32.3933 9.21371 35.1026 12.5572 35.107L12.5625 31.107L12.5678 27.107C13.6343 27.1084 14.4986 27.9727 14.5 29.0392L10.5 29.0445ZM12.5625 31.107V35.107H27.5625V31.107V27.107H12.5625V31.107ZM27.5625 31.107L27.5678 35.107C30.9113 35.1026 33.6206 32.3933 33.625 29.0498L29.625 29.0445L25.625 29.0392C25.6264 27.9727 26.4907 27.1084 27.5572 27.107L27.5625 31.107ZM29.625 29.0445H33.625V21.2692H29.625H25.625V29.0445H29.625ZM29.625 21.2692L30.7348 25.1122C33.2517 24.3854 35.1138 22.0824 35.125 19.3113L31.125 19.2952L27.125 19.2792C27.1287 18.3771 27.7383 17.6506 28.5152 17.4263L29.625 21.2692ZM31.125 19.2952H35.125V17.0445H31.125H27.125V19.2952H31.125ZM31.125 17.0445L35.125 17.0392C35.1206 13.6957 32.4113 10.9864 29.0678 10.982L29.0625 14.982L29.0572 18.982C27.9907 18.9806 27.1264 18.1163 27.125 17.0498L31.125 17.0445ZM23.5238 11.5485L27.0162 13.4986C26.8213 13.8476 26.4189 14.1258 25.9305 14.1258V10.1258V6.12575C23.3796 6.12575 21.1802 7.54092 20.0313 9.59838L23.5238 11.5485ZM25.9305 10.1258V14.1258C25.8775 14.1258 25.8381 14.1227 25.8155 14.1203L26.2342 10.1422L26.653 6.16423C26.4309 6.14085 26.189 6.12575 25.9305 6.12575V10.1258ZM26.2342 10.1422L26.4837 6.15004L26.4717 6.14929L26.2222 10.1415L25.9728 14.1337L25.9848 14.1345L26.2342 10.1422ZM26.2222 10.1415L25.4638 14.0689C24.8176 13.9442 24.285 13.4536 24.115 12.7897L27.99 11.7975L31.865 10.8053C31.266 8.4659 29.3669 6.67484 26.9807 6.21405L26.2222 10.1415ZM27.99 11.7975L24.0988 12.7242L24.1026 12.7399L27.9938 11.8133L31.8849 10.8866L31.8812 10.8708L27.99 11.7975ZM27.9938 11.8133L24.04 12.4199C24.034 12.3809 24.0315 12.3536 24.0302 12.3368C24.0289 12.3194 24.0282 12.3026 24.0282 12.2842H28.0282H32.0282C32.0282 11.9251 32.0015 11.5585 31.9475 11.2066L27.9938 11.8133ZM28.0282 12.2842H24.0282C24.0282 12.0214 24.1669 11.7917 24.3562 11.6635L26.5995 14.9753L28.8428 18.287C30.7571 16.9903 32.0282 14.7866 32.0282 12.2842H28.0282ZM26.5995 14.9753L24.3806 11.6471L24.3694 11.6546L26.5882 14.9827L28.8071 18.3109L28.8184 18.3034L26.5995 14.9753ZM26.5882 14.9827V10.9828H21.1388V14.9827V18.9827H26.5882V14.9827ZM21.1388 14.9827L24.4242 17.2644L26.8092 13.8302L23.5238 11.5485L20.2383 9.26685L17.8533 12.7011L21.1388 14.9827ZM12.132 11.8125L16.0081 12.8003C15.8489 13.4249 15.3352 13.9379 14.6491 14.0708L13.8885 10.1437L13.1279 6.21673C10.7303 6.68112 8.85006 8.49308 8.25588 10.8247L12.132 11.8125ZM13.8885 10.1437L14.5124 14.0948L14.5266 14.0926L13.9028 10.1415L13.2789 6.19045L13.2646 6.1927L13.8885 10.1437ZM13.9028 10.1415L14.356 14.1157C14.3076 14.1213 14.272 14.1237 14.2498 14.1248C14.2267 14.1261 14.2067 14.1265 14.1885 14.1265V10.1265V6.1265C13.9604 6.1265 13.7074 6.13785 13.4495 6.16726L13.9028 10.1415ZM14.1885 10.1265V14.1265C13.7166 14.1265 13.313 13.8621 13.1067 13.4953L16.593 11.5342L20.0793 9.5732C18.928 7.52643 16.7259 6.1265 14.1885 6.1265V10.1265ZM16.593 11.5342L13.0964 13.4768L13.1039 13.4903L16.6005 11.5477L20.0971 9.60515L20.0896 9.59165L16.593 11.5342ZM16.6005 11.5477L13.316 13.8307L15.7025 17.2642L18.987 14.9812L22.2715 12.6983L19.885 9.2648L16.6005 11.5477ZM18.987 14.9812V10.9812H13.5375V14.9812V18.9812H18.987V14.9812ZM13.5375 14.9812L15.7786 11.668C15.9519 11.7852 16.0975 12.012 16.0975 12.2835H12.0975H8.0975C8.0975 14.793 9.37559 16.9953 11.2964 18.2945L13.5375 14.9812ZM12.0975 12.2835H16.0975C16.0975 12.3225 16.0944 12.3584 16.0899 12.3888L12.1342 11.7945L8.17864 11.2002C8.12608 11.5501 8.0975 11.9115 8.0975 12.2835H12.0975ZM12.1342 11.7945L8.16513 11.2984L8.16288 11.3164L12.132 11.8125L16.1011 12.3086L16.1034 12.2906L12.1342 11.7945ZM10.125 19.2945H14.125V17.0445H10.125H6.125V19.2945H10.125ZM10.125 17.0445L14.125 17.0503C14.1226 18.7374 12.7554 20.1046 11.0683 20.107L11.0625 16.107L11.0567 12.107C8.33459 12.1109 6.12895 14.3166 6.125 17.0387L10.125 17.0445ZM11.0625 16.107V20.107H19.5V16.107V12.107H11.0625V16.107ZM19.5 16.107H15.5V20.232H19.5H23.5V16.107H19.5ZM19.5 20.232V16.232H11.0625V20.232V24.232H19.5V20.232ZM11.0625 20.232L11.0683 16.232C12.7554 16.2344 14.1226 17.6016 14.125 19.2887L10.125 19.2945L6.125 19.3003C6.12895 22.0224 8.33459 24.2281 11.0567 24.232L11.0625 20.232ZM11.625 29.0445H15.625V21.357H11.625H7.625V29.0445H11.625ZM11.625 21.357V25.357H19.5V21.357V17.357H11.625V21.357ZM19.5 21.357H15.5V29.982H19.5H23.5V21.357H19.5ZM19.5 29.982V25.982H12.5625V29.982V33.982H19.5V29.982ZM12.5625 29.982L12.5683 25.982C14.2554 25.9844 15.6226 27.3516 15.625 29.0387L11.625 29.0445L7.625 29.0503C7.62895 31.7724 9.83459 33.9781 12.5567 33.982L12.5625 29.982ZM28.5 29.0445L24.5 29.0387C24.5024 27.3516 25.8696 25.9844 27.5567 25.982L27.5625 29.982L27.5683 33.982C30.2904 33.9781 32.496 31.7724 32.5 29.0503L28.5 29.0445ZM27.5625 29.982V25.982H20.625V29.982V33.982H27.5625V29.982ZM20.625 29.982H24.625V21.357H20.625H16.625V29.982H20.625ZM20.625 21.357V25.357H28.5V21.357V17.357H20.625V21.357ZM28.5 21.357H24.5V29.0445H28.5H32.5V21.357H28.5ZM30 19.2945L26 19.2887C26.0024 17.6016 27.3696 16.2344 29.0567 16.232L29.0625 20.232L29.0683 24.232C31.7904 24.2281 33.996 22.0224 34 19.3003L30 19.2945ZM29.0625 20.232V16.232H20.625V20.232V24.232H29.0625V20.232ZM20.625 20.232H24.625V16.107H20.625H16.625V20.232H20.625ZM20.625 16.107V20.107H29.0625V16.107V12.107H20.625V16.107ZM29.0625 16.107L29.0567 20.107C27.3696 20.1046 26.0024 18.7374 26 17.0503L30 17.0445L34 17.0387C33.996 14.3166 31.7904 12.1109 29.0683 12.107L29.0625 16.107ZM30 17.0445H26V19.2945H30H34V17.0445H30Z" fill="black" mask="url(#path-2-inside-1_998_2008)"/>
</svg>
