<svg width="48" height="48" viewBox="0 0 48 48" fill="none" xmlns="http://www.w3.org/2000/svg">
<rect width="48" height="48" rx="8" fill="#F2F2F2"/>
<g clip-path="url(#clip0_555_2640)">
<path fill-rule="evenodd" clip-rule="evenodd" d="M34.5 22.5H33.4875L30.8831 16.6406C30.6423 16.099 30.1052 15.75 29.5125 15.75H18.4875C17.8948 15.75 17.3577 16.099 17.1169 16.6406L14.5125 22.5H13.5C13.0858 22.5 12.75 22.8358 12.75 23.25C12.75 23.6642 13.0858 24 13.5 24H14.25V31.5C14.25 32.3284 14.9216 33 15.75 33H18C18.8284 33 19.5 32.3284 19.5 31.5V30H28.5V31.5C28.5 32.3284 29.1716 33 30 33H32.25C33.0784 33 33.75 32.3284 33.75 31.5V24H34.5C34.9142 24 35.25 23.6642 35.25 23.25C35.25 22.8358 34.9142 22.5 34.5 22.5ZM18.4875 17.25H29.5125L31.8459 22.5H16.1541L18.4875 17.25ZM18 31.5H15.75V30H18V31.5ZM30 31.5V30H32.25V31.5H30ZM32.25 28.5H15.75V24H32.25V28.5ZM17.25 26.25C17.25 25.8358 17.5858 25.5 18 25.5H19.5C19.9142 25.5 20.25 25.8358 20.25 26.25C20.25 26.6642 19.9142 27 19.5 27H18C17.5858 27 17.25 26.6642 17.25 26.25ZM27.75 26.25C27.75 25.8358 28.0858 25.5 28.5 25.5H30C30.4142 25.5 30.75 25.8358 30.75 26.25C30.75 26.6642 30.4142 27 30 27H28.5C28.0858 27 27.75 26.6642 27.75 26.25Z" fill="#141414"/>
</g>
<defs>
<clipPath id="clip0_555_2640">
<rect width="24" height="24" fill="white" transform="translate(12 12)"/>
</clipPath>
</defs>
</svg>
