<svg width="40" height="40" viewBox="0 0 40 40" fill="none" xmlns="http://www.w3.org/2000/svg">
<rect width="40" height="40" rx="8" fill="#F2F2F2"/>
<path d="M28.04 25.8799V31.4004H22.8057V28.835C22.8057 28.0026 22.4454 27.2029 21.793 26.6631L21.792 26.6621L21.665 26.5635C21.0601 26.1208 20.3079 25.9438 19.5664 26.0449L19.4082 26.0703C18.0653 26.3211 17.1505 27.546 17.1504 28.9248V31.4004H11.96V25.8799H28.04ZM29 22.1523V23.7197H11V22.1523L20 18.6885L29 22.1523ZM20.4141 10.5459C21.5346 10.671 22.506 11.2993 23.0996 12.2002H16.9014C17.4951 11.2993 18.4663 10.671 19.5869 10.5459L20 10.499L20.4141 10.5459Z" stroke="black" stroke-width="1.2"/>
</svg>
