<svg width="40" height="40" viewBox="0 0 40 40" fill="none" xmlns="http://www.w3.org/2000/svg">
<rect width="40" height="40" rx="8" fill="#F2F2F2"/>
<g clip-path="url(#clip0_652_1810)">
<path fill-rule="evenodd" clip-rule="evenodd" d="M30.5 19.25C30.4974 16.7658 28.4842 14.7526 26 14.75H22.2688C21.9959 14.7341 17.2419 14.3994 12.7147 10.6025C12.2684 10.2276 11.6453 10.1453 11.1169 10.3913C10.5885 10.6373 10.2504 11.1671 10.25 11.75V26.75C10.2501 27.333 10.588 27.8632 11.1165 28.1094C11.6449 28.3557 12.2682 28.2734 12.7147 27.8984C16.2556 24.9284 19.9334 24.0772 21.5 23.8391V26.8128C21.4994 27.3148 21.7499 27.7839 22.1675 28.0625L23.1987 28.7497C23.6032 29.0196 24.1134 29.0768 24.5676 28.903C25.0217 28.7292 25.3635 28.346 25.4844 27.875L26.5878 23.7163C28.8269 23.4183 30.4995 21.5088 30.5 19.25ZM11.75 26.7434V11.75C15.7634 15.1166 19.8716 15.9688 21.5 16.1788V22.3175C19.8734 22.5312 15.7663 23.3816 11.75 26.7434ZM24.0312 27.4934V27.5037L23 26.8166V23.75H25.025L24.0312 27.4934ZM26 22.25H23V16.25H26C27.6569 16.25 29 17.5931 29 19.25C29 20.9069 27.6569 22.25 26 22.25Z" fill="#141414"/>
</g>
<defs>
<clipPath id="clip0_652_1810">
<rect width="24" height="24" fill="white" transform="translate(8 8)"/>
</clipPath>
</defs>
</svg>
