<svg width="40" height="40" viewBox="0 0 40 40" fill="none" xmlns="http://www.w3.org/2000/svg">
<rect width="40" height="40" rx="8" fill="#F2F2F2"/>
<g clip-path="url(#clip0_669_2453)">
<path fill-rule="evenodd" clip-rule="evenodd" d="M28.97 14.2016L20.72 9.6875C20.2719 9.43992 19.7281 9.43992 19.28 9.6875L11.03 14.2034C10.5501 14.466 10.2512 14.9689 10.25 15.5159V24.4822C10.2512 25.0292 10.5501 25.5321 11.03 25.7947L19.28 30.3106C19.7281 30.5582 20.2719 30.5582 20.72 30.3106L28.97 25.7947C29.4499 25.5321 29.7488 25.0292 29.75 24.4822V15.5169C29.7498 14.9689 29.4507 14.4646 28.97 14.2016ZM20 11L27.5319 15.125L24.7409 16.6531L17.2081 12.5281L20 11ZM20 19.25L12.4681 15.125L15.6462 13.385L23.1781 17.51L20 19.25ZM11.75 16.4375L19.25 20.5419V28.5847L11.75 24.4831V16.4375ZM28.25 24.4794L20.75 28.5847V20.5456L23.75 18.9041V22.25C23.75 22.6642 24.0858 23 24.5 23C24.9142 23 25.25 22.6642 25.25 22.25V18.0828L28.25 16.4375V24.4784V24.4794Z" fill="#141414"/>
</g>
<defs>
<clipPath id="clip0_669_2453">
<rect width="24" height="24" fill="white" transform="translate(8 8)"/>
</clipPath>
</defs>
</svg>
