<svg width="40" height="40" viewBox="0 0 40 40" fill="none" xmlns="http://www.w3.org/2000/svg">
<rect width="40" height="40" rx="8" fill="#F2F2F2"/>
<path fill-rule="evenodd" clip-rule="evenodd" d="M19.3103 10.0259C19.6966 9.65805 20.3034 9.65805 20.6897 10.0259L28.6897 17.6449L31.1897 20.0259C31.5896 20.4067 31.605 21.0397 31.2241 21.4397C30.8433 21.8396 30.2103 21.855 29.8103 21.4741L29 20.7024V28.25C29 29.3546 28.1046 30.25 27 30.25H22H18H13C11.8954 30.25 11 29.3546 11 28.25V20.7024L10.1897 21.4741C9.78972 21.855 9.15675 21.8396 8.77586 21.4397C8.39498 21.0397 8.41042 20.4067 8.81035 20.0259L11.3103 17.6449L19.3103 10.0259ZM13 18.7976V28.25H17V23.25C17 21.5931 18.3431 20.25 20 20.25C21.6569 20.25 23 21.5931 23 23.25V28.25H27V18.7976L20 12.1309L13 18.7976ZM21 28.25V23.25C21 22.6977 20.5523 22.25 20 22.25C19.4477 22.25 19 22.6977 19 23.25V28.25H21Z" fill="black"/>
</svg>
