<svg width="34" height="34" viewBox="0 0 34 34" fill="none" xmlns="http://www.w3.org/2000/svg">
<path d="M28.2199 27.3133L27.7665 21.6466C27.3132 16.5466 24.5932 13.1466 20.3999 10.3133L21.5332 3.51331H15.8665L14.9599 4.64664H12.4665L13.1465 8.27331L18.1332 8.95331C18.5865 9.06664 18.8132 9.40664 18.8132 9.74664C18.8132 10.0866 18.4732 10.4266 18.0199 10.4266L13.4865 10.3133C9.2932 13.1466 6.5732 16.5466 6.2332 21.6466L5.77987 27.3133C5.09987 27.54 4.5332 28.1066 4.5332 28.9C4.5332 29.8066 5.32654 30.6 6.2332 30.6H27.7665C28.6732 30.6 29.4665 29.8066 29.4665 28.9C29.4665 28.1066 28.8999 27.54 28.2199 27.3133ZM12.9199 19.9466L15.4132 19.6066L16.5465 17.34C16.7732 17 17.2265 17 17.4532 17.34L18.5865 19.6066L21.0799 19.9466C21.5332 20.06 21.6465 20.5133 21.4199 20.8533L19.6065 22.6666L20.0599 25.16C20.1732 25.6133 19.7199 25.9533 19.2665 25.7266L16.9999 24.5933L14.7332 25.7266C14.3932 25.9533 13.9399 25.6133 13.9399 25.16L14.3932 22.6666L12.5799 20.8533C12.3532 20.5133 12.4665 20.06 12.9199 19.9466Z" fill="#FFC300"/>
</svg>
