<svg width="48" height="48" viewBox="0 0 48 48" fill="none" xmlns="http://www.w3.org/2000/svg">
<rect width="48" height="48" rx="8" fill="#F2F2F2"/>
<g clip-path="url(#clip0_555_2650)">
<path fill-rule="evenodd" clip-rule="evenodd" d="M26.25 23.25H24.75V17.25H25.5C27.1569 17.25 28.5 18.5931 28.5 20.25C28.5 20.6642 28.8358 21 29.25 21C29.6642 21 30 20.6642 30 20.25C29.9974 17.7658 27.9842 15.7526 25.5 15.75H24.75V14.25C24.75 13.8358 24.4142 13.5 24 13.5C23.5858 13.5 23.25 13.8358 23.25 14.25V15.75H22.5C20.0147 15.75 18 17.7647 18 20.25C18 22.7353 20.0147 24.75 22.5 24.75H23.25V30.75H21.75C20.0931 30.75 18.75 29.4069 18.75 27.75C18.75 27.3358 18.4142 27 18 27C17.5858 27 17.25 27.3358 17.25 27.75C17.2526 30.2342 19.2658 32.2474 21.75 32.25H23.25V33.75C23.25 34.1642 23.5858 34.5 24 34.5C24.4142 34.5 24.75 34.1642 24.75 33.75V32.25H26.25C28.7353 32.25 30.75 30.2353 30.75 27.75C30.75 25.2647 28.7353 23.25 26.25 23.25ZM22.5 23.25C20.8431 23.25 19.5 21.9069 19.5 20.25C19.5 18.5931 20.8431 17.25 22.5 17.25H23.25V23.25H22.5ZM26.25 30.75H24.75V24.75H26.25C27.9069 24.75 29.25 26.0931 29.25 27.75C29.25 29.4069 27.9069 30.75 26.25 30.75Z" fill="#141414"/>
</g>
<defs>
<clipPath id="clip0_555_2650">
<rect width="24" height="24" fill="white" transform="translate(12 12)"/>
</clipPath>
</defs>
</svg>
