<svg width="40" height="40" viewBox="0 0 40 40" fill="none" xmlns="http://www.w3.org/2000/svg">
<rect width="40" height="40" rx="8" fill="#F2F2F2"/>
<g clip-path="url(#clip0_669_2481)">
<path fill-rule="evenodd" clip-rule="evenodd" d="M27.5 11.75H12.5C11.6716 11.75 11 12.4216 11 13.25V18.7597C11 27.1606 18.1081 29.9478 19.5312 30.4212C19.8352 30.5246 20.1648 30.5246 20.4688 30.4212C21.8938 29.9478 29 27.1606 29 18.7597V13.25C29 12.4216 28.3284 11.75 27.5 11.75ZM27.5 18.7616C27.5 26.1134 21.2797 28.5697 20 28.9972C18.7316 28.5744 12.5 26.12 12.5 18.7616V13.25H27.5V18.7616Z" fill="#141414"/>
</g>
<defs>
<clipPath id="clip0_669_2481">
<rect width="24" height="24" fill="white" transform="translate(8 8)"/>
</clipPath>
</defs>
</svg>
