<svg width="40" height="40" viewBox="0 0 40 40" fill="none" xmlns="http://www.w3.org/2000/svg">
<rect width="40" height="40" rx="8" fill="#F2F2F2"/>
<g clip-path="url(#clip0_652_1784)">
<path fill-rule="evenodd" clip-rule="evenodd" d="M28.0306 15.7194L22.7806 10.4694C22.6399 10.3288 22.449 10.2498 22.25 10.25H13.25C12.4216 10.25 11.75 10.9216 11.75 11.75V28.25C11.75 29.0784 12.4216 29.75 13.25 29.75H26.75C27.5784 29.75 28.25 29.0784 28.25 28.25V16.25C28.2502 16.051 28.1712 15.8601 28.0306 15.7194ZM23 12.8103L25.6897 15.5H23V12.8103ZM26.75 28.25H13.25V11.75H21.5V16.25C21.5 16.6642 21.8358 17 22.25 17H26.75V28.25ZM23.75 20.75C23.75 21.1642 23.4142 21.5 23 21.5H17C16.5858 21.5 16.25 21.1642 16.25 20.75C16.25 20.3358 16.5858 20 17 20H23C23.4142 20 23.75 20.3358 23.75 20.75ZM23.75 23.75C23.75 24.1642 23.4142 24.5 23 24.5H17C16.5858 24.5 16.25 24.1642 16.25 23.75C16.25 23.3358 16.5858 23 17 23H23C23.4142 23 23.75 23.3358 23.75 23.75Z" fill="#141414"/>
</g>
<defs>
<clipPath id="clip0_652_1784">
<rect width="24" height="24" fill="white" transform="translate(8 8)"/>
</clipPath>
</defs>
</svg>
