<svg width="48" height="48" viewBox="0 0 48 48" fill="none" xmlns="http://www.w3.org/2000/svg">
<rect width="48" height="48" rx="8" fill="#F0F2F5"/>
<g clip-path="url(#clip0_1002_3003)">
<path fill-rule="evenodd" clip-rule="evenodd" d="M34.425 21.1209C34.2393 20.5486 33.7296 20.1427 33.1303 20.0897L27.5625 19.6097L25.38 14.4197C25.1476 13.8628 24.6034 13.5002 24 13.5002C23.3966 13.5002 22.8524 13.8628 22.62 14.4197L20.4441 19.6097L14.8697 20.0925C14.2679 20.1431 13.7551 20.5496 13.5686 21.124C13.3821 21.6985 13.5583 22.3287 14.0156 22.7231L18.2447 26.4187L16.9772 31.9069C16.8402 32.494 17.068 33.1062 17.5556 33.4608C18.0432 33.8155 18.6958 33.8437 19.2122 33.5325L23.9934 30.6262L28.785 33.5325C29.3014 33.8437 29.954 33.8155 30.4416 33.4608C30.9292 33.1062 31.157 32.494 31.02 31.9069L29.7534 26.4131L33.9816 22.7231C34.4389 22.3273 34.6137 21.6956 34.425 21.1209ZM32.9981 21.5897L28.77 25.2797C28.3506 25.6445 28.1674 26.2112 28.2938 26.7525L29.5641 32.25L24.7762 29.3438C24.3001 29.0538 23.7018 29.0538 23.2256 29.3438L18.4444 32.25L19.7063 26.7563C19.8326 26.215 19.6494 25.6482 19.23 25.2834L15 21.5953C14.9997 21.5925 14.9997 21.5897 15 21.5869L20.5725 21.105C21.127 21.0561 21.6088 20.7042 21.8241 20.1909L24 15.0075L26.175 20.1909C26.3903 20.7042 26.8721 21.0561 27.4266 21.105L33 21.5869C33 21.5869 33 21.5925 33 21.5934L32.9981 21.5897Z" fill="#121417"/>
</g>
<defs>
<clipPath id="clip0_1002_3003">
<rect width="24" height="24" fill="white" transform="translate(12 12)"/>
</clipPath>
</defs>
</svg>
