<svg width="25" height="27" viewBox="0 0 25 27" fill="none" xmlns="http://www.w3.org/2000/svg">
<path fill-rule="evenodd" clip-rule="evenodd" d="M23.4 5.87469L13.0875 0.232117C12.5274 -0.0773594 11.8476 -0.0773594 11.2875 0.232117L0.975 5.87704C0.375173 6.20523 0.0015521 6.83392 0 7.51766V18.7255C0.0015521 19.4092 0.375173 20.0379 0.975 20.3661L11.2875 26.011C11.8476 26.3205 12.5274 26.3205 13.0875 26.011L23.4 20.3661C23.9998 20.0379 24.3734 19.4092 24.375 18.7255V7.51884C24.3747 6.83383 24.0009 6.2035 23.4 5.87469ZM12.1875 1.87274L21.6023 7.02899L18.1137 8.93915L8.69766 3.7829L12.1875 1.87274ZM12.1875 12.1852L2.77266 7.02899L6.74531 4.85399L16.1602 10.0102L12.1875 12.1852ZM1.875 8.66962L11.25 13.8001V23.8536L1.875 18.7266V8.66962ZM22.5 18.722L13.125 23.8536V13.8048L16.875 11.7528V15.9352C16.875 16.453 17.2947 16.8727 17.8125 16.8727C18.3303 16.8727 18.75 16.453 18.75 15.9352V10.7263L22.5 8.66962V18.7208V18.722Z" fill="#141414"/>
</svg>
