<svg width="24" height="24" viewBox="0 0 24 24" fill="none" xmlns="http://www.w3.org/2000/svg">
<path fill-rule="evenodd" clip-rule="evenodd" d="M22.309 15.7569L16.7883 13.2831L16.773 13.276C16.1908 13.027 15.5222 13.0887 14.9953 13.4401C14.9648 13.4602 14.9354 13.4822 14.9074 13.5057L12.0551 15.9373C10.248 15.0596 8.38242 13.208 7.50469 11.4245L9.93984 8.52875C9.96328 8.49946 9.98555 8.47016 10.0066 8.43852C10.3504 7.91323 10.4085 7.25076 10.1613 6.67368V6.65961L7.68047 1.12953C7.35011 0.367227 6.5575 -0.086787 5.73281 0.0139098C2.44792 0.446165 -0.00593925 3.24914 0 6.56235C0 15.867 7.57031 23.4373 16.875 23.4373C20.1882 23.4433 22.9912 20.9894 23.4234 17.7045C23.5243 16.8801 23.0708 16.0876 22.309 15.7569ZM16.875 21.5623C8.59448 21.5533 1.88404 14.8429 1.875 6.56235C1.86588 4.19508 3.61494 2.1887 5.96133 1.87485C5.96087 1.87952 5.96087 1.88423 5.96133 1.88891L8.42227 7.39672L6 10.2959C5.97541 10.3242 5.95308 10.3544 5.9332 10.3862C5.57452 10.9366 5.53006 11.6346 5.81602 12.226C6.87773 14.3975 9.06562 16.569 11.2605 17.6295C11.8564 17.9129 12.5574 17.8621 13.1062 17.4959C13.1363 17.4757 13.1653 17.4538 13.193 17.4303L16.0418 14.9998L21.5496 17.4666C21.5496 17.4666 21.559 17.4666 21.5625 17.4666C21.2525 19.8165 19.2452 21.5703 16.875 21.5623Z" fill="#141414"/>
</svg>
