<svg width="29" height="22" viewBox="0 0 29 22" fill="none" xmlns="http://www.w3.org/2000/svg">
<path fill-rule="evenodd" clip-rule="evenodd" d="M27.1875 8.4375H25.9219L22.6664 1.11328C22.3654 0.436286 21.694 9.05991e-06 20.9531 0H7.17188C6.43099 9.05991e-06 5.75958 0.436286 5.45859 1.11328L2.20312 8.4375H0.9375C0.419733 8.4375 0 8.85723 0 9.375C0 9.89277 0.419733 10.3125 0.9375 10.3125H1.875V19.6875C1.875 20.723 2.71447 21.5625 3.75 21.5625H6.5625C7.59803 21.5625 8.4375 20.723 8.4375 19.6875V17.8125H19.6875V19.6875C19.6875 20.723 20.527 21.5625 21.5625 21.5625H24.375C25.4105 21.5625 26.25 20.723 26.25 19.6875V10.3125H27.1875C27.7053 10.3125 28.125 9.89277 28.125 9.375C28.125 8.85723 27.7053 8.4375 27.1875 8.4375ZM8.4375 14.0625H6.5625C6.04473 14.0625 5.625 13.6428 5.625 13.125C5.625 12.6072 6.04473 12.1875 6.5625 12.1875H8.4375C8.95527 12.1875 9.375 12.6072 9.375 13.125C9.375 13.6428 8.95527 14.0625 8.4375 14.0625ZM19.6875 14.0625C19.1697 14.0625 18.75 13.6428 18.75 13.125C18.75 12.6072 19.1697 12.1875 19.6875 12.1875H21.5625C22.0803 12.1875 22.5 12.6072 22.5 13.125C22.5 13.6428 22.0803 14.0625 21.5625 14.0625H19.6875Z" fill="#141414"/>
</svg>
