<svg width="23" height="26" viewBox="0 0 23 26" fill="none" xmlns="http://www.w3.org/2000/svg">
<path fill-rule="evenodd" clip-rule="evenodd" d="M20.625 8.4375H16.875V5.625C16.875 2.5184 14.3566 0 11.25 0C8.1434 0 5.625 2.5184 5.625 5.625V8.4375H1.875C0.839466 8.4375 0 9.27697 0 10.3125V23.4375C0 24.473 0.839466 25.3125 1.875 25.3125H20.625C21.6605 25.3125 22.5 24.473 22.5 23.4375V10.3125C22.5 9.27697 21.6605 8.4375 20.625 8.4375ZM7.5 5.625C7.5 3.55393 9.17893 1.875 11.25 1.875C13.3211 1.875 15 3.55393 15 5.625V8.4375H7.5V5.625ZM20.625 23.4375H1.875V10.3125H20.625V23.4375ZM12.6562 16.875C12.6562 17.6517 12.0267 18.2812 11.25 18.2812C10.4733 18.2812 9.84375 17.6517 9.84375 16.875C9.84375 16.0983 10.4733 15.4688 11.25 15.4688C12.0267 15.4688 12.6562 16.0983 12.6562 16.875Z" fill="#141414"/>
</svg>
