<svg width="30" height="30" viewBox="0 0 30 30" fill="none" xmlns="http://www.w3.org/2000/svg">
<path d="M15 30C23.2843 30 30 23.2843 30 15C30 6.71573 23.2843 0 15 0C6.71573 0 0 6.71573 0 15C0 23.2843 6.71573 30 15 30Z" fill="#FFC300"/>
<path d="M18.2843 18.7167C18.0951 20.6435 15.784 24.3171 15.802 25.0849C15.82 25.8526 16.6059 29.3617 16.6059 29.3617H11.7831L11.4994 25.0381C11.469 24.5727 10.0586 19.6451 12.4854 17.6227L13.7218 17.7531L14.3834 18.5993C15.8271 17.4519 16.5938 16.3445 15.3747 14.2307L14.6179 14.2644C13.9098 13.4615 14.307 13.2224 15.1958 13.0421C16.0024 12.8783 16.598 13.0428 17.0341 13.4141C17.4309 13.8661 18.4324 17.2005 18.2835 18.7164L18.2843 18.7167Z" fill="#FED298"/>
<path d="M25.3184 7.8565L16.7739 17.8723L12.127 13.8459L20.6715 3.82977L25.3184 7.8565Z" fill="#83CF8F"/>
<path d="M20.1091 11.9952C19.4007 12.7985 18.1584 12.8903 17.3341 12.1991C16.5102 11.508 16.4165 10.2967 17.1249 9.49338C17.8338 8.68969 19.076 8.59828 19.8999 9.28941C20.7238 9.98019 20.8176 11.1918 20.1091 11.9952ZM12.5531 13.6181L16.6126 17.0212L24.6804 7.87076L20.6209 4.46802L12.5527 13.6185L12.5531 13.6181Z" fill="#75BD80"/>
<path d="M23.2784 7.12343L21.6581 5.74469C21.2308 6.23676 20.4817 6.29259 19.9849 5.86969L14.043 12.7099C14.5398 13.1328 14.5966 13.8742 14.1693 14.3659L15.7896 15.7447C16.2165 15.253 16.9656 15.1971 17.4627 15.62L23.4047 8.77984C22.9075 8.35694 22.8514 7.61556 23.2787 7.12349L23.2784 7.12343Z" fill="#83CF8F"/>
<path d="M19.9716 9.21178C20.7739 9.93993 20.8649 11.2161 20.1755 12.0622C19.486 12.9091 18.277 13.0049 17.4751 12.2774C16.6731 11.55 16.5821 10.2735 17.2716 9.42697C17.961 8.58047 19.17 8.48436 19.9719 9.21178H19.9716Z" fill="#75BD80"/>
<path d="M19.2237 10.6C19.1781 10.5621 19.1283 10.545 19.0759 10.5486C19.0231 10.5522 18.9482 10.5818 18.8501 10.6375L19.221 10.9458C19.3205 10.7966 19.3215 10.681 19.2234 10.5997L19.2237 10.6ZM18.1823 10.6122C18.2306 10.6524 18.2817 10.6708 18.3355 10.6672C18.3893 10.6639 18.4598 10.6389 18.5466 10.5921L18.1775 10.2854C18.1335 10.3549 18.1124 10.4175 18.1141 10.4735C18.1162 10.5295 18.1387 10.5759 18.1826 10.6122H18.1823ZM19.3504 10.4326C19.4369 10.5048 19.4805 10.5957 19.4812 10.705C19.4815 10.8144 19.4393 10.9317 19.3538 11.0562L19.5752 11.2404L19.4693 11.3593L19.2564 11.1827C19.1951 11.2516 19.1304 11.3138 19.0616 11.3691C18.9931 11.4242 18.9308 11.4647 18.8743 11.4894L18.7255 11.3655C18.7946 11.3342 18.8661 11.2911 18.9404 11.237C19.0146 11.1823 19.0759 11.128 19.125 11.0733L18.7047 10.7241C18.5515 10.816 18.4248 10.8644 18.325 10.8697C18.2252 10.8749 18.1319 10.8417 18.0454 10.7699C17.9619 10.7003 17.9214 10.6121 17.9238 10.5053C17.9259 10.3986 17.9667 10.2889 18.0467 10.1769L17.873 10.0323L17.9786 9.91307L18.1503 10.056C18.2541 9.94567 18.3747 9.85609 18.512 9.78723L18.5947 9.93911C18.4756 9.9997 18.3703 10.0745 18.2797 10.1631L18.6935 10.5073C18.8113 10.4372 18.9067 10.3907 18.9792 10.368C19.0521 10.3452 19.1185 10.3387 19.1777 10.3486C19.237 10.3585 19.2949 10.3865 19.3504 10.4329V10.4326Z" fill="white"/>
<path d="M21.7021 4.52715L16.1748 17.8724L10 15.2605L15.5276 1.91492L21.7021 4.52715Z" fill="#83CF8F"/>
<path d="M17.799 10.6268C17.3486 11.7342 16.1119 12.2562 15.0359 11.7926C13.9607 11.3289 13.4533 10.0554 13.9036 8.94798C14.354 7.84098 15.5907 7.31862 16.6667 7.78261C17.7423 8.24596 18.249 9.51914 17.799 10.6268ZM10.6387 14.951L15.9373 17.2341L21.0642 4.62386L15.7659 2.34045L10.6387 14.9507V14.951Z" fill="#75BD80"/>
<path d="M19.2954 4.52394L17.1111 3.617C16.8305 4.2812 16.06 4.59467 15.3903 4.31671L11.4902 13.5574C12.1603 13.8353 12.476 14.5994 12.1954 15.2636L14.3801 16.1702C14.6606 15.506 15.4307 15.1929 16.1008 15.4708L20.0009 6.22982C19.3308 5.95192 19.0151 5.18779 19.2957 4.52359L19.2954 4.52394Z" fill="#83CF8F"/>
<path d="M16.7138 7.8252C17.8513 8.27908 18.3878 9.52507 17.9115 10.6087C17.4353 11.6923 16.1265 12.2029 14.989 11.7493C13.8512 11.2958 13.3147 10.0495 13.7909 8.96583C14.2672 7.88221 15.5758 7.37132 16.7138 7.8252Z" fill="#3FA344"/>
<path d="M16.18 9.56753C16.1151 9.54228 16.0537 9.54027 15.9971 9.56217C15.9397 9.58407 15.8676 9.64089 15.7792 9.73348L16.3066 9.93943C16.3619 9.74594 16.3193 9.62173 16.1804 9.56753H16.18ZM15.028 9.93071C15.0969 9.95764 15.1605 9.95999 15.2189 9.93848C15.2777 9.91657 15.3462 9.86646 15.4256 9.78706L14.9013 9.58245C14.8779 9.67129 14.8779 9.74566 14.901 9.80522C14.9237 9.86478 14.9663 9.90652 15.0283 9.93076L15.028 9.93071ZM16.259 9.34577C16.3817 9.39388 16.4639 9.47635 16.5054 9.59379C16.5466 9.7109 16.5433 9.85092 16.4949 10.0131L16.8092 10.1359L16.7359 10.2991L16.4336 10.1814C16.391 10.2756 16.3423 10.3641 16.2868 10.4465C16.2309 10.529 16.1768 10.5926 16.1237 10.6383L15.9123 10.5555C15.9768 10.499 16.0403 10.4287 16.1027 10.3459C16.1648 10.2624 16.2128 10.1834 16.2467 10.1083L15.65 9.87545C15.5139 10.0252 15.3913 10.1198 15.2827 10.1588C15.1737 10.1982 15.0576 10.1938 14.9349 10.1457C14.8165 10.0996 14.7386 10.0188 14.7011 9.90372C14.6636 9.78829 14.6683 9.65738 14.7152 9.51032L14.4688 9.41405L14.542 9.25084L14.7859 9.34611C14.8599 9.19296 14.9609 9.05635 15.0875 8.93622L15.2358 9.07149C15.1261 9.17614 15.037 9.29157 14.9688 9.41746L15.5569 9.64698C15.6616 9.53222 15.7499 9.45042 15.8225 9.40131C15.895 9.35253 15.9657 9.32325 16.0353 9.31348C16.1046 9.30403 16.1793 9.31482 16.259 9.34577Z" fill="#7DBF76"/>
<path d="M18.2655 2.55316L18.2987 17.0057L11.5231 17.0212L11.4902 2.56869L18.2655 2.55316Z" fill="#83CF8F"/>
<path d="M17.0709 9.78233C17.0738 10.977 16.101 11.9473 14.8981 11.9501C13.6949 11.9529 12.7178 10.987 12.7146 9.79221C12.7121 8.59787 13.6849 7.62729 14.8878 7.62482C16.091 7.62164 17.0684 8.58794 17.0709 9.78233ZM11.9458 16.5958L17.8715 16.582L17.8401 2.97876L11.9141 2.99222L11.9458 16.5954V16.5958Z" fill="#75BD80"/>
<path d="M16.0826 3.40417L13.6743 3.40984C13.6757 4.1377 13.0783 4.72895 12.3398 4.73072L12.3637 14.8553C13.1022 14.8535 13.7024 15.4426 13.7042 16.1701L16.1125 16.1645C16.1107 15.4366 16.7081 14.8454 17.4462 14.8436L17.4227 4.71903C16.6843 4.72045 16.084 4.13167 16.0822 3.40417H16.0826Z" fill="#83CF8F"/>
<path d="M14.8884 7.65955C16.0632 7.65678 17.0181 8.60766 17.0209 9.7825C17.0237 10.9577 16.0733 11.9127 14.8985 11.9149C13.7234 11.9176 12.7688 10.9671 12.7656 9.79226C12.7632 8.61707 13.7137 7.66232 14.8884 7.65955Z" fill="#75BD80"/>
<path d="M15.1803 9.38871C15.1136 9.38905 15.0591 9.41016 15.0175 9.45209C14.9763 9.49402 14.9351 9.57506 14.8946 9.69561L15.4385 9.69457C15.41 9.49051 15.3238 9.38865 15.1803 9.389V9.38871H15.1803ZM14.3136 10.1626C14.3847 10.1626 14.4413 10.1408 14.4843 10.0989C14.5272 10.0563 14.5674 9.98283 14.6051 9.87856L14.064 9.8796C14.0791 9.97277 14.1082 10.0431 14.1515 10.0909C14.1948 10.139 14.2487 10.163 14.3132 10.1626H14.3136ZM15.1617 9.14899C15.2887 9.14899 15.3931 9.19644 15.4762 9.29243C15.5586 9.38802 15.6111 9.52243 15.6328 9.69428L15.9573 9.69359L15.9576 9.8758L15.6458 9.87614C15.6458 9.9818 15.6383 10.084 15.6218 10.1824C15.6057 10.2815 15.5833 10.3622 15.5548 10.4256H15.3364C15.3704 10.3477 15.3985 10.2576 15.4205 10.1554C15.4422 10.0535 15.4528 9.96069 15.4525 9.87649L14.8371 9.87787C14.7771 10.0708 14.707 10.2063 14.627 10.2839C14.547 10.3621 14.4437 10.4006 14.3166 10.401C14.1944 10.4013 14.0941 10.3539 14.0158 10.2586C13.9372 10.1633 13.8895 10.0372 13.8723 9.87994L13.6175 9.88029L13.6172 9.69842L13.8692 9.69808C13.8733 9.52485 13.9074 9.35788 13.9715 9.19678L14.1549 9.26988C14.0999 9.41016 14.068 9.55291 14.058 9.69773L14.6647 9.69635C14.7111 9.54877 14.7564 9.43794 14.8004 9.36449C14.8443 9.2907 14.8948 9.23698 14.9521 9.20167C15.0095 9.16705 15.0788 9.14933 15.1612 9.14899H15.1617Z" fill="white"/>
<path d="M12.7558 2.76593L18.5106 16.0168L12.3502 18.7234L6.5957 5.47218L12.7558 2.76593Z" fill="#83CF8F"/>
<path d="M14.4313 9.88724C14.9102 10.9717 14.4097 12.2344 13.3137 12.7082C12.2178 13.1817 10.941 12.6869 10.4624 11.6024C9.9838 10.5179 10.4844 9.2552 11.5803 8.78173C12.6762 8.3079 13.953 8.8031 14.4316 9.88724H14.4313ZM12.4734 18.085L17.8725 15.7522L12.4206 3.40417L7.02148 5.73731L12.4737 18.085H12.4734Z" fill="#75BD80"/>
<path d="M11.1084 4.46802L8.96657 5.41124C9.25364 6.0735 8.95361 6.84513 8.29688 7.13423L12.2872 16.3459C12.9444 16.0565 13.7093 16.359 13.996 17.0212L16.1378 16.0776C15.8507 15.4157 16.1508 14.6445 16.8075 14.355L12.8169 5.14329C12.1601 5.4331 11.3952 5.13022 11.1081 4.46802H11.1084Z" fill="#83CF8F"/>
<path d="M11.5531 8.90173C12.6834 8.4315 13.9998 8.92325 14.4936 9.99966C14.9874 11.0761 14.4717 12.3304 13.3411 12.8003C12.2104 13.2705 10.894 12.7791 10.4002 11.7024C9.90635 10.626 10.4228 9.3723 11.5531 8.90173Z" fill="#75BD80"/>
<path d="M12.6618 10.2387C12.5973 10.2648 12.553 10.3039 12.5305 10.3565C12.5077 10.4091 12.5019 10.4954 12.5128 10.6171L13.0394 10.4074C12.9266 10.2393 12.8007 10.1831 12.6618 10.2387ZM12.145 11.2491C12.2135 11.2216 12.2596 11.1812 12.2832 11.128C12.3071 11.0741 12.3154 10.9944 12.3089 10.8881L11.7848 11.0969C11.8385 11.173 11.8962 11.2233 11.9582 11.2485C12.0202 11.2739 12.0822 11.2742 12.145 11.2491ZM12.5435 10.0356C12.6665 9.98663 12.788 9.98828 12.908 10.0405C13.0281 10.0925 13.1344 10.1901 13.2275 10.3323L13.5412 10.2073L13.6178 10.3667L13.316 10.4868C13.3599 10.5787 13.3951 10.6714 13.4205 10.764C13.4463 10.8567 13.4582 10.9364 13.4564 11.0026L13.2453 11.0863C13.2456 11.0049 13.2355 10.9156 13.2141 10.8173C13.1924 10.7194 13.1641 10.634 13.1289 10.5609L12.5334 10.7981C12.5555 10.99 12.5443 11.1359 12.4993 11.2348C12.4539 11.3334 12.3702 11.4075 12.2476 11.4562C12.1293 11.5035 12.0122 11.5002 11.8965 11.4469C11.7807 11.3936 11.6821 11.3017 11.5998 11.1704L11.3535 11.2686L11.2773 11.1095L11.5207 11.0122C11.4529 10.859 11.4163 10.6996 11.4108 10.5341L11.619 10.5276C11.6244 10.6715 11.6524 10.8088 11.7031 10.9394L12.2907 10.7056C12.274 10.5584 12.2715 10.4442 12.2835 10.3628C12.2955 10.2814 12.3222 10.2146 12.3633 10.1623C12.4039 10.1097 12.4641 10.0673 12.5435 10.0356Z" fill="white"/>
<path d="M15.5747 15.2856L14.5794 17.4815L15.5284 19.1026C16.6091 20.949 11.2859 20.2985 11.7272 18.5692C11.7721 18.3929 12.108 17.2803 12.2801 17.1047L13.5111 15.8483L14.0748 14.5366C14.6459 12.8214 16.2671 13.7581 15.5747 15.2856Z" fill="#FED298"/>
<path d="M14.5795 13.8393C14.7041 13.5061 15.3314 13.5569 15.3195 13.9284L15.0691 14.8936C15.0691 14.8936 14.4399 14.5694 14.2559 14.7129L14.5795 13.8393Z" fill="#FFF7DF"/>
<path d="M10 27.8723H18.0851V29.6775C17.089 29.888 16.0559 30 14.9959 30C13.2411 30 11.5589 29.6958 10.0003 29.139V27.8724H10V27.8723Z" fill="#003566"/>
<path d="M10.2129 27.8723H17.8725V26.8085H10.2129V27.8723Z" fill="white"/>
</svg>
