<svg width="30" height="19" viewBox="0 0 30 19" fill="none" xmlns="http://www.w3.org/2000/svg">
<path fill-rule="evenodd" clip-rule="evenodd" d="M13.4863 12.8841C16.0662 11.1666 17.2172 7.96246 16.32 4.99588C15.4229 2.0293 12.6891 1.62125e-05 9.58984 1.62125e-05C6.49057 1.62125e-05 3.75681 2.0293 2.85964 4.99588C1.96247 7.96246 3.11351 11.1666 5.69336 12.8841C3.4205 13.7218 1.47942 15.272 0.159766 17.3033C-0.0289916 17.5838 -0.0520512 17.9443 0.0994186 18.2466C0.250888 18.5489 0.553415 18.7462 0.891133 18.763C1.22885 18.7797 1.54942 18.6133 1.73008 18.3275C3.45955 15.6675 6.41705 14.0627 9.58984 14.0627C12.7626 14.0627 15.7201 15.6675 17.4496 18.3275C17.7357 18.7527 18.3103 18.8694 18.7396 18.5894C19.1689 18.3094 19.2938 17.7365 19.0199 17.3033C17.7003 15.272 15.7592 13.7218 13.4863 12.8841ZM4.43359 7.03412C4.43359 4.1864 6.74213 1.87787 9.58984 1.87787C12.4376 1.87787 14.7461 4.1864 14.7461 7.03412C14.7461 9.88184 12.4376 12.1904 9.58984 12.1904C6.74346 12.1871 4.43682 9.8805 4.43359 7.03412ZM29.0594 18.6005C28.6257 18.8833 28.045 18.7611 27.7621 18.3275C26.0346 15.6657 23.0756 14.0611 19.9023 14.0654C19.3846 14.0654 18.9648 13.6456 18.9648 13.1279C18.9648 12.6101 19.3846 12.1904 19.9023 12.1904C21.979 12.1884 23.8518 10.9409 24.6537 9.02534C25.4557 7.1098 25.0303 4.90011 23.5744 3.41926C22.1185 1.93841 19.9164 1.47543 17.9875 2.24467C17.6744 2.38001 17.3125 2.33463 17.0425 2.12617C16.7726 1.91772 16.6371 1.57907 16.6888 1.24193C16.7406 0.904788 16.9713 0.622345 17.2914 0.504431C20.6347 -0.828923 24.4451 0.577877 26.1198 3.7639C27.7946 6.94993 26.7928 10.8862 23.7988 12.8841C26.0717 13.7218 28.0128 15.272 29.3324 17.3033C29.6152 17.7369 29.493 18.3177 29.0594 18.6005Z" fill="#757575"/>
</svg>
