<svg width="22" height="20" viewBox="0 0 22 20" fill="none" xmlns="http://www.w3.org/2000/svg">
<path d="M20.7011 10.8179C20.7714 10.5874 20.8315 10.3538 20.8811 10.1179C20.8842 10.1 20.8853 10.0832 20.8895 10.0653C20.9105 9.96211 20.92 9.85579 20.9368 9.75158C20.9632 9.58632 20.9947 9.42211 21.0105 9.2558C21.1358 8.01511 20.9833 6.7621 20.5639 5.58773C20.1446 4.41335 19.4691 3.34708 18.5863 2.46632C17.805 1.68338 16.8768 1.06247 15.8549 0.639232C14.8331 0.215992 13.7376 -0.00124106 12.6316 5.33316e-06V8.42106H4.75474L3.85158 6.3158H0V8.42106H2.46421L4.38842 12.9116C3.71383 13.1896 3.13683 13.6614 2.73042 14.2673C2.32401 14.8733 2.10645 15.5862 2.10526 16.3158C2.10526 18.3474 3.75789 20 5.78947 20C7.64105 20 9.1621 18.6221 9.42 16.8421H11.6326C11.8905 18.6221 13.4116 20 15.2632 20C17.2947 20 18.9474 18.3474 18.9474 16.3158C18.9474 15.6526 18.7568 15.039 18.4495 14.5C18.4937 14.4568 18.5432 14.419 18.5874 14.3747C18.9663 13.9947 19.3116 13.5758 19.6158 13.1284C19.9189 12.6758 20.18 12.1958 20.3905 11.6979C20.4074 11.659 20.4179 11.6179 20.4337 11.579L20.4505 11.5347C20.5432 11.3032 20.6274 11.0705 20.6979 10.8316L20.7011 10.8179ZM5.78947 17.8947C4.91895 17.8947 4.21053 17.1863 4.21053 16.3158C4.21053 15.4453 4.91895 14.7368 5.78947 14.7368C6.66 14.7368 7.36842 15.4453 7.36842 16.3158C7.36842 17.1863 6.66 17.8947 5.78947 17.8947ZM15.2632 17.8947C14.3926 17.8947 13.6842 17.1863 13.6842 16.3158C13.6842 15.4453 14.3926 14.7368 15.2632 14.7368C16.1337 14.7368 16.8421 15.4453 16.8421 16.3158C16.8421 17.1863 16.1337 17.8947 15.2632 17.8947Z" fill="black"/>
</svg>
