<svg width="25" height="25" viewBox="0 0 25 25" fill="none" xmlns="http://www.w3.org/2000/svg">
<path fill-rule="evenodd" clip-rule="evenodd" d="M0.00714139 6.62918V22.8168C0.00714139 22.9512 -0.0101631 23.2775 0.0244458 23.3926C0.0368062 23.4286 0.0491665 23.4406 0.0541106 23.4838C0.0590547 23.5294 0.0541106 23.5534 0.068943 23.587C0.0887195 23.6349 0.0911916 23.611 0.103552 23.6709C0.115912 23.7285 0.110968 23.7117 0.135689 23.7597C0.167826 23.8197 0.133217 23.7861 0.190074 23.8845L0.34087 24.1412C0.42492 24.2443 0.385367 24.218 0.506498 24.3475L0.541107 24.3859C0.543579 24.3883 0.546051 24.3907 0.546051 24.3931L0.630102 24.4771C0.632574 24.4795 0.635046 24.4795 0.637518 24.4819L0.909445 24.693C0.931693 24.7098 0.897084 24.6882 0.929221 24.7074C0.944054 24.717 0.956414 24.7194 0.978662 24.7314L1.09238 24.7986C1.11463 24.8106 1.10968 24.8058 1.1344 24.8178C1.17396 24.8346 1.14923 24.8226 1.17396 24.837C1.26048 24.8897 1.21845 24.8442 1.3025 24.8897C1.36183 24.9209 1.3297 24.8993 1.39644 24.9185C1.44094 24.9305 1.43352 24.9401 1.48049 24.9545C1.5151 24.9665 1.54724 24.9569 1.58926 24.9665C1.66837 24.9857 1.58926 24.9929 1.66837 25.0001H7.73234L23.3385 24.9977C23.3978 24.9833 23.3335 25.0001 23.378 24.9785C23.425 24.9569 23.425 24.9689 23.4819 24.9593C23.5659 24.9449 23.5214 24.9329 23.6203 24.9137C23.6821 24.9017 23.7785 24.8562 23.8354 24.8274C23.8799 24.8058 23.8601 24.825 23.9169 24.789C23.9392 24.7746 23.9244 24.7818 23.954 24.7674L24.0776 24.6978C24.1642 24.633 24.1963 24.633 24.2976 24.5323C24.3051 24.5251 24.31 24.5203 24.3149 24.5155L24.4385 24.3979C24.441 24.3955 24.441 24.3931 24.4435 24.3907L24.6808 24.098C24.6907 24.0812 24.6907 24.0788 24.7031 24.0596C24.7649 23.9636 24.8044 23.8869 24.844 23.7813C24.8588 23.7429 24.8736 23.7453 24.886 23.6925C24.9132 23.5582 24.9255 23.6325 24.9379 23.5054C24.9453 23.4238 24.9775 23.3974 24.9849 23.3134C24.9972 23.2055 24.9873 22.0491 24.9873 21.8811C24.9873 16.7971 24.9873 11.7132 24.9873 6.62918C24.9602 6.62199 24.9602 6.61719 24.9255 6.61719H0.0639989C0.0442223 6.61719 0.0170296 6.62439 0.00219727 6.62918H0.00714139ZM17.7121 10.1369C17.7121 10.288 17.7318 10.3936 17.8011 10.5111L17.8109 10.5255C17.853 10.6071 17.937 10.7031 17.9889 10.7439C17.9914 10.7463 17.9939 10.7487 17.9964 10.7487C17.9988 10.7511 18.0013 10.7511 18.0038 10.7535L18.115 10.835C18.2263 10.883 18.1471 10.8686 18.2386 10.8926C18.2881 10.9046 18.2683 10.9022 18.3078 10.9214C18.3746 10.9526 18.5896 10.9382 18.6935 10.9382C18.7404 10.9382 18.8665 10.8878 18.9061 10.8614L18.9209 10.8518C18.9827 10.8182 18.9555 10.8542 19.0544 10.7703L19.2324 10.5879C19.262 10.5495 19.2423 10.5759 19.262 10.5327L19.3486 10.3432C19.3733 10.2472 19.3659 10.0649 19.351 9.96652L19.2868 9.80337C19.2744 9.78177 19.2794 9.79617 19.2695 9.77458C19.225 9.68821 19.2324 9.7026 19.1706 9.63542L19.1607 9.62343C19.1582 9.62103 19.1582 9.61863 19.1557 9.61623C19.1533 9.61383 19.1508 9.61143 19.1508 9.60903L19.0964 9.55385C19.0939 9.55145 19.0865 9.54665 19.0841 9.54425C19.0816 9.54185 19.0791 9.53945 19.0766 9.53945C19.0742 9.53705 19.0717 9.53465 19.0692 9.53465C19.0668 9.53225 19.0593 9.52506 19.0569 9.52266C18.9876 9.46508 18.9605 9.45788 18.8863 9.41709L18.7454 9.36431C18.6885 9.34511 18.3993 9.34751 18.3499 9.36191C18.2955 9.3763 18.3251 9.3763 18.2831 9.3907C18.246 9.40509 18.2411 9.3955 18.2065 9.41229C18.1719 9.42909 18.1916 9.42909 18.1471 9.44828C18.1422 9.45068 18.1249 9.45548 18.12 9.45788L17.8184 9.76978L17.764 9.89454C17.7516 9.92573 17.7417 9.92333 17.7343 9.95932C17.7244 10.0049 17.7195 10.0841 17.7195 10.1345L17.7121 10.1369ZM21.032 10.8014C21.0246 10.8206 21.0172 10.8398 21.0147 10.8662C20.9999 10.9646 20.9875 10.9454 20.9678 11.0102C20.9579 11.0462 20.9678 11.0534 20.9529 11.0918C20.9381 11.1325 20.9282 11.1133 20.9159 11.1637C20.9035 11.2141 20.9208 11.1925 20.8961 11.2381L20.8368 11.3701C20.812 11.4133 20.8244 11.3989 20.8071 11.4468C20.7898 11.4972 20.7898 11.4732 20.7725 11.5092L20.7255 11.6052C20.7131 11.6244 20.7206 11.6148 20.7107 11.6388L20.5376 11.9699C20.5228 11.9915 20.5376 11.9603 20.5179 11.9987C20.5055 12.0203 20.5129 12.0107 20.503 12.0323L20.1124 12.6249C20.1025 12.6393 20.105 12.6393 20.0927 12.6537L19.3189 13.6086C19.3164 13.6109 19.314 13.6133 19.314 13.6157C19.2967 13.6325 19.2868 13.6469 19.2695 13.6661L19.1557 13.7933C19.1533 13.7957 19.1508 13.7981 19.1508 13.8005L19.0074 13.9468C18.9901 13.9636 18.9975 13.9588 18.9778 13.9756C18.9654 13.9852 18.9333 14.0116 18.9234 14.0188C18.8467 14.0716 18.7825 14.0884 18.6762 14.0884H17.272C17.1336 14.0884 17.0421 14.05 16.9531 13.9588C16.9507 13.9564 16.9482 13.954 16.9482 13.954C16.9457 13.9516 16.9433 13.9492 16.9433 13.9468C16.9284 13.93 16.9334 13.9396 16.921 13.9205C16.9136 13.9109 16.9111 13.9037 16.9012 13.8917C16.8716 13.8485 16.8345 13.7381 16.8345 13.6853C16.8345 13.6349 16.8518 13.5438 16.8814 13.4934L16.9012 13.4646C16.9037 13.4622 16.9037 13.4598 16.9062 13.4574L16.9161 13.443C16.9309 13.419 16.921 13.4358 16.9334 13.4238L17.0001 13.359C17.0421 13.3206 17.0026 13.3494 17.052 13.3254C17.0817 13.311 17.0866 13.3038 17.1064 13.2967C17.2102 13.2487 17.6033 13.2727 17.7664 13.2727C17.6923 13.2103 17.5959 13.0687 17.5539 13.0183C17.5514 13.0159 17.5489 13.0135 17.5489 13.0111C17.5464 13.0087 17.544 13.0063 17.544 13.0039L16.9976 12.2314C16.9358 12.145 16.7578 11.8475 16.7208 11.7539L16.6713 11.6604C16.6614 11.6412 16.6639 11.6364 16.654 11.6172C16.6392 11.5884 16.6417 11.6004 16.6268 11.574C16.6169 11.5548 16.6145 11.5404 16.607 11.5212C16.5972 11.4948 16.5996 11.5068 16.5947 11.4972L16.5428 11.3821C16.5181 11.3389 16.5378 11.3941 16.5205 11.3341C16.5032 11.2765 16.476 11.2549 16.4637 11.1877C16.4488 11.1109 16.4488 11.1421 16.4266 11.0918C16.4068 11.051 16.4192 11.027 16.3994 10.9886C16.3425 10.8686 16.387 10.883 16.3327 10.7799C16.3104 10.7367 16.3178 10.7127 16.3129 10.6551C16.3055 10.5615 16.2659 10.5231 16.2659 10.4296C16.2659 10.2832 16.2461 9.91853 16.2807 9.79377C16.2882 9.76498 16.3055 9.72899 16.3104 9.693C16.3178 9.64742 16.3129 9.60903 16.3252 9.57784C16.3425 9.52506 16.3524 9.55145 16.3623 9.48427C16.3673 9.45548 16.3598 9.46508 16.3697 9.43149C16.3846 9.3811 16.3771 9.41949 16.3969 9.3859C16.4167 9.34991 16.4142 9.31393 16.4513 9.24915L16.4711 9.19636C16.4884 9.14598 16.4736 9.18437 16.4909 9.15557L16.7628 8.73091C16.7727 8.71891 16.7702 8.72131 16.7776 8.70932L16.8765 8.59655L14.0608 8.66373C11.9497 8.48139 12.3922 9.71939 10.1401 9.76498C8.62723 9.75058 7.1168 9.73379 5.60389 9.7194C4.28134 9.72179 3.80918 10.48 3.99705 11.8283C4.01188 14.3499 4.02919 16.8715 4.04402 19.3955C3.96244 20.943 4.75598 21.3029 5.93268 21.1373C7.49255 21.1229 9.04995 21.1062 10.6098 21.0918C13.5392 21.3677 12.4985 19.8082 16.1374 19.9905C17.146 19.9761 18.1521 19.9593 19.1607 19.9449C20.6958 20.1657 20.9381 19.3451 20.9554 18.3398L21.037 10.8086L21.032 10.8014Z" fill="#9F9F9F"/>
<path fill-rule="evenodd" clip-rule="evenodd" d="M3.62127 1.262V2.32965H1.78947C1.73262 2.32965 1.69554 2.33685 1.65351 2.35125L1.09482 2.53359L0.899532 2.65355C0.892116 2.65835 0.877283 2.66795 0.869867 2.67274L0.474337 3.02303L0.15544 3.53167C0.135664 3.59645 0.118359 3.59405 0.108471 3.65163C0.0961109 3.70441 0.0788064 3.72121 0.063974 3.77399C0.0466696 3.83397 0.0639741 3.85317 0.0392534 3.91555C-0.0225482 4.0739 0.00711658 4.34501 0.00711658 4.54894C0.00711658 4.988 0.00711658 5.42706 0.00711658 5.86372C0.0343093 5.87092 0.0343093 5.87572 0.0689182 5.87572H24.9305C24.9626 5.87572 24.9651 5.87092 24.9923 5.86372C24.9923 5.42466 24.9923 4.9856 24.9923 4.54894C24.9923 4.3594 25.0219 4.0691 24.9651 3.92514C24.9379 3.85557 24.9552 3.85557 24.9404 3.78359C24.928 3.72841 24.9057 3.71881 24.8934 3.66123C24.8761 3.56766 24.8291 3.51008 24.792 3.4261L24.6412 3.16939C24.6215 3.1358 24.6289 3.14779 24.6042 3.1214L24.2259 2.74232C24.2037 2.72553 24.1987 2.72553 24.1765 2.70873L23.9515 2.57198C23.9169 2.55518 23.9466 2.56958 23.9219 2.55518C23.8897 2.53599 23.8971 2.53839 23.865 2.52879C23.7735 2.4976 23.729 2.44962 23.6227 2.43042C23.5486 2.41843 23.5609 2.39443 23.4991 2.38484C23.4225 2.37284 23.4225 2.38724 23.3533 2.36084L21.3781 2.33445C21.3781 2.15211 21.4004 1.05326 21.3583 0.918906C21.3435 0.870921 21.3435 0.897313 21.3287 0.851727C21.3188 0.822937 21.3213 0.798944 21.3138 0.772553C21.2965 0.710173 21.299 0.758157 21.2768 0.712572C21.2619 0.683781 21.2743 0.702975 21.2644 0.676583L21.1433 0.475048C21.1408 0.472649 21.1383 0.47025 21.1383 0.46785C21.1161 0.441459 21.1161 0.43666 21.0988 0.412668L20.8713 0.208733C20.8689 0.206334 20.8664 0.203935 20.8639 0.203935L20.8516 0.191939C20.8021 0.153551 20.7255 0.107965 20.6662 0.0887716C20.6019 0.0671785 20.5895 0.0479846 20.5228 0.0383877C20.4461 0.0263916 20.4981 0.03119 20.4536 0.00959693C20.4461 0.00479846 20.4189 0.00239923 20.3794 0H19.9542C19.8949 0.00239923 19.8528 0.0071977 19.843 0.0143954L19.8207 0.0287908C19.8182 0.0287908 19.8158 0.03119 19.8133 0.03119C19.7836 0.0407869 19.7614 0.0335893 19.7292 0.0455854L19.665 0.0791747C19.6254 0.0935701 19.6427 0.0767754 19.6007 0.100768L19.4227 0.213532C19.4202 0.215931 19.4178 0.21833 19.4153 0.21833L19.393 0.232726C19.3708 0.247121 19.3856 0.237524 19.3658 0.254319C19.3485 0.268714 19.3312 0.285509 19.3164 0.299904C19.3139 0.302303 19.3115 0.304702 19.309 0.304702L19.1483 0.479846C19.1458 0.482246 19.1434 0.484645 19.1434 0.487044L19.1335 0.50144C19.1211 0.518234 19.131 0.508637 19.1137 0.53023C19.0717 0.587812 19.047 0.650192 19.0148 0.71737L18.953 0.894914C18.8986 1.00288 18.9233 1.92898 18.9233 2.1809C18.9233 2.24088 18.9431 2.33445 18.8863 2.33445H6.11311C6.05626 2.33445 6.07603 2.25048 6.07603 2.1929C6.07851 1.93858 6.10075 1.00288 6.04637 0.894914L6.00682 0.755758C5.99198 0.71977 5.99198 0.736564 5.97468 0.690979C5.96974 0.678983 5.96726 0.666987 5.96232 0.65739L5.88074 0.523033C5.87827 0.520633 5.87827 0.518234 5.8758 0.515835L5.64095 0.259117C5.61129 0.232726 5.61376 0.239923 5.58657 0.21833L5.40858 0.105566C5.36902 0.0815739 5.34925 0.0887716 5.31217 0.0695777C5.25778 0.0407869 5.21328 0.0455854 5.16631 0.0215931C5.14901 0.0119962 5.11687 0.0071977 5.07732 0.00239923H4.57796C4.57055 0.00239923 4.56313 0.00479846 4.55571 0.0071977C4.55324 0.0071977 4.55077 0.00959693 4.5483 0.0119962L4.51122 0.0335893C4.50627 0.0359885 4.44694 0.0359885 4.41233 0.0551823L4.31098 0.0983685C4.28626 0.110365 4.30109 0.105566 4.28132 0.117562L4.18985 0.170346C4.03905 0.273512 3.9822 0.319098 3.86354 0.47025C3.86106 0.472649 3.85859 0.475048 3.85859 0.477447L3.75477 0.635797C3.7251 0.681382 3.74735 0.664587 3.72757 0.705374C3.71274 0.738964 3.70532 0.722169 3.69049 0.765355L3.64599 0.911708C3.63116 0.954894 3.62375 1.19482 3.62375 1.26919L3.62127 1.262Z" fill="#9F9F9F"/>
<path fill-rule="evenodd" clip-rule="evenodd" d="M5.63599 15.5661C5.63599 16.0076 5.66318 15.8756 5.69532 16.1707C5.70273 16.2355 5.7324 16.2595 5.74229 16.3267C5.75712 16.4251 5.76948 16.4059 5.78925 16.4706C5.79914 16.5066 5.78925 16.5138 5.80409 16.5522C5.81892 16.5906 5.82881 16.5738 5.84117 16.6242C5.85353 16.6746 5.83622 16.653 5.86094 16.6986L5.92027 16.8305C5.94499 16.8737 5.93263 16.8593 5.94994 16.9073C5.96724 16.9577 5.96724 16.9337 5.98455 16.9697L6.03152 17.0657C6.04388 17.0848 6.03646 17.0752 6.04635 17.0992L6.21939 17.4303C6.23423 17.4519 6.21939 17.4207 6.23917 17.4591C6.25153 17.4807 6.24411 17.4711 6.254 17.4927L6.64459 18.0853C6.65448 18.0997 6.652 18.0997 6.66436 18.1141L7.43812 19.069C7.44059 19.0714 7.44307 19.0738 7.44307 19.0762C7.46037 19.093 7.47026 19.1074 7.48756 19.1266L7.60128 19.2538C7.60375 19.2561 7.60622 19.2585 7.60622 19.2609L7.7496 19.4073C7.76691 19.4241 7.75949 19.4193 7.77927 19.4385C7.79163 19.4481 7.82376 19.4745 7.83365 19.4817C7.91029 19.5345 7.97456 19.5513 8.08086 19.5513H9.48499C9.62343 19.5513 9.71489 19.5105 9.80389 19.4217C9.80636 19.4193 9.80883 19.4169 9.80883 19.4169C9.8113 19.4145 9.81377 19.4121 9.81377 19.4097C9.82861 19.3929 9.82366 19.4025 9.83602 19.3833C9.84344 19.3737 9.84591 19.3665 9.8558 19.3545C9.88546 19.3113 9.92254 19.201 9.92254 19.1482C9.92254 19.0978 9.90524 19.0066 9.87558 18.9562L9.8558 18.9275C9.85333 18.9251 9.85333 18.9227 9.85085 18.9203L9.84097 18.9059C9.82614 18.8819 9.83602 18.8987 9.82366 18.8867L9.75692 18.8219C9.71489 18.7835 9.75444 18.8123 9.705 18.7883C9.67534 18.7739 9.67039 18.7667 9.65062 18.7595C9.54679 18.7115 9.15373 18.7355 8.99058 18.7355C9.06474 18.6731 9.16115 18.5316 9.20317 18.4812C9.20565 18.4788 9.20812 18.4764 9.20812 18.474C9.21059 18.4716 9.21306 18.4692 9.21306 18.4668L9.75939 17.6942C9.82119 17.6079 9.99918 17.3104 10.0363 17.2168L10.0857 17.1208C10.0956 17.1016 10.0931 17.0968 10.103 17.0776C10.1178 17.0489 10.1154 17.0609 10.1302 17.0345C10.1401 17.0153 10.1426 17.0009 10.15 16.9817C10.1599 16.9553 10.1574 16.9673 10.1623 16.9577L10.2142 16.8425C10.239 16.7993 10.2192 16.8545 10.2365 16.7945C10.2538 16.737 10.281 16.7154 10.2934 16.6482C10.3082 16.5714 10.3082 16.6026 10.3304 16.5522C10.3502 16.509 10.3379 16.4874 10.3576 16.449C10.4145 16.3291 10.37 16.3435 10.4244 16.2403C10.4466 16.1971 10.4392 16.1731 10.4442 16.1156C10.4516 16.022 10.4911 15.9836 10.4911 15.89C10.4911 15.7437 10.5109 15.379 10.4763 15.2542C10.4689 15.2254 10.4516 15.1895 10.4466 15.1535C10.4392 15.1079 10.4442 15.0695 10.4318 15.0383C10.4145 14.9855 10.4046 15.0119 10.3947 14.9447C10.3898 14.9159 10.3972 14.9255 10.3873 14.8919C10.3725 14.8416 10.3799 14.88 10.3601 14.8464C10.3403 14.8104 10.3428 14.7744 10.3057 14.7072L10.2859 14.6544C10.2686 14.604 10.2835 14.6424 10.2662 14.6136L9.99424 14.189C9.98435 14.177 9.98682 14.1794 9.9794 14.1674L9.86074 14.033C9.85827 14.0306 9.8558 14.0282 9.8558 14.0258C9.75692 13.9227 9.64815 13.8315 9.5369 13.7427C9.5196 13.7307 9.53196 13.7379 9.51713 13.7259C9.50971 13.7187 9.50477 13.7163 9.49735 13.7115L8.98316 13.4284C8.94855 13.4116 8.909 13.414 8.87933 13.3996C8.8472 13.3852 8.82495 13.3684 8.78292 13.3636C8.68651 13.3516 8.71618 13.33 8.56538 13.3133C8.48133 13.3037 8.422 13.2677 8.33054 13.2677C8.18221 13.2677 7.81635 13.2485 7.6878 13.2821C7.65319 13.2917 7.62105 13.3085 7.57408 13.3133C7.42823 13.3276 7.46037 13.3492 7.34665 13.3636L6.93876 13.5244C6.93629 13.5268 6.93382 13.5268 6.93135 13.5292L6.9091 13.5436C6.7855 13.6228 6.73358 13.6371 6.5902 13.7427L6.32816 13.961C6.254 14.0282 6.16995 14.1386 6.10568 14.2178C6.09332 14.2346 6.08837 14.2442 6.07601 14.2609L5.79914 14.7504L5.73487 14.9591C5.72004 15.0239 5.70768 14.9927 5.69779 15.0647C5.69284 15.1031 5.69037 15.1415 5.68296 15.1799C5.67554 15.211 5.65576 15.247 5.65082 15.2902C5.64093 15.3838 5.63846 15.463 5.63846 15.5613L5.63599 15.5661ZM7.24777 15.5421C7.24777 15.6333 7.23294 15.7605 7.27002 15.8396C7.28238 15.8708 7.27744 15.8516 7.28238 15.8612L7.2898 15.878C7.30463 15.9116 7.30216 15.9332 7.32193 15.9668L7.61858 16.2955L7.69274 16.3315C7.72735 16.3483 7.7051 16.3459 7.74713 16.3627C7.9177 16.4275 7.97456 16.4203 8.16491 16.4203C8.28357 16.4203 8.27615 16.3963 8.35031 16.3747C8.36762 16.3699 8.36762 16.3723 8.38987 16.3651L8.43684 16.3387C8.52089 16.2859 8.53819 16.2931 8.6173 16.2187C8.62224 16.2139 8.63707 16.2019 8.64202 16.1971L8.84473 15.8948C8.85956 15.8444 8.86203 15.8708 8.87686 15.8324C8.90158 15.7701 8.90158 15.4798 8.87439 15.4126C8.85956 15.3718 8.85709 15.3934 8.84225 15.3502C8.82989 15.3118 8.84225 15.3238 8.82248 15.2854L8.8027 15.2566C8.79776 15.247 8.79034 15.2326 8.78787 15.2254C8.76068 15.1751 8.73101 15.1463 8.69393 15.1031L8.6791 15.0839C8.67663 15.0815 8.67415 15.0791 8.67415 15.0767L8.56538 14.9807C8.54808 14.9663 8.52336 14.9495 8.50852 14.9399C8.49369 14.9327 8.48875 14.9327 8.47639 14.9255C8.45414 14.9135 8.47144 14.9231 8.44672 14.9063C8.4047 14.88 8.42942 14.8919 8.37751 14.8776C8.31076 14.8608 8.31076 14.832 8.22918 14.832H7.92512L7.60128 14.9687L7.34418 15.2638C7.29721 15.3334 7.25519 15.4582 7.25519 15.5445L7.24777 15.5421Z" fill="#9F9F9F"/>
<path fill-rule="evenodd" clip-rule="evenodd" d="M13.4526 14.2731L13.5021 14.4746L13.5738 14.5706C13.6232 14.6233 13.6529 14.6401 13.7097 14.6617C13.7493 14.6785 13.7171 14.6665 13.7493 14.6809C13.8086 14.7097 13.8828 14.7025 13.9396 14.6977C13.994 14.6953 14.0632 14.6689 14.1102 14.6377C14.1127 14.6353 14.1152 14.6329 14.1176 14.6329L14.1844 14.5802C14.1868 14.5778 14.1893 14.5754 14.1918 14.5754C14.1943 14.573 14.2017 14.5658 14.2041 14.5634L14.6738 14.2371C14.6763 14.2347 14.6788 14.2347 14.6813 14.2323C14.6837 14.2299 14.6862 14.2299 14.6887 14.2275C14.7307 14.2083 14.6986 14.2347 14.7999 14.1819C14.837 14.1627 14.8444 14.1699 14.8889 14.1603C14.9285 14.1507 14.9383 14.1363 14.973 14.1243L15.3808 14.0691C15.4525 14.0691 15.4748 14.0499 15.5514 14.0091C15.5737 13.9971 15.5934 13.9804 15.6132 13.9612C15.6157 13.9588 15.6182 13.9564 15.6182 13.954C15.6206 13.9516 15.6231 13.9492 15.6231 13.9468C15.6231 13.9468 15.6379 13.93 15.6404 13.9276C15.7517 13.8004 15.7368 13.7356 15.7368 13.5941C15.7368 13.5077 15.6231 13.3494 15.5391 13.3134L15.4822 13.287C15.4723 13.2822 15.4624 13.263 15.4204 13.263C15.2671 13.263 15.0867 13.2462 14.973 13.2894C14.8988 13.3182 14.9062 13.3014 14.8246 13.311C14.7628 13.3182 14.7554 13.3446 14.6986 13.3542C14.5898 13.3733 14.6738 13.3422 14.5675 13.3925C14.5379 13.4069 14.5478 13.3997 14.5132 13.4093C14.4489 13.4285 14.4785 13.4309 14.4316 13.4477L14.1102 13.5989L13.643 13.9516C13.6356 13.9564 13.6306 13.9612 13.6232 13.9684C13.5861 14.0019 13.5317 14.0619 13.507 14.1051C13.4996 14.1195 13.4996 14.1291 13.4947 14.1411C13.4749 14.2251 13.4551 14.2275 13.4551 14.2683L13.4526 14.2731Z" fill="#9F9F9F"/>
<path fill-rule="evenodd" clip-rule="evenodd" d="M10.6791 19.0858C10.6791 19.2105 10.6667 19.1913 10.7063 19.2609C10.7557 19.3521 10.7433 19.4097 10.9139 19.4984C11.0351 19.5608 11.0697 19.5464 11.2303 19.5464C11.3465 19.5464 11.4355 19.5416 11.5468 19.5344C11.6012 19.5296 11.6333 19.5128 11.6728 19.5032C11.7248 19.4912 11.7742 19.4936 11.8236 19.484C11.8805 19.4721 11.8706 19.4529 11.9398 19.4433C12.0708 19.4241 11.9942 19.4217 12.0659 19.4001C12.145 19.3761 12.056 19.4217 12.1821 19.3593L12.4614 19.2273C12.4713 19.2201 12.4614 19.2249 12.4812 19.2129C12.501 19.2009 12.496 19.2081 12.5158 19.2009C12.5554 19.1841 12.5331 19.1937 12.5603 19.1721C12.6394 19.1074 12.6493 19.1218 12.7111 19.0714L12.8075 18.9994C12.8693 18.9466 12.9262 18.9058 12.9633 18.8315C13.0275 18.6995 13.0102 18.7211 13.0102 18.5459C13.0102 18.534 12.9534 18.4236 12.9138 18.3804L12.8174 18.2964C12.7334 18.2412 12.7877 18.2652 12.674 18.246C12.5727 18.2292 12.6518 18.2125 12.5257 18.2388C12.4713 18.2508 12.4417 18.2436 12.3922 18.2748C12.3724 18.2868 12.3601 18.2964 12.3403 18.3084C12.281 18.3444 12.1697 18.4452 12.0857 18.4884C12.0708 18.4956 12.0708 18.4932 12.061 18.5004L11.9151 18.5843C11.883 18.5987 11.883 18.5891 11.8484 18.6035C11.7767 18.6323 11.878 18.6155 11.7248 18.6491C11.6234 18.6707 11.7396 18.6755 11.5097 18.6995C11.4306 18.7067 11.4331 18.7187 11.3713 18.7307C11.2773 18.7499 11.1265 18.7235 11.0252 18.7379C11.0103 18.7403 10.9757 18.7475 10.9584 18.7571L10.904 18.7883C10.8571 18.8075 10.8571 18.8003 10.7977 18.8626C10.7755 18.8842 10.7409 18.9346 10.7285 18.961L10.6815 19.093L10.6791 19.0858Z" fill="#9F9F9F"/>
<path fill-rule="evenodd" clip-rule="evenodd" d="M13.2672 17.687C13.3932 17.687 13.4921 17.6582 13.5885 17.5719L13.6503 17.4999C13.6775 17.4615 13.7196 17.3751 13.7196 17.3319V15.6381C13.7196 15.5829 13.7097 15.5757 13.6874 15.5397L13.6479 15.4701C13.6454 15.4677 13.6429 15.4653 13.6429 15.4629C13.6405 15.4605 13.638 15.4581 13.638 15.4557L13.5366 15.3646C13.46 15.3166 13.4353 15.3094 13.3166 15.3046C13.2672 15.3022 13.2598 15.3118 13.2078 15.3166C13.1287 15.3214 13.0768 15.3598 13.0224 15.4101C13.02 15.4125 13.0175 15.4149 13.015 15.4149C13.0125 15.4173 13.0101 15.4197 13.0076 15.4197C13.0051 15.4221 13.0027 15.4245 13.0027 15.4245C13.0002 15.4269 12.9928 15.4341 12.9903 15.4365L12.973 15.4557C12.9285 15.5013 12.9557 15.4725 12.926 15.5277C12.9087 15.5589 12.8914 15.5709 12.8889 15.6237C12.8815 15.782 12.8889 15.962 12.8889 16.1227C12.8889 16.2091 12.8716 17.3583 12.8964 17.4207C12.9186 17.4759 13.015 17.5958 13.0743 17.627L13.1263 17.6462C13.1287 17.6462 13.1312 17.6486 13.1337 17.651C13.1584 17.663 13.1312 17.651 13.1559 17.6654C13.1955 17.6846 13.2177 17.687 13.2672 17.687Z" fill="#9F9F9F"/>
</svg>
