<svg width="25" height="22" viewBox="0 0 25 22" fill="none" xmlns="http://www.w3.org/2000/svg">
<path fill-rule="evenodd" clip-rule="evenodd" d="M23.9989 8.55376V21.01H21.0873V19.0852H3.91471V21.01H1.00309V8.55376H0V6.63913H2.44974L3.81501 2.39074C4.21787 1.13738 4.88931 0 6.20371 0H19.305C20.6194 0 21.3763 1.115 21.6937 2.3887L22.7497 6.6371H25V8.55172H23.9989V8.55376ZM8.14072 15.2417H16.7413V17.2703H8.14072V15.2417ZM1.9777 10.5172C4.16904 10.5864 5.50989 11.504 5.85375 13.4187H1.9777V10.5172ZM22.7476 10.5172C20.5563 10.5864 19.2154 11.504 18.8716 13.4187H22.7476V10.5172ZM3.49556 6.6371H21.5065L20.7353 3.07439C20.5237 2.09775 19.9154 1.25336 18.9143 1.25336H6.45805C5.45699 1.25336 4.94425 2.12013 4.63701 3.07439L3.49556 6.6371Z" fill="#9F9F9F"/>
</svg>
