<svg width="25" height="25" viewBox="0 0 25 25" fill="none" xmlns="http://www.w3.org/2000/svg">
<path d="M22.3214 0H2.67857C1.20536 0 0 1.20536 0 2.67857V22.3214C0 23.7946 1.20536 25 2.67857 25H22.3214C23.7946 25 25 23.7946 25 22.3214V2.67857C25 1.20536 23.7946 0 22.3214 0ZM7.14286 19.6429C7.14286 20.1339 6.74107 20.5357 6.25 20.5357H5.35714C4.86607 20.5357 4.46429 20.1339 4.46429 19.6429V14.7321C4.46429 14.2411 4.86607 13.8393 5.35714 13.8393H6.25C6.74107 13.8393 7.14286 14.2411 7.14286 14.7321V19.6429ZM11.6071 19.6429C11.6071 20.1339 11.2054 20.5357 10.7143 20.5357H9.82143C9.33036 20.5357 8.92857 20.1339 8.92857 19.6429V8.03571C8.92857 7.54464 9.33036 7.14286 9.82143 7.14286H10.7143C11.2054 7.14286 11.6071 7.54464 11.6071 8.03571V19.6429ZM16.0714 19.6429C16.0714 20.1339 15.6696 20.5357 15.1786 20.5357H14.2857C13.7946 20.5357 13.3929 20.1339 13.3929 19.6429V5.35714C13.3929 4.86607 13.7946 4.46429 14.2857 4.46429H15.1786C15.6696 4.46429 16.0714 4.86607 16.0714 5.35714V19.6429ZM20.5357 19.6429C20.5357 20.1339 20.1339 20.5357 19.6429 20.5357H18.75C18.2589 20.5357 17.8571 20.1339 17.8571 19.6429V11.1607C17.8571 10.6696 18.2589 10.2679 18.75 10.2679H19.6429C20.1339 10.2679 20.5357 10.6696 20.5357 11.1607V19.6429Z" fill="#9F9F9F"/>
</svg>
