<svg width="22" height="17" viewBox="0 0 22 17" fill="none" xmlns="http://www.w3.org/2000/svg">
<path d="M20.7789 7.48983C19.7707 6.24151 16.0257 2.16044 10.5523 2.16044C9.9412 2.15876 9.33101 2.20693 8.72778 2.30448L18.1863 11.811C19.1511 11.09 20.0221 10.2513 20.7789 9.31431C20.9896 9.05695 21.1046 8.73463 21.1046 8.40207C21.1046 8.06951 20.9896 7.7472 20.7789 7.48983Z" fill="black"/>
<path d="M18.7625 15.268L13.145 9.65052C12.9149 10.1426 12.5481 10.5581 12.0884 10.8475C11.6288 11.1369 11.0956 11.2881 10.5524 11.2829C9.78835 11.2829 9.05562 10.9794 8.51537 10.4392C7.97512 9.89895 7.67162 9.16622 7.67162 8.40219C7.66649 7.85901 7.81764 7.3258 8.10707 6.86612C8.3965 6.40644 8.812 6.03967 9.30404 5.80952L3.68658 0.192051C3.50166 0.0533633 3.27292 -0.0139687 3.04236 0.00241706C2.81179 0.0188028 2.59487 0.117807 2.43143 0.281252C2.26798 0.444698 2.16898 0.661615 2.15259 0.892181C2.13621 1.12275 2.20354 1.35148 2.34223 1.5364L4.64683 3.841C2.98916 4.77383 1.52299 6.01193 0.325699 7.48996C0.115077 7.74732 0 8.06963 0 8.40219C0 8.73475 0.115077 9.05707 0.325699 9.31443C1.33396 10.5628 5.07894 14.6438 10.5524 14.6438C11.9468 14.6249 13.3275 14.365 14.6334 13.8756L17.4182 16.6123C17.5007 16.7224 17.6059 16.8134 17.7267 16.8793C17.8475 16.9451 17.9811 16.9843 18.1183 16.994C18.2555 17.0038 18.3932 16.9839 18.5221 16.9358C18.651 16.8877 18.7681 16.8125 18.8654 16.7152C18.9626 16.6179 19.0379 16.5009 19.086 16.372C19.1341 16.2431 19.154 16.1053 19.1442 15.9681C19.1344 15.8309 19.0953 15.6974 19.0295 15.5766C18.9636 15.4558 18.8726 15.3505 18.7625 15.268Z" fill="black"/>
</svg>
