<svg width="24" height="24" viewBox="0 0 24 24" fill="none" xmlns="http://www.w3.org/2000/svg">
<path d="M12 0C5.3715 0 0 5.3715 0 12C0 18.6285 5.3715 24 12 24C18.6285 24 24 18.6285 24 12C24 5.3715 18.6285 0 12 0ZM12 21C7.032 21 3 16.968 3 12C3 7.032 7.032 3 12 3C16.968 3 21 7.032 21 12C21 16.968 16.968 21 12 21ZM9.75 9.75L6 16.5V18H7.5L14.25 14.25L18 7.5V6H16.5L9.75 9.75ZM12 13.5C11.1705 13.5 10.5 12.8295 10.5 12C10.5 11.1705 11.1705 10.5 12 10.5C12.8295 10.5 13.5 11.1705 13.5 12C13.5 12.8295 12.8295 13.5 12 13.5Z" fill="#003566"/>
</svg>
