<svg width="30" height="24" viewBox="0 0 30 24" fill="none" xmlns="http://www.w3.org/2000/svg">
<path fill-rule="evenodd" clip-rule="evenodd" d="M27.1875 3.5H24.375V2.5625C24.375 1.52697 23.5355 0.6875 22.5 0.6875H7.5C6.46447 0.6875 5.625 1.52697 5.625 2.5625V3.5H2.8125C1.77697 3.5 0.9375 4.33947 0.9375 5.375V7.25C0.9375 9.83883 3.03617 11.9375 5.625 11.9375H6.05273C7.18147 15.5145 10.3306 18.0767 14.0625 18.4543V21.3125H11.25C10.7322 21.3125 10.3125 21.7322 10.3125 22.25C10.3125 22.7678 10.7322 23.1875 11.25 23.1875H18.75C19.2678 23.1875 19.6875 22.7678 19.6875 22.25C19.6875 21.7322 19.2678 21.3125 18.75 21.3125H15.9375V18.4508C19.6805 18.0723 22.7859 15.4461 23.9156 11.9375H24.375C26.9638 11.9375 29.0625 9.83883 29.0625 7.25V5.375C29.0625 4.33947 28.223 3.5 27.1875 3.5ZM5.625 10.0625C4.0717 10.0625 2.8125 8.8033 2.8125 7.25V5.375H5.625V9.125C5.625 9.4375 5.64023 9.75 5.6707 10.0625H5.625ZM22.5 9.01953C22.5 13.182 19.1613 16.5945 15.0574 16.625H15C10.8579 16.625 7.5 13.2671 7.5 9.125V2.5625H22.5V9.01953ZM27.1875 7.25C27.1875 8.8033 25.9283 10.0625 24.375 10.0625H24.3164C24.3549 9.71617 24.3744 9.36799 24.375 9.01953V5.375H27.1875V7.25Z" fill="#121417"/>
</svg>
