<svg width="24" height="24" viewBox="0 0 24 24" fill="none" xmlns="http://www.w3.org/2000/svg">
<path d="M9.00001 12.2669V21.7499C9.00002 21.8778 9.03273 22.0036 9.09504 22.1153C9.15734 22.2269 9.24718 22.3209 9.356 22.388C9.46483 22.4552 9.58903 22.4935 9.7168 22.4991C9.84457 22.5048 9.97167 22.4777 10.086 22.4204L14.586 20.1704C14.7104 20.1081 14.8151 20.0123 14.8882 19.8939C14.9613 19.7755 15 19.6391 15 19.4999V12.2669L21.5805 4.2254C21.643 4.14917 21.6898 4.06138 21.7183 3.96706C21.7468 3.87273 21.7565 3.77371 21.7467 3.67565C21.737 3.57759 21.708 3.48242 21.6615 3.39555C21.6149 3.30869 21.5517 3.23184 21.4755 3.1694C21.3993 3.10696 21.3115 3.06014 21.2172 3.03162C21.1228 3.0031 21.0238 2.99344 20.9258 3.00319C20.8277 3.01294 20.7325 3.04191 20.6457 3.08845C20.5588 3.13498 20.482 3.19817 20.4195 3.2744L13.6695 11.5244C13.5598 11.6586 13.4999 11.8266 13.5 11.9999V19.0364L10.5 20.5364V11.9999C10.5002 11.8266 10.4403 11.6586 10.3305 11.5244L4.58251 4.4999H16.5C16.6989 4.4999 16.8897 4.42088 17.0303 4.28023C17.171 4.13958 17.25 3.94881 17.25 3.7499C17.25 3.55099 17.171 3.36022 17.0303 3.21957C16.8897 3.07892 16.6989 2.9999 16.5 2.9999H3.00001C2.85793 2.9998 2.71875 3.04007 2.59866 3.11601C2.47858 3.19194 2.38253 3.30043 2.32171 3.42883C2.26089 3.55724 2.23779 3.70028 2.2551 3.8413C2.27242 3.98232 2.32943 4.11552 2.41951 4.2254L9.00001 12.2669Z" fill="black"/>
</svg>
