<svg width="41" height="41" viewBox="0 0 41 41" fill="none" xmlns="http://www.w3.org/2000/svg">
<path d="M29.104 0H11.9164C4.45072 0 0 4.4485 0 11.9105V29.069C0 36.5515 4.45072 41 11.9164 41H29.0835C36.5492 41 40.9999 36.5515 40.9999 29.0895V11.9105C41.0204 4.4485 36.5697 0 29.104 0ZM11.6293 7.175C11.6293 6.3345 12.3266 5.6375 13.1676 5.6375C14.0085 5.6375 14.7058 6.3345 14.7058 7.175V15.17C14.7058 16.0105 14.0085 16.7075 13.1676 16.7075C12.3266 16.7075 11.6293 16.0105 11.6293 15.17V7.175ZM15.4295 29.5842C15.0122 29.7693 14.7058 30.1621 14.7058 30.6184V33.825C14.7058 34.6655 14.0085 35.3625 13.1676 35.3625C12.3266 35.3625 11.6293 34.6655 11.6293 33.825V30.6184C11.6293 30.1621 11.3229 29.7693 10.9058 29.5838C8.9481 28.7131 7.58878 26.7689 7.58878 24.4975C7.58878 21.4225 10.091 18.901 13.1676 18.901C16.2441 18.901 18.7669 21.402 18.7669 24.4975C18.7669 26.7693 17.3908 28.7135 15.4295 29.5842ZM29.3911 33.825C29.3911 34.6655 28.6938 35.3625 27.8529 35.3625C27.012 35.3625 26.3146 34.6655 26.3146 33.825V25.83C26.3146 24.9895 27.012 24.2925 27.8529 24.2925C28.6938 24.2925 29.3911 24.9895 29.3911 25.83V33.825ZM27.8529 22.0785C24.7763 22.0785 22.2536 19.5775 22.2536 16.482C22.2536 14.2103 23.6296 12.266 25.591 11.3954C26.0082 11.2102 26.3146 10.8175 26.3146 10.3611V7.175C26.3146 6.3345 27.012 5.6375 27.8529 5.6375C28.6938 5.6375 29.3911 6.3345 29.3911 7.175V10.3816C29.3911 10.838 29.6976 11.2306 30.1147 11.4161C32.0722 12.2869 33.4317 14.231 33.4317 16.5025C33.4317 19.5775 30.9294 22.0785 27.8529 22.0785Z" fill="#9F9F9F"/>
</svg>
