<svg width="380" height="285" viewBox="0 0 380 285" fill="none" xmlns="http://www.w3.org/2000/svg">
<path d="M95.5615 2.5H296.887C315.273 2.5 326.36 18.072 331.169 37.3652V37.3662L342.983 84.9072L344.558 91.2432L347.617 85.4766L353.754 73.9092C361.626 73.5804 367.514 74.4687 371.448 76.0791C375.589 77.7742 377.161 80.0517 377.328 82.2871C377.511 84.7363 376.124 88.1977 371.95 92.3545C367.84 96.4478 361.345 100.881 352.223 105.213L349.64 106.439L351.2 108.836L357.23 118.096L357.363 118.3L357.532 118.474C369.156 130.44 374.587 147.151 376.566 168.897C378.548 190.667 377.044 217.073 375.139 248.146L375.134 248.223V273.51C375.134 278.451 371.085 282.5 366.16 282.5H317.205C312.281 282.5 308.232 278.451 308.231 273.51V256.948H71.8467V273.51C71.8466 278.451 67.7976 282.5 62.873 282.5H13.918C8.9936 282.5 4.94541 278.451 4.94531 273.51V242.197C4.94532 241.729 4.99101 241.268 5.05469 240.662L5.0791 240.435L5.06152 240.207L4.95801 238.89C3.1033 215.12 1.0119 188.191 4 164.188C6.99059 140.164 14.998 119.668 32.8135 108.113L36.4512 105.754L32.5869 103.787C24.2552 99.5466 18.4093 95.2644 14.8018 91.3516C11.1436 87.3839 10.0913 84.1508 10.4268 81.8789C10.7418 79.7462 12.4379 77.5442 16.6084 75.9297C20.5435 74.4064 26.322 73.5833 33.9639 73.9082L40.9365 86.9971L43.7158 92.2158L45.5234 86.5859L61.2646 37.5586V37.5576C64.3164 28.0374 68.3114 19.2102 73.8604 12.7969C79.3395 6.46443 86.3071 2.50007 95.5615 2.5Z" stroke="black" stroke-width="5"/>
</svg>
