<svg width="45" height="34" viewBox="0 0 45 34" fill="none" xmlns="http://www.w3.org/2000/svg">
<path d="M28.125 0C23.6495 0 19.3572 1.7779 16.1926 4.94257C13.0279 8.10725 11.25 12.3995 11.25 16.875C11.25 21.3505 13.0279 25.6428 16.1926 28.8074C19.3572 31.9721 23.6495 33.75 28.125 33.75C30.3411 33.75 32.5354 33.3135 34.5828 32.4655C36.6302 31.6174 38.4904 30.3744 40.0574 28.8074C41.6244 27.2404 42.8674 25.3802 43.7155 23.3328C44.5635 21.2854 45 19.0911 45 16.875C45 14.6589 44.5635 12.4646 43.7155 10.4172C42.8674 8.36985 41.6244 6.50956 40.0574 4.94257C38.4904 3.37558 36.6302 2.13258 34.5828 1.28453C32.5354 0.436485 30.3411 0 28.125 0ZM28.125 5.8883C34.1851 5.8883 39.1117 10.8149 39.1117 16.875C39.1117 22.9351 34.1851 27.8617 28.125 27.8617C22.0649 27.8617 17.1383 22.9351 17.1383 16.875C17.1383 10.8149 22.0649 5.8883 28.125 5.8883ZM28.125 7.18085C26.6589 7.18085 25.2701 7.50543 24.0255 8.08578C24.8546 10.4468 26.2736 13.4282 28.125 13.4282C29.9793 13.4282 31.3511 10.4374 32.2003 8.07451C30.9618 7.50126 29.5816 7.18085 28.125 7.18085ZM35.2162 10.26C33.2261 11.7782 30.8257 14.0508 31.3982 15.8127C31.9713 17.5766 35.2405 17.9568 37.7503 18.0342C37.7954 17.6541 37.8191 17.2674 37.8191 16.875C37.8191 14.3156 36.8314 11.9912 35.2162 10.26ZM21.0176 10.2774C19.412 12.0067 18.4309 14.3241 18.4309 16.875C18.4309 17.2735 18.4553 17.6662 18.5018 18.0519C21.0031 17.9927 24.2738 17.5641 24.8456 15.8043C25.4183 14.042 23.0016 11.8152 21.0176 10.2774ZM26.0577 13.4114C25.9275 13.4151 25.8015 13.458 25.6961 13.5345C25.5575 13.6352 25.4646 13.7869 25.4378 13.9562C25.411 14.1255 25.4525 14.2984 25.5533 14.4371C25.654 14.5758 25.8057 14.6687 25.9749 14.6956C26.1442 14.7224 26.3172 14.6809 26.4559 14.5802C26.5246 14.5303 26.5827 14.4674 26.6271 14.395C26.6714 14.3227 26.7011 14.2423 26.7144 14.1585C26.7277 14.0746 26.7243 13.989 26.7045 13.9065C26.6847 13.8239 26.6488 13.7461 26.5989 13.6774C26.5371 13.5924 26.4556 13.5238 26.3612 13.4774C26.2669 13.4311 26.1627 13.4084 26.0577 13.4114ZM30.1923 13.4114C30.177 13.4109 30.1618 13.411 30.1466 13.4117C30.0493 13.4158 29.9542 13.4418 29.8684 13.4878C29.7826 13.5338 29.7083 13.5986 29.6511 13.6774C29.6012 13.746 29.5653 13.8239 29.5455 13.9064C29.5257 13.9889 29.5223 14.0746 29.5356 14.1584C29.5489 14.2423 29.5785 14.3227 29.6229 14.395C29.6672 14.4674 29.7254 14.5303 29.7941 14.5802C29.9328 14.6809 30.1058 14.7224 30.2751 14.6956C30.4443 14.6688 30.596 14.5758 30.6967 14.4372C30.7975 14.2985 30.839 14.1255 30.8122 13.9563C30.7854 13.787 30.6925 13.6353 30.5539 13.5345C30.4485 13.458 30.3225 13.4151 30.1923 13.4114ZM28.125 14.5771C27.5156 14.5771 26.9311 14.8192 26.5002 15.2502C26.0692 15.6811 25.8271 16.2656 25.8271 16.875C25.8271 17.4844 26.0692 18.0689 26.5002 18.4998C26.9311 18.9308 27.5156 19.1729 28.125 19.1729C28.7344 19.1729 29.3189 18.9308 29.7498 18.4998C30.1808 18.0689 30.4229 17.4844 30.4229 16.875C30.4229 16.2656 30.1808 15.6811 29.7498 15.2502C29.3189 14.8192 28.7344 14.5771 28.125 14.5771ZM24.8005 17.3085C24.7358 17.3094 24.6716 17.3201 24.61 17.3401C24.5293 17.3663 24.4545 17.4082 24.39 17.4633C24.3254 17.5184 24.2724 17.5857 24.2338 17.6613C24.1953 17.7369 24.172 17.8194 24.1654 17.904C24.1587 17.9887 24.1688 18.0738 24.195 18.1545C24.248 18.3175 24.3635 18.4528 24.5162 18.5306C24.6689 18.6084 24.8463 18.6223 25.0093 18.5694C25.09 18.5432 25.1648 18.5013 25.2293 18.4462C25.2939 18.3911 25.3469 18.3238 25.3855 18.2482C25.424 18.1726 25.4473 18.0901 25.454 18.0055C25.4606 17.9209 25.4506 17.8358 25.4244 17.7551C25.3817 17.6238 25.2981 17.5096 25.1859 17.4292C25.0736 17.3488 24.9385 17.3065 24.8005 17.3085ZM31.4683 17.3091C31.3272 17.303 31.1879 17.3432 31.0719 17.4238C30.9558 17.5043 30.8693 17.6207 30.8256 17.755C30.7994 17.8357 30.7894 17.9208 30.796 18.0054C30.8027 18.09 30.826 18.1725 30.8645 18.2481C30.9031 18.3237 30.9561 18.391 31.0207 18.4461C31.0852 18.5012 31.16 18.5431 31.2407 18.5693C31.4037 18.6223 31.5811 18.6083 31.7338 18.5305C31.8865 18.4527 32.002 18.3175 32.055 18.1545C32.0812 18.0738 32.0913 17.9887 32.0846 17.904C32.078 17.8194 32.0547 17.7369 32.0162 17.6613C31.9776 17.5857 31.9246 17.5184 31.86 17.4633C31.7955 17.4082 31.7207 17.3663 31.64 17.3401C31.5844 17.3221 31.5267 17.3116 31.4683 17.3091ZM24.8517 19.2991C23.3013 19.3066 21.244 20.5078 19.651 21.5918C21.0175 24.0454 23.4181 25.8403 26.2677 26.3913C26.985 23.9936 27.5904 20.7458 26.092 19.6573C25.7435 19.404 25.321 19.2968 24.8517 19.2991ZM31.3874 19.3005C30.9149 19.3005 30.4904 19.4094 30.1418 19.6626C28.6414 20.7527 29.2899 23.9787 29.9919 26.3895C32.8417 25.8355 35.2417 24.037 36.6054 21.5803C35.0252 20.487 32.9479 19.3005 31.3874 19.3005V19.3005ZM28.125 19.7172C27.9536 19.7172 27.7892 19.7853 27.668 19.9065C27.5468 20.0277 27.4787 20.1921 27.4787 20.3635C27.4787 20.5349 27.5468 20.6992 27.668 20.8204C27.7892 20.9416 27.9536 21.0097 28.125 21.0097C28.2964 21.0097 28.4608 20.9416 28.582 20.8204C28.7032 20.6992 28.7713 20.5349 28.7713 20.3635C28.7713 20.1921 28.7032 20.0277 28.582 19.9065C28.4608 19.7853 28.2964 19.7172 28.125 19.7172Z" fill="#FFC300"/>
<path d="M6.25 3.71094C6.25 3.02058 6.80964 2.46094 7.5 2.46094H20V4.96094H7.5C6.80964 4.96094 6.25 4.40129 6.25 3.71094Z" fill="#FFC300"/>
<path d="M7.5 9.96094C7.5 9.27058 8.05964 8.71094 8.75 8.71094H17.5V11.2109H8.75C8.05964 11.2109 7.5 10.6513 7.5 9.96094Z" fill="#FFC300"/>
<path d="M0 28.7109C0 29.4013 0.559644 29.9609 1.25 29.9609H17.5V27.4609H1.25C0.559645 27.4609 0 28.0206 0 28.7109Z" fill="#FFC300"/>
<path d="M1.25 22.4609C1.25 23.1513 1.80964 23.7109 2.5 23.7109H13.75V21.2109H2.5C1.80964 21.2109 1.25 21.7706 1.25 22.4609Z" fill="#FFC300"/>
</svg>
