<svg width="25" height="28" viewBox="0 0 25 28" fill="none" xmlns="http://www.w3.org/2000/svg">
<path d="M16.1143 0.75L15.127 6.67676L15.0479 7.15137L15.4463 7.42188C19.517 10.1724 22.0562 13.3906 22.4854 18.1924V18.1934L22.9395 23.8594L22.9785 24.3545L23.4492 24.5117C23.9156 24.6672 24.1836 25.0042 24.1836 25.3867C24.1836 25.8791 23.7258 26.3369 23.2334 26.3369H1.7002C1.20776 26.3369 0.750034 25.8791 0.75 25.3867C0.75 25.0043 1.01727 24.6673 1.4834 24.5117L1.95508 24.3545L1.99414 23.8594L2.44727 18.1934L2.44824 18.1836C2.76266 13.4673 5.21827 10.2791 9.17773 7.55566L13.4678 7.66309H13.4863C14.2776 7.66309 15.0302 7.05996 15.0303 6.2334C15.0303 5.53441 14.5546 4.9051 13.7822 4.71191L13.7422 4.70215L13.7012 4.69727L9.25 4.08887L8.83789 1.88379H10.7871L11.0127 1.60156L11.6943 0.75H16.1143ZM13.5439 13.4102C13.0204 12.6254 11.9132 12.6255 11.3896 13.4102L11.3633 13.4492L11.3428 13.4912L10.3857 15.4033L8.28516 15.6904L8.24414 15.6953L8.20508 15.7061C7.74556 15.8209 7.39281 16.136 7.25 16.5645C7.11342 16.9742 7.19344 17.4117 7.42285 17.7559L7.46387 17.8174L9.05176 19.4053L8.66895 21.5127L8.65625 21.5791V21.6465C8.65625 22.1219 8.89172 22.5428 9.23438 22.792C9.57189 23.0375 10.0883 23.1524 10.5615 22.8701L12.4658 21.918L14.3975 22.8838C14.8587 23.1144 15.387 23.0799 15.7832 22.792C16.1725 22.5088 16.3699 22.0213 16.2617 21.5127H16.2646L15.8809 19.4053L17.417 17.8701L17.4697 17.8174L17.5107 17.7559C17.7401 17.4118 17.8201 16.9741 17.6836 16.5645C17.5408 16.136 17.188 15.8209 16.7285 15.7061L16.6885 15.6953L16.6484 15.6904L14.5469 15.4033L13.5908 13.4912L13.5703 13.4492L13.5439 13.4102Z" stroke="black" stroke-width="1.5"/>
</svg>
