<svg width="73" height="74" viewBox="0 0 73 74" fill="none" xmlns="http://www.w3.org/2000/svg">
<ellipse cx="36.4997" cy="60.4202" rx="13.9048" ry="13.0638" fill="#FFC300" fill-opacity="0.72"/>
<g clip-path="url(#clip0_1065_2083)">
<path d="M36.5 5.71533C31.9707 5.77734 27.6278 7.41967 24.3158 10.323C21.0038 13.2263 18.9593 17.183 18.58 21.4239C18.2007 25.6648 19.5136 29.8866 22.2635 33.2685C25.0133 36.6504 29.0036 38.9506 33.4583 39.7219V60.0116C33.4583 60.7695 33.7788 61.4963 34.3492 62.0323C34.9196 62.5682 35.6933 62.8693 36.5 62.8693C37.3067 62.8693 38.0804 62.5682 38.6508 62.0323C39.2212 61.4963 39.5417 60.7695 39.5417 60.0116V39.7219C43.9964 38.9506 47.9867 36.6504 50.7365 33.2685C53.4864 29.8866 54.7993 25.6648 54.42 21.4239C54.0407 17.183 51.9962 13.2263 48.6842 10.323C45.3722 7.41967 41.0293 5.77734 36.5 5.71533ZM36.5 28.5769C35.2968 28.5769 34.1207 28.2417 33.1203 27.6137C32.1199 26.9857 31.3402 26.093 30.8797 25.0487C30.4193 24.0043 30.2988 22.8552 30.5336 21.7465C30.7683 20.6378 31.3477 19.6194 32.1984 18.8201C33.0492 18.0208 34.1331 17.4765 35.3132 17.2559C36.4932 17.0354 37.7164 17.1486 38.828 17.5812C39.9396 18.0138 40.8897 18.7463 41.5581 19.6862C42.2265 20.6261 42.5833 21.7311 42.5833 22.8615C42.5833 24.3773 41.9424 25.8311 40.8016 26.9029C39.6607 27.9747 38.1134 28.5769 36.5 28.5769Z" fill="#003566"/>
</g>
<defs>
<clipPath id="clip0_1065_2083">
<rect width="73" height="68.5847" fill="white"/>
</clipPath>
</defs>
</svg>
