<svg width="21" height="21" viewBox="0 0 21 21" fill="none" xmlns="http://www.w3.org/2000/svg">
<path d="M16.3208 20.4744C16.0941 20.399 15.7462 20.2546 15.5478 20.1519C14.5179 19.6191 3.10804 12.846 2.99803 12.7022C2.78922 12.4293 2.84135 11.9124 3.10106 11.6803C3.22861 11.5654 4.05196 11.1818 4.9307 10.8259C5.80943 10.4702 6.56858 10.1551 6.61768 10.1256C6.66671 10.0965 5.5769 9.58817 4.19574 8.99657C2.81457 8.4048 1.60113 7.84526 1.49922 7.75303C1.07946 7.37314 1.55802 6.85526 2.25067 6.93994C2.72102 6.99823 8.03546 9.3324 8.20341 9.55543C8.35821 9.7608 8.37141 10.2458 8.22947 10.5111C8.1729 10.6174 7.47637 11.0398 6.68159 11.4509C5.88681 11.8622 5.2721 12.2311 5.31556 12.2707C5.35893 12.3101 8.06173 13.77 11.3216 15.5145C18.5054 19.3586 18.0912 19.1263 18.2836 19.4199C18.744 20.1226 17.4173 20.8354 16.3208 20.4744ZM17.5887 19.9742C17.9171 19.6457 17.599 19.2732 16.9909 19.2732C16.3594 19.2732 16.0118 19.7314 16.4497 19.9865C16.6996 20.1322 17.4388 20.1237 17.5887 19.9694V19.9742ZM2.44614 7.63423C2.68591 7.48166 2.49499 7.2132 2.14765 7.2132C1.95326 7.2132 1.80762 7.27663 1.76862 7.37777C1.70159 7.55263 1.88982 7.72509 2.14765 7.72509C2.23267 7.72509 2.36701 7.68394 2.44614 7.63423ZM16.5002 17.2375C14.8875 15.1718 13.4877 12.4164 13.3181 10.974C13.1753 9.75909 13.8537 8.36006 14.936 7.63731C17.7358 5.76771 21.2597 8.31651 20.449 11.6249C20.2008 12.6375 19.2344 14.5685 18.246 16.0263C16.974 17.9023 17.0034 17.8819 16.5002 17.2375ZM17.7152 12.3975C18.3226 11.9789 18.4107 11.4002 17.9389 10.9284L17.6501 10.6395L17.8874 10.3637C18.2297 9.96566 18.202 9.49046 17.8149 9.11949C17.5303 8.84691 17.4296 8.81914 16.578 8.77834L15.6508 8.73377V10.6533V12.5727H16.5556C17.2395 12.5727 17.5226 12.5302 17.7152 12.3975ZM16.4755 11.394C16.4755 11.0619 16.5025 11.0271 16.7589 11.0285C17.1574 11.0285 17.3238 11.1657 17.2833 11.4509C17.2547 11.6532 17.1798 11.7027 16.862 11.729C16.4817 11.7598 16.4755 11.7547 16.4755 11.394ZM16.4755 9.93823C16.4755 9.588 16.4909 9.5724 16.8001 9.60309C17.4481 9.66823 17.4226 10.3054 16.7721 10.3054C16.5008 10.3054 16.4755 10.2746 16.4755 9.93823ZM1.34464 5.21966C0.201949 3.49166 -0.19088 2.3316 0.084332 1.4976C0.358189 0.667886 1.25164 0.00445714 2.10163 0C2.70127 0 3.50373 0.427886 3.86255 0.946114C4.12439 1.32429 4.15749 1.46057 4.15616 2.15383C4.15483 2.8428 4.10987 3.02691 3.77668 3.70851C3.30597 4.67126 2.33524 6.12103 2.1353 6.15994C2.04462 6.17708 1.73347 5.80766 1.34464 5.21966ZM1.59498 3.1416C1.63543 3.03703 1.80007 2.98731 2.11038 2.98731C2.42066 2.98731 2.58539 3.03703 2.62576 3.1416C2.67496 3.27017 3.17843 3.3768 3.17843 3.25989C3.17843 3.23931 2.94193 2.71749 2.65285 2.10017L2.12728 0.977829L1.91464 1.39011C1.79773 1.61691 1.54833 2.13874 1.3605 2.54966L1.01899 3.29709H1.27732C1.41943 3.29709 1.56235 3.2256 1.59498 3.1416ZM1.94149 2.47989C1.94149 2.42846 1.97114 2.30811 2.00731 2.21366C2.05994 2.07651 2.0908 2.06966 2.1604 2.17937C2.29583 2.39314 2.26634 2.57469 2.09611 2.57469C2.01109 2.57469 1.94149 2.53131 1.94149 2.47989Z" fill="black"/>
</svg>
