<svg width="24" height="24" viewBox="0 0 24 24" fill="none" xmlns="http://www.w3.org/2000/svg">
<path d="M12 15C13.6569 15 15 13.6569 15 12C15 10.3431 13.6569 9 12 9C10.3431 9 9 10.3431 9 12C9 13.6569 10.3431 15 12 15Z" fill="#003566"/>
<path fill-rule="evenodd" clip-rule="evenodd" d="M3.12444 10.5C3.75672 6.73124 6.73124 3.75672 10.5 3.12444V0H13.5V3.12444C17.2687 3.75672 20.2432 6.73124 20.8755 10.5H24V13.5H20.8755C20.2432 17.2687 17.2687 20.2432 13.5 20.8755V24H10.5V20.8755C6.73124 20.2432 3.75672 17.2687 3.12444 13.5H0V10.5H3.12444ZM6 12C6 8.68629 8.68629 6 12 6C15.3137 6 18 8.68629 18 12C18 15.3137 15.3137 18 12 18C8.68629 18 6 15.3137 6 12Z" fill="#003566"/>
</svg>
