<svg width="21" height="26" viewBox="0 0 21 26" fill="none" xmlns="http://www.w3.org/2000/svg">
<path fill-rule="evenodd" clip-rule="evenodd" d="M18.375 17.7188V11.1562C18.375 7.12687 16.2355 3.75375 12.4688 2.86125V1.96875C12.4688 0.879375 11.5894 0 10.5 0C9.41055 0 8.53125 0.879375 8.53125 1.96875V2.86125C4.7775 3.75375 2.625 7.11375 2.625 11.1562V17.7188L0 20.3438V21.6562H21V20.3438L18.375 17.7188ZM10.5 25.5938C11.9438 25.5938 13.125 24.4125 13.125 22.9688H7.875C7.875 24.4125 9.05625 25.5938 10.5 25.5938ZM5.25 19.0312H15.75V11.1562C15.75 7.90125 13.7682 5.25 10.5 5.25C7.23187 5.25 5.25 7.90125 5.25 11.1562V19.0312Z" fill="black"/>
</svg>
