<svg width="16" height="20" viewBox="0 0 16 20" fill="none" xmlns="http://www.w3.org/2000/svg">
<path d="M7.84681 8C5.62248 7.96503 3.92332 6.14903 3.90827 4C3.94501 1.76112 5.74686 0.0157 7.84681 0C10.0731 0.0855 11.7696 1.81617 11.7854 4C11.7416 6.24065 9.94892 7.98483 7.84681 8ZM11.0312 8.8298C13.8307 8.86298 15.2503 11.357 15.2632 13.851V20H12.5187L12.5187 14.5958C12.4519 14.2222 12.2028 14.0955 11.9745 14.1321C11.7608 14.1664 11.5654 14.3438 11.555 14.5958V20H3.92951V14.5958C3.87113 14.2402 3.64842 14.1035 3.43175 14.1173C3.19974 14.1321 2.97467 14.3195 2.96581 14.5958V20H0.2633V13.851C0.247217 11.193 1.90274 8.8495 4.51591 8.8298H11.0312Z" fill="black"/>
</svg>
