<svg width="26" height="26" viewBox="0 0 26 26" fill="none" xmlns="http://www.w3.org/2000/svg">
<path d="M13.1001 21.4L15.5001 25L19.1001 23.8L19.7001 19.6L23.9001 19L25.1001 15.4L21.5001 13L25.1001 10.6L23.9001 7L19.7001 6.4L19.1001 2.2L15.5001 1L13.1001 4.6L10.7001 1L7.1001 2.2L6.5001 6.4L2.3001 7L1.1001 10.6L4.7001 13L1.1001 15.4L2.3001 19L6.5001 19.6L7.1001 23.8L10.7001 25L13.1001 21.4ZM13.1001 17.8C10.4491 17.8 8.3001 15.651 8.3001 13C8.3001 10.349 10.4491 8.2 13.1001 8.2C15.7511 8.2 17.9001 10.349 17.9001 13C17.9001 15.651 15.7511 17.8 13.1001 17.8Z" stroke="black" stroke-width="1.5" stroke-linecap="round" stroke-linejoin="round"/>
</svg>
